<svg width="60" height="60" viewBox="0 0 60 60" fill="none" xmlns="http://www.w3.org/2000/svg">
<path d="M60 30C60 46.5685 46.5685 60 30 60C13.4315 60 0 46.5685 0 30C0 13.4315 13.4315 0 30 0C46.5685 0 60 13.4315 60 30Z" fill="#37405E"/>
<path fill-rule="evenodd" clip-rule="evenodd" d="M18 38.2714L23.6986 44L25.5142 42.1771L19.814 36.4485L18 38.2714ZM25.2011 40.8978C25.5719 40.4702 25.9925 40.2428 26.5687 40.2428H32.8484C33.9431 40.2428 34.8614 39.7282 35.5035 38.8392L38.7493 34.3399C39.3753 33.472 38.0992 32.4024 37.3752 33.1881L35.107 35.6498C35.2499 36.7936 34.3542 37.81 33.2096 37.81C32.0057 37.81 30.8065 37.8084 29.6027 37.8084C29.4165 37.8084 29.2656 37.6567 29.2656 37.468C29.2656 37.2809 29.4165 37.1292 29.6027 37.1292L33.2096 37.1276C33.9304 37.1276 34.4842 36.5081 34.4409 35.8144C34.4008 35.1627 33.8629 34.648 33.2096 34.648H28.9798L28.4468 34.3383C27.9589 34.056 27.474 33.9253 26.9106 33.9253H25.1738C24.3262 33.9253 23.6054 34.2351 23.0003 34.8303L21.0596 36.7339L25.2011 40.8978ZM43 23.97H38.775C38.775 21.4856 38.7814 19.0125 38.7814 16.5265H43V23.97ZM36.2419 24.2297L38.0959 23.4941C38.0959 21.3694 38.1008 19.2448 38.1008 17.1202L33.2706 16.0022C32.6237 15.9425 31.2449 17.1137 30.2319 18.1801H35.6945V20.6306C36.0573 20.6532 36.4105 20.5999 36.77 20.4273C36.2788 20.9871 35.8759 21.9841 33.7184 21.8292C32.1598 21.9082 31.028 23.4247 32.3604 23.7215L35.0267 24.3136C35.5244 24.4249 35.7299 24.433 36.2419 24.2297ZM35.0155 18.8641V21.0533C34.6142 21.1743 34.1599 21.1758 33.7666 21.1484L33.6831 21.1468C33.0217 21.1807 32.3492 21.4259 31.8323 21.847C30.7086 22.7633 30.8884 24.0926 32.2127 24.3878L34.879 24.9815C34.9255 24.9911 34.9721 25.0008 35.0154 25.0105V32.3927H24.4272V18.8641H35.0155ZM33.2289 20.2951C33.4151 20.2951 33.566 20.4483 33.566 20.6355C33.566 20.8226 33.4151 20.9759 33.2289 20.9759H26.214C26.0278 20.9759 25.8753 20.8226 25.8753 20.6355C25.8753 20.4483 26.0278 20.2951 26.214 20.2951H33.2289ZM33.2289 30.16C33.4151 30.16 33.566 30.3117 33.566 30.5004C33.566 30.6875 33.4151 30.8408 33.2289 30.8408H26.214C26.0278 30.8408 25.8753 30.6875 25.8753 30.5004C25.8753 30.3116 26.0278 30.16 26.214 30.16H33.2289ZM33.2289 28.5161C33.4151 28.5161 33.566 28.6678 33.566 28.8565C33.566 29.0436 33.4151 29.1969 33.2289 29.1969H26.214C26.0278 29.1969 25.8753 29.0436 25.8753 28.8565C25.8753 28.6677 26.0278 28.5161 26.214 28.5161H33.2289ZM33.2289 26.8722C33.4151 26.8722 33.566 27.0239 33.566 27.2126C33.566 27.3998 33.4151 27.5514 33.2289 27.5514H26.214C26.0278 27.5514 25.8753 27.3998 25.8753 27.2126C25.8753 27.0239 26.0278 26.8722 26.214 26.8722H33.2289ZM33.2289 25.2284C33.4151 25.2284 33.566 25.38 33.566 25.5671C33.566 25.7559 33.4151 25.9075 33.2289 25.9075H26.214C26.0278 25.9075 25.8753 25.7559 25.8753 25.5671C25.8753 25.38 26.0278 25.2284 26.214 25.2284H33.2289ZM29.8611 23.5829C30.0473 23.5829 30.1998 23.7361 30.1998 23.9233C30.1998 24.112 30.0473 24.2636 29.8611 24.2636H26.1161C25.9299 24.2636 25.7774 24.112 25.7774 23.9233C25.7774 23.7361 25.9299 23.5829 26.1161 23.5829H29.8611ZM29.8611 21.939C30.0473 21.939 30.1998 22.0922 30.1998 22.2794C30.1998 22.4681 30.0473 22.6198 29.8611 22.6198H26.1161C25.9299 22.6198 25.7774 22.4681 25.7774 22.2794C25.7774 22.0922 25.9299 21.939 26.1161 21.939H29.8611Z" fill="#D3AC4A"/>
</svg>
