<svg width="60" height="60" viewBox="0 0 60 60" fill="none" xmlns="http://www.w3.org/2000/svg">
<path d="M60 30C60 46.5685 46.5685 60 30 60C13.4315 60 0 46.5685 0 30C0 13.4315 13.4315 0 30 0C46.5685 0 60 13.4315 60 30Z" fill="#37405E"/>
<path d="M30.0004 25.1161C28.9409 25.1161 28.079 24.2652 28.079 23.2193C28.079 22.1736 28.9409 21.3227 30.0004 21.3227C31.06 21.3227 31.9221 22.1736 31.9221 23.2193C31.9221 24.2652 31.06 25.1161 30.0004 25.1161Z" fill="#D3AC4A"/>
<path d="M26.3234 27.9763V27.9825C26.3546 28.0132 26.3919 28.0439 26.4293 28.0747C26.3919 28.0439 26.3608 28.0132 26.3234 27.9763Z" fill="#D3AC4A"/>
<path d="M29.9938 16C25.3887 16 21.656 19.6846 21.656 24.2302C21.656 28.2838 28.1492 36.6371 29.7258 38.7223C29.8629 38.9007 30.1246 38.8946 30.2617 38.7162C32.0252 36.3418 38.3439 28.2531 38.3439 24.2302C38.3439 19.6846 34.605 16 29.9938 16ZM33.6765 27.964C33.4335 26.9921 32.8104 26.1678 31.9691 25.6635C31.427 26.094 30.7415 26.3462 30 26.3462C29.2585 26.3462 28.573 26.094 28.0308 25.6635C27.1896 26.174 26.5664 26.9982 26.3234 27.9763C26.3608 28.0132 26.3919 28.0439 26.4293 28.0747C26.3919 28.0439 26.3546 28.0132 26.3234 27.9825V27.9763C25.3264 27.0167 24.7095 25.6819 24.7095 24.2364C24.7095 21.3577 27.0837 19.0141 30 19.0141C32.9163 19.0141 35.2905 21.3577 35.2905 24.2364C35.2905 25.7127 34.6549 27.029 33.6765 27.964Z" fill="#D3AC4A"/>
<path d="M43.9834 43.2434L43.7965 42.4868H26.9777V44H43.379C43.5659 44 43.7466 43.9139 43.865 43.7663C43.9834 43.6186 44.0271 43.4279 43.9834 43.2434ZM16.2035 42.4868L16.0166 43.2434C15.9729 43.4279 16.0166 43.6186 16.135 43.7663C16.2534 43.9139 16.4341 44 16.6272 44H21.681V42.4868H16.2035ZM18.8643 33.5369C18.5715 33.5369 18.3222 33.7337 18.2599 34.0106L16.5026 41.2566H19.8676L21.17 33.5369H18.8643ZM37.4341 33.5369H35.5024C34.9602 34.355 34.3869 35.1854 33.795 36.0097H37.8517L37.4341 33.5369ZM22.435 33.5369L22.0175 36.0097H26.1739C25.6006 35.2039 25.0273 34.3735 24.4789 33.5369H22.435ZM38.0573 37.2399H32.9039C32.5113 37.775 32.1187 38.304 31.7261 38.8269L31.265 39.442C30.9534 39.848 30.4798 40.0817 29.9875 40.0817C29.489 40.0817 29.0341 39.8603 28.735 39.4666L28.4795 39.1345C28.0246 38.5316 27.5448 37.8981 27.065 37.2399H21.8118L21.1326 41.2566H22.3041C22.6468 41.2566 22.9272 41.5334 22.9272 41.8717V44H25.7314V41.8717C25.7314 41.5334 26.0056 41.2566 26.3546 41.2566H38.7365L38.0573 37.2399ZM41.7463 34.0106C41.6778 33.7337 41.4285 33.5369 41.1357 33.5369H38.6991L40.0015 41.2566H43.4974L41.7463 34.0106Z" fill="#D3AC4A"/>
<path d="M30.0004 25.1161C28.9409 25.1161 28.079 24.2652 28.079 23.2193C28.079 22.1736 28.9409 21.3227 30.0004 21.3227C31.06 21.3227 31.9221 22.1736 31.9221 23.2193C31.9221 24.2652 31.06 25.1161 30.0004 25.1161Z" fill="#D3AC4A"/>
<path d="M26.4293 28.0747C26.3919 28.0439 26.3546 28.0132 26.3234 27.9825V27.9763C26.3608 28.0132 26.3919 28.0439 26.4293 28.0747Z" fill="#D3AC4A"/>
</svg>
