<svg width="60" height="60" viewBox="0 0 60 60" fill="none" xmlns="http://www.w3.org/2000/svg">
<path d="M60 30C60 46.5685 46.5685 60 30 60C13.4315 60 0 46.5685 0 30C0 13.4315 13.4315 0 30 0C46.5685 0 60 13.4315 60 30Z" fill="#37405E"/>
<path d="M29.7416 36.4837V34.8949L28.3251 34.9016H28.3128C27.6889 34.9037 27.0884 34.6694 26.6375 34.2481C26.8172 35.0499 26.6728 35.8886 26.2344 36.5888V37.5198C26.2344 37.615 26.1957 37.7063 26.1267 37.7737C26.0578 37.841 25.9644 37.8788 25.8669 37.8788C25.7695 37.8788 25.676 37.841 25.6071 37.7737C25.5382 37.7063 25.4995 37.615 25.4995 37.5198V36.4837C25.4994 36.4128 25.5209 36.3435 25.5612 36.2845C25.7987 35.9342 25.9403 35.5303 25.9723 35.1114C26.0044 34.6924 25.9259 34.2724 25.7443 33.8915C25.5853 33.5687 25.5017 33.2155 25.4993 32.8573C25.4993 32.8504 25.4993 32.8434 25.4999 32.8366L25.5284 32.3573C25.5335 32.2693 25.5716 32.1863 25.6354 32.1239L27.8856 29.9263C28.1146 29.702 28.2433 29.398 28.2433 29.0812C28.2433 28.7643 28.1146 28.4604 27.8856 28.2361L27.742 28.0958L22.9045 31.8379C22.8667 31.8674 22.8233 31.8893 22.7768 31.9024C22.7303 31.9154 22.6816 31.9194 22.6336 31.914C22.5855 31.9086 22.539 31.894 22.4967 31.8711C22.4545 31.8481 22.4172 31.8172 22.3872 31.7802C22.3572 31.7431 22.335 31.7006 22.3218 31.6552C22.3086 31.6097 22.3047 31.5621 22.3104 31.5152C22.3161 31.4683 22.3312 31.4229 22.3548 31.3817C22.3785 31.3405 22.4102 31.3042 22.4483 31.275L25.8645 28.6319L25.8462 24.7892L20.571 28.8931C20.2571 29.2115 20.0822 29.6366 20.0833 30.0787V39.7002H27.6206V38.5561C27.6206 38.4609 27.6593 38.3696 27.7282 38.3023C27.7971 38.2349 27.8906 38.1971 27.988 38.1971C28.453 38.1966 28.8988 38.0159 29.2275 37.6947C29.5563 37.3734 29.7412 36.9379 29.7416 36.4837Z" fill="#D3AC4A"/>
<path d="M31.7917 22.5771H31.7995C31.9952 22.5696 32.1803 22.4886 32.3164 22.3511C32.4525 22.2135 32.5291 22.03 32.5303 21.8388C32.5314 21.6475 32.457 21.4631 32.3226 21.324C32.1881 21.1849 32.0039 21.1019 31.8084 21.0921C31.7125 21.0912 31.6175 21.1093 31.5289 21.1451C31.4403 21.1809 31.3601 21.2338 31.2929 21.3007C31.1518 21.4413 31.0717 21.6298 31.0695 21.8267C31.0673 22.0237 31.143 22.2138 31.2809 22.3575C31.3465 22.4258 31.4256 22.4805 31.5134 22.5182C31.6011 22.556 31.6958 22.576 31.7917 22.5771Z" fill="#D3AC4A"/>
<path d="M37.6414 20.3703H37.6497L39.9304 20.3596L35.9362 16.503L35.9472 18.7228C35.9494 19.1604 36.1288 19.5794 36.4463 19.8881C36.7638 20.1968 37.1935 20.3703 37.6414 20.3703Z" fill="#D3AC4A"/>
<path d="M30.2304 23.5247L31.7627 25.1547L33.3312 23.558C33.5559 23.3352 33.7319 23.0702 33.8484 22.7789C33.9571 22.5028 34.0051 22.2076 33.9893 21.9122C33.9313 20.8967 33.105 19.8381 31.8225 19.824H31.7974C30.529 19.824 29.6897 20.8576 29.6094 21.8649C29.587 22.1599 29.6284 22.4562 29.7309 22.7346C29.8408 23.0283 30.0108 23.2971 30.2304 23.5247ZM30.772 20.7942C30.908 20.6588 31.0707 20.5517 31.2502 20.4796C31.4298 20.4074 31.6224 20.3715 31.8165 20.3742C32.2063 20.3862 32.5759 20.5464 32.8464 20.8207C33.117 21.0951 33.2672 21.4618 33.265 21.8427C33.2628 22.2237 33.1084 22.5887 32.8346 22.8601C32.5609 23.1314 32.1895 23.2875 31.7996 23.2952H31.7835C31.5895 23.2933 31.3978 23.2532 31.22 23.1772C31.0422 23.1012 30.882 22.9908 30.7489 22.8528C30.4788 22.5737 30.3303 22.203 30.3346 21.819C30.3389 21.4349 30.4958 21.0674 30.772 20.7942Z" fill="#D3AC4A"/>
<path d="M20.2726 42.7049C20.5089 42.7049 20.7005 42.5061 20.7005 42.2609C20.7005 42.0157 20.5089 41.8169 20.2726 41.8169C20.0363 41.8169 19.8447 42.0157 19.8447 42.2609C19.8447 42.5061 20.0363 42.7049 20.2726 42.7049Z" fill="#D3AC4A"/>
<path d="M18.5783 40.4182C18.5133 40.4182 18.451 40.4434 18.4051 40.4883C18.3591 40.5332 18.3333 40.5941 18.3333 40.6576V43.7607C18.3333 43.8241 18.3591 43.885 18.4051 43.9299C18.451 43.9748 18.5133 44 18.5783 44H28.7543C28.8193 44 28.8816 43.9748 28.9276 43.9299C28.9735 43.885 28.9993 43.8241 28.9993 43.7607V40.6576C28.9993 40.5941 28.9735 40.5332 28.9276 40.4883C28.8816 40.4434 28.8193 40.4182 28.7543 40.4182H18.5783ZM20.2726 43.4229C20.0362 43.4281 19.8036 43.3644 19.6045 43.2399C19.4053 43.1153 19.2487 42.9357 19.1545 42.7238C19.0604 42.5119 19.033 42.2774 19.0758 42.0503C19.1187 41.8231 19.2299 41.6136 19.3951 41.4484C19.5604 41.2833 19.7724 41.17 20.0038 41.123C20.2353 41.076 20.4759 41.0975 20.6949 41.1847C20.9138 41.2719 21.1012 41.4208 21.2331 41.6125C21.365 41.8042 21.4355 42.0299 21.4355 42.2609C21.4386 42.5655 21.3179 42.8589 21.0999 43.0768C20.8819 43.2946 20.5844 43.4191 20.2726 43.4229Z" fill="#D3AC4A"/>
<path d="M35.2123 18.7263L35.1989 16L28.2322 16.0327C28.0097 16.0337 27.7896 16.0775 27.5844 16.1617C27.3792 16.2459 27.193 16.3687 27.0364 16.5231C26.8798 16.6776 26.7559 16.8607 26.6718 17.0619C26.5876 17.2632 26.5448 17.4786 26.5459 17.696L26.597 28.0655L27.542 27.3344C27.6126 27.2798 27.7014 27.2524 27.7913 27.2575C27.8813 27.2626 27.9662 27.2998 28.0299 27.362L28.4049 27.7283C28.7716 28.0874 28.9775 28.5739 28.9775 29.0811C28.9775 29.5884 28.7716 30.0749 28.4049 30.434L26.6189 32.1788V32.5378C26.6214 32.9766 26.8022 33.3963 27.1215 33.7049C27.4407 34.0134 27.8724 34.1855 28.3215 34.1832L38.8137 34.134C39.0362 34.1329 39.2563 34.0891 39.4615 34.0049C39.6667 33.9208 39.8529 33.798 40.0095 33.6435C40.166 33.4891 40.29 33.306 40.3741 33.1047C40.4583 32.9035 40.501 32.688 40.5 32.4706L40.4439 21.0748L37.6533 21.0879H37.6411C36.9989 21.0877 36.383 20.8392 35.9279 20.3967C35.4728 19.9542 35.2155 19.3536 35.2123 18.7263ZM28.8769 21.8093C28.999 20.2772 30.2947 19.0895 31.8308 19.1063C33.365 19.1229 34.6358 20.3378 34.7232 21.8722C34.7447 22.2675 34.681 22.6628 34.536 23.0324C34.3845 23.4145 34.155 23.7625 33.8615 24.0552L32.0219 25.928C31.9876 25.9629 31.9464 25.9907 31.9009 26.0096C31.8553 26.0286 31.8063 26.0384 31.7568 26.0384H31.7527C31.7025 26.0379 31.653 26.0273 31.6071 26.0073C31.5613 25.9873 31.5201 25.9584 31.4861 25.9223L29.6891 24.0106C29.4022 23.7117 29.1806 23.3588 29.0378 22.9735C28.9012 22.6008 28.8464 22.2041 28.8769 21.8093ZM29.8483 28.6362H35.5864C35.6838 28.6362 35.7773 28.6741 35.8462 28.7414C35.9151 28.8087 35.9538 28.9 35.9538 28.9952C35.9538 29.0904 35.9151 29.1818 35.8462 29.2491C35.7773 29.3164 35.6838 29.3542 35.5864 29.3542H29.8483C29.7508 29.3542 29.6574 29.3164 29.5884 29.2491C29.5195 29.1818 29.4808 29.0904 29.4808 28.9952C29.4808 28.9 29.5195 28.8087 29.5884 28.7414C29.6574 28.6741 29.7508 28.6362 29.8483 28.6362ZM29.4808 27.1299C29.4808 27.0347 29.5195 26.9434 29.5884 26.8761C29.6574 26.8088 29.7508 26.7709 29.8483 26.7709H31.4968C31.5943 26.7709 31.6877 26.8088 31.7566 26.8761C31.8255 26.9434 31.8643 27.0347 31.8643 27.1299C31.8643 27.2251 31.8255 27.3165 31.7566 27.3838C31.6877 27.4511 31.5943 27.4889 31.4968 27.4889H29.8483C29.8 27.4889 29.7522 27.4796 29.7076 27.4616C29.663 27.4435 29.6225 27.4171 29.5884 27.3837C29.5543 27.3504 29.5272 27.3108 29.5087 27.2672C29.4903 27.2236 29.4808 27.1771 29.4808 27.1299ZM33.1366 31.1488H29.8483C29.7508 31.1488 29.6574 31.111 29.5884 31.0436C29.5195 30.9763 29.4808 30.885 29.4808 30.7898C29.4808 30.6946 29.5195 30.6033 29.5884 30.5359C29.6574 30.4686 29.7508 30.4308 29.8483 30.4308H33.1366C33.2341 30.4308 33.3275 30.4686 33.3964 30.5359C33.4653 30.6033 33.5041 30.6946 33.5041 30.7898C33.5041 30.885 33.4653 30.9763 33.3964 31.0436C33.3275 31.111 33.2341 31.1488 33.1366 31.1488ZM37.81 31.1488H34.4425C34.345 31.1488 34.2516 31.111 34.1827 31.0436C34.1138 30.9763 34.075 30.885 34.075 30.7898C34.075 30.6946 34.1138 30.6033 34.1827 30.5359C34.2516 30.4686 34.345 30.4308 34.4425 30.4308H37.81C37.9075 30.4308 38.0009 30.4686 38.0699 30.5359C38.1388 30.6033 38.1775 30.6946 38.1775 30.7898C38.1775 30.885 38.1388 30.9763 38.0699 31.0436C38.0009 31.111 37.9075 31.1488 37.81 31.1488ZM37.81 29.3538H36.8923C36.7948 29.3538 36.7014 29.316 36.6324 29.2487C36.5635 29.1813 36.5248 29.09 36.5248 28.9948C36.5248 28.8996 36.5635 28.8083 36.6324 28.741C36.7014 28.6736 36.7948 28.6358 36.8923 28.6358H37.81C37.9075 28.6358 38.0009 28.6736 38.0699 28.741C38.1388 28.8083 38.1775 28.8996 38.1775 28.9948C38.1775 29.09 38.1388 29.1813 38.0699 29.2487C38.0009 29.316 37.9075 29.3538 37.81 29.3538ZM37.81 26.7705C37.9075 26.7705 38.0009 26.8083 38.0699 26.8757C38.1388 26.943 38.1775 27.0343 38.1775 27.1295C38.1775 27.2247 38.1388 27.316 38.0699 27.3834C38.0009 27.4507 37.9075 27.4885 37.81 27.4885H32.7784C32.681 27.4885 32.5875 27.4507 32.5186 27.3834C32.4497 27.316 32.411 27.2247 32.411 27.1295C32.411 27.0343 32.4497 26.943 32.5186 26.8757C32.5875 26.8083 32.681 26.7705 32.7784 26.7705H37.81Z" fill="#D3AC4A"/>
</svg>
