<svg width="60" height="60" viewBox="0 0 60 60" fill="none" xmlns="http://www.w3.org/2000/svg">
<path d="M60 30C60 46.5685 46.5685 60 30 60C13.4315 60 0 46.5685 0 30C0 13.4315 13.4315 0 30 0C46.5685 0 60 13.4315 60 30Z" fill="#37405E"/>
<path fill-rule="evenodd" clip-rule="evenodd" d="M38.1898 41.0354H40.6695C40.6725 38.2768 40.6759 35.5182 40.6791 32.7596L38.1898 36.7267V41.0354ZM40.6806 31.3909L41.5095 30.07L39.231 28.8597L38.4022 30.1806L40.6806 31.3909ZM33.228 38.4264L38.0309 30.7722L40.3094 31.9826L35.5064 39.6367L33.228 38.4264ZM41.8807 29.4784L39.6022 28.2681L41.5463 25.17C41.908 24.5935 42.7167 24.3941 43.3433 24.727C43.9699 25.0599 44.1865 25.8038 43.8248 26.3804L41.8807 29.4784ZM33.193 39.1966L33.1097 41.0354L34.7988 40.0496L33.193 39.1966ZM37.4473 23.0234L33.0266 18.956V23.0234H37.4473ZM16 44H37.4473V37.9099L36.0582 40.1237L32.3088 42.3118L32.4938 38.2302L37.4474 30.336V23.7066H32.2842V18.9561H16V44ZM29.7535 27.6648C31.3335 27.6648 32.6143 28.8433 32.6143 30.2969C32.6143 31.7506 31.3334 32.9291 29.7535 32.9291C28.1735 32.9291 26.8927 31.7506 26.8927 30.2969C26.8927 28.8433 28.1735 27.6648 29.7535 27.6648ZM30.5737 29.2577C30.6946 29.1059 30.9264 29.073 31.0914 29.1843C31.2563 29.2955 31.292 29.5088 31.1711 29.6606L29.9417 31.1991C29.6453 31.5708 29.0627 31.5644 28.7757 31.2048L28.3358 30.6543C28.2149 30.5026 28.2506 30.2893 28.4156 30.178C28.5805 30.0668 28.8123 30.0996 28.9333 30.2514L29.3564 30.7809L30.5737 29.2577ZM20.7651 34.8029C20.5609 34.8029 20.3953 34.6506 20.3953 34.4626C20.3953 34.2747 20.5609 34.1224 20.7651 34.1224H32.6821C32.8864 34.1224 33.0519 34.2747 33.0519 34.4626C33.0519 34.6506 32.8864 34.8029 32.6821 34.8029H20.7651ZM20.7651 41.3926C20.5609 41.3926 20.3953 41.2403 20.3953 41.0524C20.3953 40.8645 20.5609 40.7121 20.7651 40.7121H31.0869C31.2911 40.7121 31.4567 40.8645 31.4567 41.0524C31.4567 41.2403 31.2911 41.3926 31.0869 41.3926H20.7651ZM20.7651 39.196C20.5609 39.196 20.3953 39.0437 20.3953 38.8558C20.3953 38.668 20.5609 38.5156 20.7651 38.5156H31.0869C31.2911 38.5156 31.4567 38.6679 31.4567 38.8558C31.4567 39.0437 31.2911 39.1961 31.0869 39.1961L20.7651 39.196ZM20.7651 36.9994C20.5609 36.9994 20.3953 36.8471 20.3953 36.6591C20.3953 36.4712 20.5609 36.3189 20.7651 36.3189H32.6821C32.8864 36.3189 33.0519 36.4712 33.0519 36.6591C33.0519 36.8471 32.8864 36.9993 32.6821 36.9993L20.7651 36.9994ZM28.1208 27.3407C26.3801 28.1562 25.6559 30.1061 26.5034 31.73H20.8331V29.7116C20.8841 28.4267 21.9865 27.5826 23.4189 27.1793C24.6276 28.1394 26.4196 28.1394 27.6284 27.1793C27.7976 27.2269 27.962 27.2808 28.1208 27.3407ZM25.5236 22.6524C26.8933 22.6524 28.0036 23.6741 28.0036 24.9342C28.0036 26.1944 26.8932 27.2161 25.5236 27.2161C24.154 27.2161 23.0436 26.1944 23.0436 24.9342C23.0436 23.674 24.154 22.6524 25.5236 22.6524ZM40.687 25.1733L38.1898 29.1528V22.7405L33.3342 18.273H19.2433L19.2454 16H40.6913C40.6913 19.0577 40.6896 22.1154 40.687 25.1733Z" fill="#D3AC4A"/>
</svg>
