<svg width="60" height="60" viewBox="0 0 60 60" fill="none" xmlns="http://www.w3.org/2000/svg">
<path d="M60 30C60 46.5685 46.5685 60 30 60C13.4315 60 0 46.5685 0 30C0 13.4315 13.4315 0 30 0C46.5685 0 60 13.4315 60 30Z" fill="#37405E"/>
<path d="M30.5403 16.2413C30.6239 16.1748 30.6969 16.0969 30.7582 16.0107H34.5406C34.5582 16.0107 34.5757 16.0102 34.5933 16.0094C34.8441 15.9968 35.095 15.9969 35.345 16.0094C35.3624 16.0102 35.38 16.0107 35.3975 16.0107H35.454C36.303 16.0107 37.1055 16.2064 37.8257 16.5561C37.8447 16.5653 37.8641 16.574 37.8835 16.5822C39.2385 17.1443 40.448 18.1019 41.3385 19.4113C42.6809 21.3848 43.0995 23.8592 42.5269 26.1612L37.6813 21.1352C37.4741 20.9203 37.1947 20.7998 36.9036 20.7998H29.8973C29.8823 20.7998 29.8672 20.8001 29.8522 20.8007C29.6267 20.8104 29.4091 20.8923 29.2286 21.036L26.4458 23.2525C26.3674 23.315 26.2848 23.3677 26.1992 23.4107C25.6003 23.7121 24.8596 23.5423 24.4409 22.9672C24.3814 22.8855 24.3312 22.7995 24.2902 22.7105C24.0028 22.0878 24.1628 21.3211 24.7089 20.8861L30.5403 16.2413ZM23.2517 33.4314L23.2322 33.4516L21.7938 34.9541L21.775 34.974C21.2537 35.497 20.4252 35.4903 19.9117 34.954C19.3918 34.4109 19.3918 33.5304 19.9117 32.9873L21.3501 31.4849C21.87 30.9417 22.713 30.9417 23.2329 31.4849C23.7464 32.0212 23.7526 32.887 23.2517 33.4314ZM22.8224 36.0684C22.3215 36.613 22.3278 37.4786 22.8413 38.0149C23.3612 38.5581 24.2042 38.5581 24.7241 38.0149L26.1624 36.5125C26.6823 35.9694 26.6823 35.0889 26.1624 34.5458C26.0982 34.4788 26.0291 34.4199 25.9563 34.3695C25.4466 34.016 24.7553 34.0682 24.2992 34.5258L24.2803 34.5457L22.8419 36.0482L22.8224 36.0684ZM19.7111 29.0416C20.231 29.5848 20.231 30.4653 19.7111 31.0083L18.2727 32.5108C17.7528 33.0539 16.9098 33.0539 16.3899 32.5108C15.87 31.9677 15.87 31.0871 16.3899 30.5441L17.8282 29.0416C18.3481 28.4986 19.1911 28.4986 19.7111 29.0416ZM29.0928 37.6067C29.6127 38.1498 29.6127 39.0303 29.0928 39.5734L27.6544 41.0759C27.5477 41.1872 27.4275 41.2759 27.2992 41.3415C26.8023 41.5961 26.1849 41.5075 25.7716 41.0759C25.3583 40.6442 25.2737 39.9993 25.5173 39.4802L25.5192 39.4762C25.5819 39.3438 25.666 39.2194 25.7716 39.1092L27.21 37.6067C27.7299 37.0636 28.5729 37.0636 29.0928 37.6067ZM19.4796 18.8319C21.5404 16.6792 24.3435 15.7743 27.0282 16.1173L23.3713 19.0301C21.7688 20.3066 21.46 22.7043 22.6821 24.3827C23.9016 26.0574 26.1843 26.3823 27.7834 25.1086L30.2695 23.1283H36.4492L41.6267 28.4986C41.6432 28.52 41.661 28.5408 41.6799 28.5607L43.3778 30.3459C44.2074 31.218 44.2074 32.6319 43.3778 33.504C42.5955 34.3265 41.3549 34.3734 40.5205 33.6447L40.3783 33.4952C40.3502 33.4657 40.3206 33.4392 40.2896 33.4154L38.6758 31.719C38.3874 31.4158 37.92 31.4158 37.6316 31.719C37.3432 32.022 37.3432 32.5135 37.6316 32.8167L39.3297 34.6017C39.3911 34.6663 39.4543 34.7281 39.5188 34.7871L39.5836 34.8551C40.1712 35.4729 40.1712 36.4745 39.5836 37.0924C38.9959 37.7102 38.043 37.7102 37.4554 37.0924L37.2061 36.8302C36.9177 36.527 36.4502 36.527 36.162 36.8302C36.014 36.9856 35.9421 37.1905 35.9458 37.3941C35.9415 37.5986 36.0135 37.8044 36.1619 37.9604L36.4911 38.3066C37.0346 38.8781 37.0346 39.8045 36.4911 40.3759C35.9476 40.9474 35.0664 40.9474 34.5228 40.3759L34.5212 40.3742L34.5039 40.3558L34.1937 40.0298C34.0868 39.9172 33.9551 39.8464 33.817 39.8176C33.583 39.7683 33.3307 39.839 33.1494 40.0298C32.8612 40.3328 32.8612 40.8243 33.1494 41.1274L33.4719 41.4665C34.0138 42.05 34.0099 42.9849 33.4598 43.5631C32.9156 44.1352 32.0369 44.147 31.479 43.5895L29.3651 41.4774L30.1401 40.6676C31.2386 39.5201 31.2386 37.6599 30.1401 36.5125C29.5604 35.9068 28.7905 35.6209 28.0311 35.6547C28.0635 34.8614 27.7897 34.0573 27.2098 33.4516C26.6303 32.8461 25.8607 32.5602 25.1016 32.5937C25.1338 31.8006 24.86 30.9963 24.2803 30.3908C23.5425 29.62 22.497 29.367 21.5571 29.6315C21.4779 29.0157 21.2116 28.4208 20.7584 27.9475C19.7448 26.8886 18.1501 26.8069 17.0468 27.7022C16.3649 24.6137 17.1759 21.2383 19.4796 18.8319Z" fill="#D3AC4A"/>
</svg>
