<svg width="60" height="60" viewBox="0 0 60 60" fill="none" xmlns="http://www.w3.org/2000/svg">
<path d="M60 30C60 46.5685 46.5685 60 30 60C13.4315 60 0 46.5685 0 30C0 13.4315 13.4315 0 30 0C46.5685 0 60 13.4315 60 30Z" fill="#37405E"/>
<path d="M39.1875 30.875H37V29.5625C36.9998 29.3305 36.9075 29.1081 36.7435 28.9441C36.5794 28.78 36.357 28.6877 36.125 28.6875H34.375C34.143 28.6877 33.9206 28.78 33.7565 28.9441C33.5925 29.1081 33.5002 29.3305 33.5 29.5625V30.875H31.3125C31.1965 30.875 31.0852 30.9211 31.0032 31.0031C30.9211 31.0852 30.875 31.1965 30.875 31.3125V43.5625C30.875 43.6785 30.9211 43.7898 31.0032 43.8719C31.0852 43.9539 31.1965 44 31.3125 44H39.1875C39.3035 44 39.4148 43.9539 39.4968 43.8719C39.5789 43.7898 39.625 43.6785 39.625 43.5625V31.3125C39.625 31.1965 39.5789 31.0852 39.4968 31.0031C39.4148 30.9211 39.3035 30.875 39.1875 30.875ZM34.375 29.5625H36.125V30.875H34.375V29.5625ZM37 42.25H33.5C33.384 42.25 33.2727 42.2039 33.1906 42.1219C33.1086 42.0398 33.0625 41.9285 33.0625 41.8125C33.0625 41.6965 33.1086 41.5852 33.1906 41.5031C33.2727 41.4211 33.384 41.375 33.5 41.375H37C37.116 41.375 37.2273 41.4211 37.3094 41.5031C37.3914 41.5852 37.4375 41.6965 37.4375 41.8125C37.4375 41.9285 37.3914 42.0398 37.3094 42.1219C37.2273 42.2039 37.116 42.25 37 42.25ZM37 40.5H33.5C33.384 40.5 33.2727 40.4539 33.1906 40.3719C33.1086 40.2898 33.0625 40.1785 33.0625 40.0625C33.0625 39.9465 33.1086 39.8352 33.1906 39.7531C33.2727 39.6711 33.384 39.625 33.5 39.625H37C37.116 39.625 37.2273 39.6711 37.3094 39.7531C37.3914 39.8352 37.4375 39.9465 37.4375 40.0625C37.4375 40.1785 37.3914 40.2898 37.3094 40.3719C37.2273 40.4539 37.116 40.5 37 40.5ZM37 38.75H33.5C33.384 38.75 33.2727 38.7039 33.1906 38.6219C33.1086 38.5398 33.0625 38.4285 33.0625 38.3125C33.0625 38.1965 33.1086 38.0852 33.1906 38.0031C33.2727 37.9211 33.384 37.875 33.5 37.875H37C37.116 37.875 37.2273 37.9211 37.3094 38.0031C37.3914 38.0852 37.4375 38.1965 37.4375 38.3125C37.4375 38.4285 37.3914 38.5398 37.3094 38.6219C37.2273 38.7039 37.116 38.75 37 38.75ZM37 37H33.5C33.384 37 33.2727 36.9539 33.1906 36.8719C33.1086 36.7898 33.0625 36.6785 33.0625 36.5625C33.0625 36.4465 33.1086 36.3352 33.1906 36.2531C33.2727 36.1711 33.384 36.125 33.5 36.125H37C37.116 36.125 37.2273 36.1711 37.3094 36.2531C37.3914 36.3352 37.4375 36.4465 37.4375 36.5625C37.4375 36.6785 37.3914 36.7898 37.3094 36.8719C37.2273 36.9539 37.116 37 37 37ZM37 35.25H33.5C33.384 35.25 33.2727 35.2039 33.1906 35.1219C33.1086 35.0398 33.0625 34.9285 33.0625 34.8125C33.0625 34.6965 33.1086 34.5852 33.1906 34.5031C33.2727 34.4211 33.384 34.375 33.5 34.375H37C37.116 34.375 37.2273 34.4211 37.3094 34.5031C37.3914 34.5852 37.4375 34.6965 37.4375 34.8125C37.4375 34.9285 37.3914 35.0398 37.3094 35.1219C37.2273 35.2039 37.116 35.25 37 35.25ZM37 33.5H33.5C33.384 33.5 33.2727 33.4539 33.1906 33.3719C33.1086 33.2898 33.0625 33.1785 33.0625 33.0625C33.0625 32.9465 33.1086 32.8352 33.1906 32.7531C33.2727 32.6711 33.384 32.625 33.5 32.625H37C37.116 32.625 37.2273 32.6711 37.3094 32.7531C37.3914 32.8352 37.4375 32.9465 37.4375 33.0625C37.4375 33.1785 37.3914 33.2898 37.3094 33.3719C37.2273 33.4539 37.116 33.5 37 33.5Z" fill="#D3AC4A"/>
<path d="M43.125 20.375H38.75C38.518 20.3752 38.2956 20.4675 38.1315 20.6316C37.9675 20.7956 37.8752 21.018 37.875 21.25V30H39.1875C39.4587 30.0002 39.7233 30.0844 39.9446 30.2411C40.166 30.3978 40.3334 30.6193 40.4237 30.875H41.8125C41.9285 30.875 42.0398 30.9211 42.1219 31.0031C42.2039 31.0852 42.25 31.1965 42.25 31.3125C42.25 31.4285 42.2039 31.5398 42.1219 31.6219C42.0398 31.7039 41.9285 31.75 41.8125 31.75H40.5V32.625H41.8125C41.9285 32.625 42.0398 32.6711 42.1219 32.7531C42.2039 32.8352 42.25 32.9465 42.25 33.0625C42.25 33.1785 42.2039 33.2898 42.1219 33.3719C42.0398 33.4539 41.9285 33.5 41.8125 33.5H40.5V34.375H41.8125C41.9285 34.375 42.0398 34.4211 42.1219 34.5031C42.2039 34.5852 42.25 34.6965 42.25 34.8125C42.25 34.9285 42.2039 35.0398 42.1219 35.1219C42.0398 35.2039 41.9285 35.25 41.8125 35.25H40.5V36.125H41.8125C41.9285 36.125 42.0398 36.1711 42.1219 36.2531C42.2039 36.3352 42.25 36.4465 42.25 36.5625C42.25 36.6785 42.2039 36.7898 42.1219 36.8719C42.0398 36.9539 41.9285 37 41.8125 37H40.5V37.875H41.8125C41.9285 37.875 42.0398 37.9211 42.1219 38.0031C42.2039 38.0852 42.25 38.1965 42.25 38.3125C42.25 38.4285 42.2039 38.5398 42.1219 38.6219C42.0398 38.7039 41.9285 38.75 41.8125 38.75H40.5V39.625H41.8125C41.9285 39.625 42.0398 39.6711 42.1219 39.7531C42.2039 39.8352 42.25 39.9465 42.25 40.0625C42.25 40.1785 42.2039 40.2898 42.1219 40.3719C42.0398 40.4539 41.9285 40.5 41.8125 40.5H40.5V41.375H41.8125C41.9285 41.375 42.0398 41.4211 42.1219 41.5031C42.2039 41.5852 42.25 41.6965 42.25 41.8125C42.25 41.9285 42.2039 42.0398 42.1219 42.1219C42.0398 42.2039 41.9285 42.25 41.8125 42.25H40.5V43.5625C40.4995 43.6344 40.4932 43.7061 40.481 43.7769C40.48 43.7824 40.4794 43.788 40.4785 43.7935C40.4659 43.8637 40.4476 43.9328 40.4237 44H43.5625C43.6785 44 43.7898 43.9539 43.8718 43.8719C43.9539 43.7898 44 43.6785 44 43.5625V21.25C43.9998 21.018 43.9075 20.7956 43.7435 20.6316C43.5794 20.4675 43.357 20.3752 43.125 20.375ZM41.8125 30H40.0625C39.9465 30 39.8352 29.9539 39.7531 29.8719C39.6711 29.7898 39.625 29.6785 39.625 29.5625C39.625 29.4465 39.6711 29.3352 39.7531 29.2531C39.8352 29.1711 39.9465 29.125 40.0625 29.125H41.8125C41.9285 29.125 42.0398 29.1711 42.1219 29.2531C42.2039 29.3352 42.25 29.4465 42.25 29.5625C42.25 29.6785 42.2039 29.7898 42.1219 29.8719C42.0398 29.9539 41.9285 30 41.8125 30ZM41.8125 28.25H40.0625C39.9465 28.25 39.8352 28.2039 39.7531 28.1219C39.6711 28.0398 39.625 27.9285 39.625 27.8125C39.625 27.6965 39.6711 27.5852 39.7531 27.5031C39.8352 27.4211 39.9465 27.375 40.0625 27.375H41.8125C41.9285 27.375 42.0398 27.4211 42.1219 27.5031C42.2039 27.5852 42.25 27.6965 42.25 27.8125C42.25 27.9285 42.2039 28.0398 42.1219 28.1219C42.0398 28.2039 41.9285 28.25 41.8125 28.25ZM41.8125 26.5H40.0625C39.9465 26.5 39.8352 26.4539 39.7531 26.3719C39.6711 26.2898 39.625 26.1785 39.625 26.0625C39.625 25.9465 39.6711 25.8352 39.7531 25.7531C39.8352 25.6711 39.9465 25.625 40.0625 25.625H41.8125C41.9285 25.625 42.0398 25.6711 42.1219 25.7531C42.2039 25.8352 42.25 25.9465 42.25 26.0625C42.25 26.1785 42.2039 26.2898 42.1219 26.3719C42.0398 26.4539 41.9285 26.5 41.8125 26.5ZM41.8125 24.75H40.0625C39.9465 24.75 39.8352 24.7039 39.7531 24.6219C39.6711 24.5398 39.625 24.4285 39.625 24.3125C39.625 24.1965 39.6711 24.0852 39.7531 24.0031C39.8352 23.9211 39.9465 23.875 40.0625 23.875H41.8125C41.9285 23.875 42.0398 23.9211 42.1219 24.0031C42.2039 24.0852 42.25 24.1965 42.25 24.3125C42.25 24.4285 42.2039 24.5398 42.1219 24.6219C42.0398 24.7039 41.9285 24.75 41.8125 24.75ZM41.8125 23H40.0625C39.9465 23 39.8352 22.9539 39.7531 22.8719C39.6711 22.7898 39.625 22.6785 39.625 22.5625C39.625 22.4465 39.6711 22.3352 39.7531 22.2531C39.8352 22.1711 39.9465 22.125 40.0625 22.125H41.8125C41.9285 22.125 42.0398 22.1711 42.1219 22.2531C42.2039 22.3352 42.25 22.4465 42.25 22.5625C42.25 22.6785 42.2039 22.7898 42.1219 22.8719C42.0398 22.9539 41.9285 23 41.8125 23Z" fill="#D3AC4A"/>
<path d="M33.5 26.0618C33.506 25.6708 33.3796 25.2892 33.1413 24.979C32.903 24.6688 32.5669 24.4482 32.1875 24.3531V22.6264L33.4349 20.6047C33.4757 20.5384 33.4982 20.4625 33.4999 20.3846C33.5016 20.3067 33.4825 20.2299 33.4445 20.1618C33.4066 20.0938 33.3511 20.0372 33.284 19.9978C33.2168 19.9583 33.1404 19.9375 33.0625 19.9375H32.1875V18.5484C32.3762 18.482 32.5472 18.3734 32.6874 18.2307C32.8276 18.0881 32.9334 17.9153 32.9965 17.7255C33.0597 17.5357 33.0786 17.334 33.0518 17.1358C33.025 16.9376 32.9533 16.7481 32.842 16.5819C32.7308 16.4157 32.583 16.2771 32.4099 16.1768C32.2369 16.0765 32.0432 16.0171 31.8436 16.0032C31.6441 15.9893 31.444 16.0211 31.2587 16.0964C31.0734 16.1717 30.9078 16.2884 30.7745 16.4375H28.294C28.1948 16.4375 28.0986 16.4712 28.0211 16.533C27.9436 16.5949 27.8894 16.6812 27.8674 16.7779L27.3105 19.2255C27.304 19.2335 27.2962 19.2404 27.2902 19.2489L16.0793 35.2482C16.0277 35.3217 16 35.4094 16 35.4993V38.7426C15.999 38.9757 16.0907 39.1995 16.2548 39.365C16.4189 39.5305 16.642 39.624 16.875 39.625H19.9375V40.5H17.75C17.2859 40.5 16.8408 40.6844 16.5126 41.0126C16.1844 41.3407 16 41.7859 16 42.25C16 42.7141 16.1844 43.1592 16.5126 43.4874C16.8408 43.8156 17.2859 44 17.75 44H28.6875C29.1516 44 29.5967 43.8156 29.9249 43.4874C30.2531 43.1592 30.4375 42.7141 30.4375 42.25C30.4375 41.7859 30.2531 41.3407 29.9249 41.0126C29.5967 40.6844 29.1516 40.5 28.6875 40.5H25.1875V39.625H29.125C29.358 39.624 29.5811 39.5305 29.7452 39.365C29.9093 39.1995 30.001 38.9757 30 38.7426V37.1576C29.9865 36.895 29.909 36.6397 29.7742 36.414C29.6394 36.1882 29.4514 35.9988 29.2267 35.8623L24.2108 32.7171C24.1109 32.66 23.9985 32.6284 23.8835 32.625C23.6201 32.625 23.4375 32.8328 23.4375 33.1866V35.2425H21.4574L28.864 20.9393C28.8829 20.9255 28.9006 20.9102 28.9171 20.8936L31.177 18.4915C31.2211 18.513 31.2663 18.532 31.3125 18.5484V19.9375H30.4375C30.3605 19.9375 30.285 19.9578 30.2184 19.9963C30.1518 20.0349 30.0965 20.0903 30.0582 20.157C30.0198 20.2238 29.9998 20.2994 30 20.3764C30.0002 20.4533 30.0208 20.5289 30.0595 20.5953L31.3125 22.7444V24.75C31.3125 24.866 31.3586 24.9773 31.4407 25.0593C31.5227 25.1414 31.634 25.1875 31.75 25.1875C31.7643 25.1875 31.7778 25.1846 31.7917 25.1833C31.8056 25.1846 31.819 25.1875 31.8333 25.1875C32.0503 25.2092 32.2515 25.3108 32.3978 25.4725C32.5441 25.6341 32.6251 25.8444 32.6251 26.0625C32.6251 26.2805 32.5441 26.4908 32.3978 26.6525C32.2515 26.8142 32.0503 26.9158 31.8333 26.9375C31.7142 26.9359 31.5971 26.9065 31.4913 26.8515C31.3856 26.7965 31.2942 26.7175 31.2245 26.6209C31.1547 26.5282 31.0509 26.4671 30.936 26.4509C30.8211 26.4347 30.7044 26.4649 30.6117 26.5347C30.519 26.6045 30.4579 26.7083 30.4417 26.8232C30.4255 26.9382 30.4557 27.0548 30.5255 27.1475C30.6764 27.3528 30.8733 27.5199 31.1004 27.6354C31.3275 27.7508 31.5785 27.8115 31.8333 27.8125C32.2862 27.8006 32.7159 27.6096 33.0283 27.2815C33.3407 26.9534 33.5103 26.5148 33.5 26.0618ZM24.3125 39.625V40.5H20.8125V39.625H24.3125ZM20.4721 35.2425H17.1516L19.6661 31.654C19.6846 31.6693 19.7043 31.683 19.725 31.695L21.6938 32.7887C21.707 32.7948 21.7206 32.8002 21.7344 32.8049L20.4721 35.2425ZM22.1335 32.0341C22.1283 32.0309 22.1241 32.0267 22.1187 32.0237L20.1669 30.9394L21.5867 28.9132L23.2664 29.8464L22.1335 32.0341ZM23.6689 29.069L22.0916 28.1927L23.2902 26.4821L24.6161 27.2398L23.6689 29.069ZM25.0188 26.4622L23.7944 25.7626L24.8247 24.2921L25.8715 24.8155L25.0188 26.4622ZM26.2739 24.0384L25.3324 23.5676L27.7396 20.1323L28.1338 20.4467L26.2739 24.0384ZM31.75 17.75C31.6635 17.75 31.5789 17.7243 31.507 17.6763C31.435 17.6282 31.3789 17.5599 31.3458 17.4799C31.3127 17.4 31.304 17.312 31.3209 17.2271C31.3378 17.1423 31.3795 17.0643 31.4407 17.0031C31.5019 16.9419 31.5798 16.9003 31.6647 16.8834C31.7495 16.8665 31.8375 16.8752 31.9174 16.9083C31.9974 16.9414 32.0657 16.9975 32.1138 17.0694C32.1618 17.1414 32.1875 17.226 32.1875 17.3125C32.1874 17.4285 32.1412 17.5397 32.0592 17.6217C31.9772 17.7037 31.866 17.7499 31.75 17.75Z" fill="#D3AC4A"/>
</svg>
