<svg width="60" height="60" viewBox="0 0 60 60" fill="none" xmlns="http://www.w3.org/2000/svg">
<path d="M60 30C60 46.5685 46.5685 60 30 60C13.4315 60 0 46.5685 0 30C0 13.4315 13.4315 0 30 0C46.5685 0 60 13.4315 60 30Z" fill="#37405E"/>
<path d="M28.4943 41.4724H33.1907V44L28.4943 41.4724ZM40 22.182V40.5655H26.8093V22.182H28.4152C28.5214 22.5132 28.6466 22.8376 28.7849 23.1521C29.3555 24.4494 30.1881 25.6913 31.1116 26.8333C30.0501 27.1018 29.354 27.5514 29.354 28.0609C29.354 28.8833 31.1675 29.5501 33.4046 29.5501C35.6416 29.5501 37.4551 28.8833 37.4551 28.0609C37.4551 27.5514 36.759 27.1018 35.6976 26.8333C36.6211 25.6913 37.4537 24.4494 38.0243 23.1521C38.1627 22.8376 38.2878 22.5132 38.3941 22.182H40ZM38.339 37.1465C38.339 36.8961 38.1377 36.6931 37.8895 36.6931H28.9198C28.6715 36.6931 28.4703 36.8961 28.4703 37.1465C28.4703 37.3969 28.6715 37.6 28.9198 37.6H37.8895C38.1377 37.5999 38.339 37.3969 38.339 37.1465ZM38.339 34.6715C38.339 34.421 38.1377 34.218 37.8895 34.218H28.9198C28.6715 34.218 28.4703 34.421 28.4703 34.6715C28.4703 34.9219 28.6715 35.1249 28.9198 35.1249H37.8895C38.1377 35.1249 38.339 34.9219 38.339 34.6715ZM38.339 32.1964C38.339 31.946 38.1377 31.743 37.8895 31.743H28.9198C28.6715 31.743 28.4703 31.946 28.4703 32.1964C28.4703 32.4468 28.6715 32.6499 28.9198 32.6499H37.8895C38.1377 32.6499 38.339 32.4468 38.339 32.1964ZM25.9103 41.1095L31.2809 44H20V25.6165H25.9102L25.9103 41.1095ZM20.7085 27.3832C20.7085 27.6336 20.9098 27.8366 21.158 27.8366H24.7523C25.0006 27.8366 25.2018 27.6336 25.2018 27.3832C25.2018 27.1328 25.0006 26.9297 24.7523 26.9297H21.158C20.9098 26.9297 20.7085 27.1328 20.7085 27.3832ZM20.7085 29.8582C20.7085 30.1086 20.9098 30.3116 21.158 30.3116H24.7523C25.0006 30.3116 25.2018 30.1086 25.2018 29.8582C25.2018 29.6078 25.0006 29.4047 24.7523 29.4047H21.158C20.9098 29.4047 20.7085 29.6078 20.7085 29.8582ZM20.7085 32.3332C20.7085 32.5836 20.9098 32.7866 21.158 32.7866H24.7523C25.0006 32.7866 25.2018 32.5836 25.2018 32.3332C25.2018 32.0828 25.0006 31.8797 24.7523 31.8797H21.158C20.9098 31.8798 20.7085 32.0828 20.7085 32.3332ZM20.7085 34.8082C20.7085 35.0586 20.9098 35.2617 21.158 35.2617H24.7523C25.0006 35.2617 25.2018 35.0586 25.2018 34.8082C25.2018 34.5578 25.0006 34.3548 24.7523 34.3548H21.158C20.9098 34.3548 20.7085 34.5578 20.7085 34.8082ZM20.7085 37.2833C20.7085 37.5337 20.9098 37.7367 21.158 37.7367H24.7523C25.0006 37.7367 25.2018 37.5337 25.2018 37.2833C25.2018 37.0329 25.0006 36.8298 24.7523 36.8298H21.158C20.9098 36.8298 20.7085 37.0329 20.7085 37.2833ZM20.7085 39.7583C20.7085 40.0088 20.9098 40.2118 21.158 40.2118H24.7523C25.0006 40.2118 25.2018 40.0088 25.2018 39.7583C25.2018 39.5079 25.0006 39.3049 24.7523 39.3049H21.158C20.9098 39.3049 20.7085 39.5079 20.7085 39.7583ZM21.158 41.7799C20.9098 41.7799 20.7085 41.9829 20.7085 42.2333C20.7085 42.4838 20.9098 42.6868 21.158 42.6868H26.0658C26.314 42.6868 26.5153 42.4838 26.5153 42.2333C26.5153 41.9829 26.314 41.7799 26.0658 41.7799H21.158ZM33.4046 28.0609C25.6881 20.0203 29.5463 16 33.4046 16C37.2629 16 41.1212 20.0203 33.4046 28.0609ZM33.4046 22.6723C34.6286 22.6723 35.6208 21.6714 35.6208 20.4366C35.6208 19.2019 34.6286 18.2009 33.4046 18.2009C32.1806 18.2009 31.1884 19.2019 31.1884 20.4366C31.1884 21.6714 32.1806 22.6723 33.4046 22.6723Z" fill="#D3AC4A"/>
</svg>
