<svg width="60" height="60" viewBox="0 0 60 60" fill="none" xmlns="http://www.w3.org/2000/svg">
<path d="M60 30C60 46.5685 46.5685 60 30 60C13.4315 60 0 46.5685 0 30C0 13.4315 13.4315 0 30 0C46.5685 0 60 13.4315 60 30Z" fill="#37405E"/>
<path d="M39.625 34.4297H35.25C33.8327 34.4297 32.6797 35.5827 32.6797 37V37.7506C27.3533 36.851 23.149 32.6467 22.2494 27.3203H23C24.4173 27.3203 25.5703 26.1673 25.5703 24.75V20.375C25.5703 18.9577 24.4173 17.8047 23 17.8047H19.8828C17.7419 17.8047 16 19.5465 16 21.6875V25.1875C16 27.7184 16.4963 30.1753 17.4753 32.4898C19.4353 37.1239 22.9138 40.5806 27.5102 42.5247C29.8247 43.5037 32.2815 44 34.8125 44H38.3125C40.4535 44 42.1953 42.2581 42.1953 40.1172V37C42.1953 35.5827 41.0423 34.4297 39.625 34.4297Z" fill="#D3AC4A"/>
<path d="M41.4297 16H30.9297C29.5124 16 28.3594 17.153 28.3594 18.5703V26.0078C28.3594 27.4251 29.5124 28.5781 30.9297 28.5781H34.0899L35.5997 30.0878C35.92 30.4082 36.4394 30.4082 36.7598 30.0878L38.2695 28.5781H41.4297C42.847 28.5781 44 27.4251 44 26.0078V18.5703C44 17.153 42.847 16 41.4297 16ZM33.1172 24.6403C32.6642 24.6403 32.2969 24.2731 32.2969 23.82C32.2969 23.367 32.6642 22.9997 33.1172 22.9997C33.5702 22.9997 33.9375 23.367 33.9375 23.82C33.9375 24.2731 33.5702 24.6403 33.1172 24.6403ZM36.1797 24.6403C35.7267 24.6403 35.3594 24.2731 35.3594 23.82C35.3594 23.367 35.7267 22.9997 36.1797 22.9997C36.6327 22.9997 37 23.367 37 23.82C37 24.2731 36.6327 24.6403 36.1797 24.6403ZM39.2422 24.6403C38.7892 24.6403 38.4219 24.2731 38.4219 23.82C38.4219 23.367 38.7892 22.9997 39.2422 22.9997C39.6952 22.9997 40.0625 23.367 40.0625 23.82C40.0625 24.2731 39.6952 24.6403 39.2422 24.6403Z" fill="#D3AC4A"/>
</svg>
