<svg width="24" height="24" viewBox="0 0 24 24" fill="none" xmlns="http://www.w3.org/2000/svg">
<path d="M16.4844 0C14.8801 0.00184774 13.342 0.623088 12.2076 1.72745C11.0732 2.83181 10.4351 4.32911 10.4332 5.89091C10.4332 10.5513 15.8792 14.1391 16.1114 14.29C16.222 14.3614 16.3517 14.3994 16.4844 14.3994C16.617 14.3994 16.7467 14.3614 16.8573 14.29C17.0893 14.1392 22.5355 10.5513 22.5355 5.89091C22.5336 4.32911 21.8955 2.83181 20.7611 1.72745C19.6267 0.623088 18.0886 0.00184774 16.4844 0ZM16.4844 8.29091C15.9968 8.29091 15.5201 8.15015 15.1147 7.88644C14.7093 7.62272 14.3933 7.24789 14.2067 6.80935C14.0201 6.37081 13.9713 5.88825 14.0664 5.42269C14.1616 4.95714 14.3964 4.5295 14.7411 4.19385C15.0859 3.85821 15.5252 3.62963 16.0034 3.53702C16.4816 3.44442 16.9773 3.49195 17.4278 3.6736C17.8783 3.85525 18.2633 4.16286 18.5342 4.55754C18.8051 4.95222 18.9496 5.41623 18.9496 5.89091C18.949 6.52723 18.689 7.1373 18.2268 7.58725C17.7647 8.0372 17.138 8.29026 16.4844 8.29091Z" fill="#D3AC4A"/>
<path d="M22.8493 16.5818H12.6744V13.1695C13.4947 13.9891 14.3955 14.7286 15.3638 15.3775C15.6968 15.5898 16.0862 15.703 16.4844 15.703C16.8825 15.703 17.2719 15.5898 17.6049 15.3775C19.1654 14.3341 20.5453 13.0556 21.6928 11.5898C21.7691 11.7295 21.8235 11.8796 21.8542 12.0349L22.8493 16.5818Z" fill="#D3AC4A"/>
<path d="M11.3297 11.6684V16.5818H1.15476L2.15881 12.0262C2.25185 11.5866 2.49812 11.1918 2.85591 10.9087C3.2137 10.6255 3.66101 10.4715 4.12207 10.4727H10.5049C10.7569 10.8858 11.0322 11.285 11.3297 11.6684Z" fill="#D3AC4A"/>
<path d="M23.1403 17.8909H12.6744V24H21.9887C22.287 23.9936 22.5804 23.9241 22.8483 23.7963C23.1163 23.6685 23.3525 23.4854 23.5405 23.2598C23.7285 23.0342 23.8639 22.7715 23.9371 22.4899C24.0103 22.2083 24.0197 21.9145 23.9647 21.629L23.1403 17.8909Z" fill="#D3AC4A"/>
<path d="M11.3297 17.8909H0.863681L0.0398271 21.629C-0.0191483 21.9149 -0.0125555 22.21 0.0591342 22.4931C0.130824 22.7763 0.265842 23.0405 0.454551 23.267C0.643259 23.4935 0.881003 23.6766 1.15081 23.8033C1.42061 23.93 1.71583 23.9972 2.01537 24H11.3297V17.8909Z" fill="#D3AC4A"/>
</svg>
