<svg width="145" height="75" viewBox="0 0 145 75" fill="none" xmlns="http://www.w3.org/2000/svg">
<path d="M0 15C0 6.71573 6.71573 0 15 0H130C138.284 0 145 6.71573 145 15V60C145 68.2843 138.284 75 130 75H15C6.71573 75 0 68.2843 0 60V15Z" fill="white"/>
<path d="M136.643 43.6855V56.7549H138.913V60.1523H136.643V64H130.68V60.1523H121.684L121.337 56.7373L131.425 43.6855H136.643ZM120.375 49.8047C120.412 50.0109 120.445 50.2185 120.472 50.4277C120.599 51.4099 120.663 52.5598 120.663 53.877C120.663 55.2521 120.582 56.46 120.42 57.5C120.258 58.5399 119.97 59.5048 119.554 60.3945C119.149 61.2843 118.606 62.0129 117.924 62.5791C117.64 62.8185 117.321 63.0326 116.97 63.2266L116.82 61.7549H116.253L116.745 61.0146L116.161 55.2578L120.375 49.8047ZM125.584 56.7549H130.68V49.0938L125.584 56.7549Z" fill="black" fill-opacity="0.1"/>
<path d="M112.446 43.3564C113.787 43.3564 114.948 43.5293 115.931 43.876C116.924 44.2226 117.716 44.6909 118.306 45.2803C118.906 45.8696 119.386 46.6265 119.744 47.5508C120.102 48.4751 120.345 49.4341 120.472 50.4277C120.599 51.4099 120.663 52.5598 120.663 53.877L120.659 54.3848C120.641 55.5515 120.561 56.5899 120.42 57.5C120.258 58.5399 119.97 59.5048 119.554 60.3945C119.149 61.2843 118.606 62.0129 117.924 62.5791C117.254 63.1451 116.393 63.5845 115.342 63.8965C114.302 64.2085 113.077 64.3642 111.667 64.3643C110.327 64.3643 109.165 64.1964 108.183 63.8613C107.212 63.5147 106.426 63.0524 105.825 62.4746C105.299 61.9691 104.866 61.3353 104.526 60.5732L104.387 60.2383C104.083 59.4395 103.864 58.6098 103.729 57.749L103.676 57.3789C103.58 56.6337 103.521 55.7973 103.497 54.8701L103.485 53.9121C103.485 52.537 103.566 51.3291 103.728 50.2891C103.889 49.2491 104.173 48.2843 104.577 47.3945C104.982 46.4932 105.519 45.7596 106.189 45.1934C106.86 44.6156 107.715 44.1653 108.755 43.8418C109.806 43.5183 111.037 43.3565 112.446 43.3564ZM112.03 46.2852C111.268 46.2853 110.713 46.6903 110.366 47.499C110.031 48.3079 109.864 49.7406 109.864 51.7969V56.1484C109.864 58.0318 110.037 59.3606 110.384 60.1348C110.73 60.8973 111.279 61.2782 112.03 61.2783C112.585 61.2783 113.013 61.1517 113.313 60.8975C113.614 60.6317 113.851 60.0649 114.024 59.1982C114.198 58.3201 114.284 57.0433 114.284 55.3682V51.1904C114.284 47.9204 113.532 46.2852 112.03 46.2852ZM121.337 56.7373L125.576 51.252C125.636 52.0861 125.663 52.9634 125.663 53.877C125.663 55.4361 125.572 56.9109 125.36 58.2686C125.261 58.9068 125.124 59.5351 124.952 60.1523H121.684L121.337 56.7373Z" fill="black" fill-opacity="0.1"/>
</svg>
