<svg width="145" height="75" viewBox="0 0 145 75" fill="none" xmlns="http://www.w3.org/2000/svg">
<path d="M0 15C0 6.71573 6.71573 0 15 0H130C138.284 0 145 6.71573 145 15V60C145 68.2843 138.284 75 130 75H15C6.71573 75 0 68.2843 0 60V15Z" fill="white"/>
<path d="M139.758 45.8398C139.238 46.2905 138.729 46.9549 138.232 47.833C137.736 48.6997 137.256 49.7629 136.794 51.0225C136.343 52.2705 135.979 53.7789 135.702 55.5469L135.604 56.2139C135.392 57.7825 135.286 59.4265 135.286 61.1455C135.286 61.7579 135.303 62.3761 135.338 63H128.318C128.51 61.0891 128.831 59.2489 129.279 57.4795L129.479 56.7256C130.046 54.7149 130.826 52.8307 131.819 51.0742C132.813 49.3063 133.952 47.9143 135.234 46.8975L125.822 47.2959V42.7031H138.771L139.758 45.8398ZM124.479 56.0703C124.461 56.2165 124.442 56.3599 124.42 56.5C124.316 57.1704 124.157 57.809 123.947 58.417C124.103 57.6256 124.28 56.8432 124.479 56.0703ZM120.822 43.249C121.41 43.5375 121.905 43.8797 122.306 44.2803C122.906 44.8696 123.386 45.6265 123.744 46.5508C124.102 47.4751 124.345 48.4341 124.472 49.4277C124.582 50.2765 124.64 51.2506 124.655 52.3496L120.822 52.5127V43.249Z" fill="black" fill-opacity="0.1"/>
<path d="M116.446 42.3564C117.787 42.3564 118.948 42.5293 119.931 42.876C120.924 43.2226 121.716 43.6909 122.306 44.2803C122.906 44.8696 123.386 45.6265 123.744 46.5508C124.102 47.4751 124.345 48.4341 124.472 49.4277C124.599 50.4099 124.663 51.5598 124.663 52.877L124.659 53.3848C124.641 54.5515 124.561 55.5899 124.42 56.5C124.258 57.5399 123.97 58.5048 123.554 59.3945C123.149 60.2843 122.606 61.0129 121.924 61.5791C121.254 62.1451 120.393 62.5845 119.342 62.8965C118.302 63.2085 117.077 63.3642 115.667 63.3643C114.327 63.3643 113.165 63.1964 112.183 62.8613C111.212 62.5147 110.426 62.0524 109.825 61.4746C109.299 60.9691 108.866 60.3353 108.526 59.5732L108.387 59.2383C108.083 58.4395 107.864 57.6098 107.729 56.749L107.676 56.3789C107.58 55.6337 107.521 54.7973 107.497 53.8701L107.485 52.9121C107.485 51.537 107.566 50.3291 107.728 49.2891C107.889 48.2491 108.173 47.2843 108.577 46.3945C108.982 45.4932 109.519 44.7596 110.189 44.1934C110.86 43.6156 111.715 43.1653 112.755 42.8418C113.806 42.5183 115.037 42.3565 116.446 42.3564ZM116.03 45.2852C115.268 45.2853 114.713 45.6903 114.366 46.499C114.031 47.3079 113.864 48.7406 113.864 50.7969V55.1484C113.864 57.0318 114.037 58.3606 114.384 59.1348C114.73 59.8973 115.279 60.2782 116.03 60.2783C116.585 60.2783 117.013 60.1517 117.313 59.8975C117.614 59.6317 117.851 59.0649 118.024 58.1982C118.198 57.3201 118.284 56.0433 118.284 54.3682V50.1904C118.284 46.9204 117.532 45.2852 116.03 45.2852ZM129.36 57.2686C129.233 58.087 129.045 58.889 128.797 59.6719C128.964 58.785 129.162 57.915 129.39 57.0615C129.38 57.1307 129.371 57.1999 129.36 57.2686ZM127.395 42.7031C127.799 43.3551 128.134 44.0406 128.406 44.7441C128.711 45.5312 128.955 46.3359 129.141 47.1553L125.822 47.2959V42.7031H127.395Z" fill="black" fill-opacity="0.1"/>
</svg>
