<svg width="145" height="75" viewBox="0 0 145 75" fill="none" xmlns="http://www.w3.org/2000/svg">
<path d="M0 15C0 6.71573 6.71573 0 15 0H130C138.284 0 145 6.71573 145 15V60C145 68.2843 138.284 75 130 75H15C6.71573 75 0 68.2843 0 60V15Z" fill="white"/>
<path d="M120.402 45.7031V66H114.596V52.4805L111.458 52.8271V49.1348C112.105 49.0423 112.649 48.9378 113.088 48.8223C113.527 48.7067 113.989 48.5277 114.475 48.2852C114.96 48.0425 115.376 47.7077 115.723 47.2803C116.069 46.8528 116.352 46.3269 116.571 45.7031H120.402ZM106.458 46.082C107.208 46.4013 107.825 46.7994 108.306 47.2803C108.906 47.8696 109.386 48.6265 109.744 49.5508C110.102 50.4751 110.345 51.4341 110.472 52.4277C110.599 53.4099 110.663 54.5598 110.663 55.877C110.663 57.2521 110.582 58.46 110.42 59.5C110.264 60.5033 109.988 61.4363 109.596 62.2998V58.0625L106.458 58.4092V46.082Z" fill="black" fill-opacity="0.1"/>
<path d="M102.446 45.3564C103.787 45.3564 104.948 45.5293 105.931 45.876C106.924 46.2226 107.716 46.6909 108.306 47.2803C108.906 47.8696 109.386 48.6265 109.744 49.5508C110.102 50.4751 110.345 51.4341 110.472 52.4277C110.599 53.4099 110.663 54.5598 110.663 55.877L110.659 56.3848C110.641 57.5515 110.561 58.5899 110.42 59.5C110.258 60.5399 109.97 61.5048 109.554 62.3945C109.149 63.2843 108.606 64.0129 107.924 64.5791C107.254 65.1451 106.393 65.5845 105.342 65.8965C104.302 66.2085 103.077 66.3642 101.667 66.3643C100.327 66.3643 99.1648 66.1964 98.1826 65.8613C97.212 65.5147 96.4261 65.0524 95.8252 64.4746C95.2995 63.9691 94.8663 63.3353 94.5264 62.5732L94.3867 62.2383C94.0834 61.4395 93.8637 60.6098 93.7285 59.749L93.6758 59.3789C93.5805 58.6337 93.5209 57.7973 93.4971 56.8701L93.4854 55.9121C93.4854 54.537 93.5658 53.3291 93.7275 52.2891C93.8893 51.2491 94.1727 50.2843 94.5771 49.3945C94.9816 48.4932 95.5192 47.7596 96.1895 47.1934C96.8597 46.6156 97.7149 46.1653 98.7549 45.8418C99.8063 45.5183 101.037 45.3565 102.446 45.3564ZM102.03 48.2852C101.268 48.2853 100.713 48.6903 100.366 49.499C100.031 50.3079 99.8643 51.7406 99.8643 53.7969V58.1484C99.8643 60.0318 100.037 61.3606 100.384 62.1348C100.73 62.8973 101.279 63.2782 102.03 63.2783C102.585 63.2783 103.013 63.1517 103.313 62.8975C103.614 62.6317 103.851 62.0649 104.024 61.1982C104.198 60.3201 104.284 59.0433 104.284 57.3682V53.1904C104.284 49.9204 103.532 48.2852 102.03 48.2852ZM114.596 52.4805L111.458 52.8271V49.1348C112.105 49.0423 112.649 48.9378 113.088 48.8223C113.527 48.7067 113.989 48.5277 114.475 48.2852C114.512 48.2666 114.548 48.2462 114.584 48.2266C114.992 49.3799 115.274 50.5684 115.431 51.7861L115.487 52.2607C115.609 53.3818 115.663 54.5937 115.663 55.877C115.663 57.4361 115.572 58.9109 115.36 60.2686C115.201 61.295 114.947 62.2958 114.596 63.2646V52.4805Z" fill="black" fill-opacity="0.1"/>
</svg>
