<svg width="145" height="75" viewBox="0 0 145 75" fill="none" xmlns="http://www.w3.org/2000/svg">
<path d="M0 15C0 6.71573 6.71573 0 15 0H130C138.284 0 145 6.71573 145 15V60C145 68.2843 138.284 75 130 75H15C6.71573 75 0 68.2843 0 60V15Z" fill="white"/>
<path d="M131.615 44.3906C132.563 44.3906 133.39 44.4489 134.095 44.5645C134.811 44.68 135.411 44.8419 135.896 45.0498C136.393 45.2462 136.856 45.5117 137.283 45.8467L137.301 45.9502L136.312 48.4639C135.585 48.0712 134.499 47.875 133.055 47.875C132.142 47.875 131.298 48.1112 130.523 48.585C129.53 49.1859 129.033 49.9667 129.033 50.9258V51.6533C129.68 51.1681 130.853 50.9258 132.552 50.9258C134.297 50.9258 135.741 51.5379 136.885 52.7627C138.04 53.976 138.618 55.5478 138.618 57.4775L138.609 57.9053C138.517 60.0227 137.734 61.7696 136.261 63.1455C134.701 64.6129 132.748 65.3467 130.402 65.3467C128.819 65.3467 127.403 64.9246 126.155 64.0811C124.996 63.2794 124.086 62.2189 123.425 60.8994L123.296 60.6318C122.678 59.2668 122.35 57.7598 122.312 56.1104L122.308 55.7783C122.308 52.3582 123.174 49.6082 124.907 47.5283C126.64 45.4369 128.877 44.3907 131.615 44.3906ZM117.308 55.7783C117.308 52.7498 117.858 49.8676 119.126 47.3086C119.361 47.6823 119.568 48.096 119.744 48.5508C120.102 49.4751 120.345 50.4341 120.472 51.4277C120.599 52.4099 120.663 53.5598 120.663 54.877C120.663 56.2521 120.582 57.46 120.42 58.5C120.258 59.5399 119.97 60.5048 119.554 61.3945C119.33 61.8866 119.061 62.3276 118.753 62.7207L118.75 62.7148L118.74 62.6924C117.757 60.5188 117.308 58.1873 117.308 55.7783ZM130.472 54.375C129.455 54.375 128.911 54.6695 128.842 55.2588V58.0469L128.734 58.127L128.842 58.252V58.373L128.666 58.1777L128.225 58.5088C128.257 58.5387 128.286 58.5686 128.316 58.5947C128.453 58.7125 128.629 58.837 128.842 58.9541V60.4062C128.842 60.7991 129.01 61.1408 129.345 61.4297C129.68 61.7185 130.05 61.8623 130.454 61.8623C130.87 61.8623 131.246 61.7185 131.581 61.4297C131.874 61.1668 132.04 60.8727 132.076 60.5479L132.084 60.4062V58.7402C132.364 58.5412 132.655 58.2823 132.92 57.9502C132.884 57.91 132.849 57.8718 132.814 57.8359L132.609 57.6426L132.433 57.502C132.331 57.4274 132.214 57.3538 132.084 57.2822V55.8311C132.084 55.4382 131.916 55.0965 131.581 54.8076C131.246 54.5188 130.876 54.375 130.472 54.375Z" fill="black" fill-opacity="0.1"/>
<path d="M112.446 44.3564C113.787 44.3564 114.948 44.5293 115.931 44.876C116.924 45.2226 117.716 45.6909 118.306 46.2803C118.906 46.8696 119.386 47.6265 119.744 48.5508C120.102 49.4751 120.345 50.4341 120.472 51.4277C120.599 52.4099 120.663 53.5598 120.663 54.877L120.659 55.3848C120.641 56.5515 120.561 57.5899 120.42 58.5C120.258 59.5399 119.97 60.5048 119.554 61.3945C119.149 62.2843 118.606 63.0129 117.924 63.5791C117.254 64.1451 116.393 64.5845 115.342 64.8965C114.302 65.2085 113.077 65.3642 111.667 65.3643C110.327 65.3643 109.165 65.1964 108.183 64.8613C107.212 64.5147 106.426 64.0524 105.825 63.4746C105.299 62.9691 104.866 62.3353 104.526 61.5732L104.387 61.2383C104.083 60.4395 103.864 59.6098 103.729 58.749L103.676 58.3789C103.58 57.6337 103.521 56.7973 103.497 55.8701L103.485 54.9121C103.485 53.537 103.566 52.3291 103.728 51.2891C103.889 50.2491 104.173 49.2843 104.577 48.3945C104.982 47.4932 105.519 46.7596 106.189 46.1934C106.86 45.6156 107.715 45.1653 108.755 44.8418C109.806 44.5183 111.037 44.3565 112.446 44.3564ZM122.308 55.7783C122.308 52.4633 123.124 49.7795 124.752 47.7236C125.07 48.7205 125.297 49.7426 125.431 50.7861L125.487 51.2607C125.609 52.3818 125.663 53.5937 125.663 54.877C125.663 56.4361 125.572 57.9109 125.36 59.2686C125.185 60.3959 124.897 61.4929 124.49 62.5498C124.023 61.9818 123.626 61.3424 123.296 60.6318C122.637 59.1758 122.308 57.5579 122.308 55.7783ZM112.03 47.2852C111.268 47.2853 110.713 47.6903 110.366 48.499C110.031 49.3079 109.864 50.7406 109.864 52.7969V57.1484C109.864 59.0318 110.037 60.3606 110.384 61.1348C110.73 61.8973 111.279 62.2782 112.03 62.2783C112.585 62.2783 113.013 62.1517 113.313 61.8975C113.614 61.6317 113.851 61.0649 114.024 60.1982C114.198 59.3201 114.284 58.0433 114.284 56.3682V52.1904C114.284 48.9204 113.532 47.2852 112.03 47.2852Z" fill="black" fill-opacity="0.1"/>
</svg>
