<svg width="145" height="75" viewBox="0 0 145 75" fill="none" xmlns="http://www.w3.org/2000/svg">
<path d="M0 15C0 6.71573 6.71573 0 15 0H130C138.284 0 145 6.71573 145 15V60C145 68.2843 138.284 75 130 75H15C6.71573 75 0 68.2843 0 60V15Z" fill="white"/>
<path d="M129.64 43.3906C130.448 43.3906 131.199 43.4489 131.893 43.5645C132.586 43.68 133.251 43.882 133.887 44.1709C134.534 44.4598 135.083 44.8237 135.533 45.2627C135.984 45.7017 136.342 46.2679 136.607 46.9609C136.873 47.6426 137.006 48.4287 137.006 49.3184C137.006 49.9653 136.902 50.5837 136.694 51.1729C136.498 51.7505 136.226 52.2652 135.88 52.7158C135.545 53.1549 135.14 53.5941 134.666 54.0332C134.192 54.4722 133.696 54.8653 133.176 55.2119C132.667 55.5585 132.119 55.9285 131.529 56.3213C130.952 56.7141 130.397 57.09 129.865 57.4482C129.345 57.7949 128.819 58.1929 128.287 58.6436C127.767 59.0942 127.323 59.5455 126.953 59.9961L137.353 59.2158V64H122.567L122.464 63.792C122.406 63.6302 122.377 62.8503 122.377 61.4521C122.377 59.7997 123.504 58.0953 125.757 56.3389C127.629 54.802 128.963 53.5247 129.761 52.5078C130.558 51.4911 130.957 50.4918 130.957 49.5098C130.957 48.9435 130.829 48.4059 130.575 47.8975C130.125 46.9846 129.454 46.5283 128.564 46.5283C127.814 46.5284 127.178 46.6088 126.658 46.7705L125.826 50.3418L122.672 50.3242L122.411 46.251C123.671 44.3443 126.081 43.3906 129.64 43.3906ZM117.377 61.4521C117.377 59.0386 118.345 56.9947 119.684 55.3066L117.979 55.2979L117.314 44.8945L117.491 44.626C117.795 44.8245 118.068 45.0421 118.306 45.2803C118.906 45.8696 119.386 46.6265 119.744 47.5508C120.102 48.4751 120.345 49.4341 120.472 50.4277C120.599 51.4099 120.663 52.5598 120.663 53.877C120.663 55.2521 120.582 56.46 120.42 57.5C120.258 58.5399 119.97 59.5048 119.554 60.3945C119.149 61.2843 118.606 62.0129 117.924 62.5791C117.759 62.7182 117.582 62.8489 117.395 62.9727C117.383 62.5439 117.377 62.0319 117.377 61.4521Z" fill="black" fill-opacity="0.1"/>
<path d="M112.446 43.3564C113.787 43.3564 114.948 43.5293 115.931 43.876C116.924 44.2226 117.716 44.6909 118.306 45.2803L118.525 45.5088C119.025 46.0611 119.431 46.742 119.744 47.5508C120.102 48.4751 120.345 49.4341 120.472 50.4277C120.599 51.4099 120.663 52.5598 120.663 53.877L120.659 54.3848C120.641 55.5515 120.561 56.5899 120.42 57.5C120.258 58.5399 119.97 59.5048 119.554 60.3945C119.149 61.2843 118.606 62.0129 117.924 62.5791C117.254 63.1451 116.393 63.5845 115.342 63.8965C114.302 64.2085 113.077 64.3642 111.667 64.3643C110.327 64.3643 109.165 64.1964 108.183 63.8613C107.212 63.5147 106.426 63.0524 105.825 62.4746C105.299 61.9691 104.866 61.3353 104.526 60.5732L104.387 60.2383C104.083 59.4395 103.864 58.6098 103.729 57.749L103.676 57.3789C103.58 56.6337 103.521 55.7973 103.497 54.8701L103.485 53.9121C103.485 52.537 103.566 51.3291 103.728 50.2891C103.889 49.2491 104.173 48.2843 104.577 47.3945C104.982 46.4932 105.519 45.7596 106.189 45.1934C106.86 44.6156 107.715 44.1653 108.755 43.8418C109.806 43.5183 111.037 43.3565 112.446 43.3564ZM125.563 56.4932C125.515 57.104 125.449 57.6967 125.36 58.2686C125.134 59.7243 124.722 61.1301 124.104 62.4629C124.097 62.4792 124.09 62.4964 124.083 62.5127L124.082 62.5117C123.845 63.0266 123.574 63.5244 123.266 64H122.567L122.464 63.792C122.406 63.6302 122.377 62.8503 122.377 61.4521C122.377 59.8479 123.44 58.1955 125.563 56.4932ZM112.03 46.2852C111.268 46.2853 110.713 46.6903 110.366 47.499C110.031 48.3079 109.864 49.7406 109.864 51.7969V56.1484C109.864 58.0318 110.037 59.3606 110.384 60.1348C110.73 60.8973 111.279 61.2782 112.03 61.2783C112.585 61.2783 113.013 61.1517 113.313 60.8975C113.614 60.6317 113.851 60.0649 114.024 59.1982C114.198 58.3201 114.284 57.0433 114.284 55.3682V51.1904C114.284 47.9204 113.532 46.2852 112.03 46.2852ZM123.958 44.7236C124.122 45.0585 124.272 45.3989 124.406 45.7441C124.911 47.0475 125.253 48.3979 125.431 49.7861L125.487 50.2607C125.49 50.287 125.491 50.3135 125.494 50.3398L122.672 50.3242L122.411 46.251C122.811 45.6459 123.327 45.1367 123.958 44.7236Z" fill="black" fill-opacity="0.1"/>
</svg>
