<svg width="145" height="75" viewBox="0 0 145 75" fill="none" xmlns="http://www.w3.org/2000/svg">
<path d="M0 15C0 6.71573 6.71573 0 15 0H130C138.284 0 145 6.71573 145 15V60C145 68.2843 138.284 75 130 75H15C6.71573 75 0 68.2843 0 60V15Z" fill="white"/>
<path d="M139.614 44.9668H132.387L131.658 48.5889C131.97 48.3925 132.433 48.2306 133.045 48.1035C133.657 47.9649 134.223 47.8965 134.743 47.8965C135.61 47.8965 136.408 48.0111 137.136 48.2422C137.875 48.4617 138.551 48.8087 139.163 49.2822C139.776 49.7444 140.256 50.3866 140.603 51.207C140.961 52.0158 141.14 52.9689 141.14 54.0664L141.131 54.4902C141.047 56.5761 140.333 58.2204 138.99 59.4229C137.569 60.7054 135.408 61.3466 132.508 61.3467C130.694 61.3467 128.92 60.7979 127.187 59.7002V56.5449C127.545 56.8338 128.117 57.0941 128.902 57.3252C129.688 57.5447 130.341 57.6543 130.861 57.6543C132.409 57.6542 133.553 57.3949 134.293 56.875C134.997 56.3875 135.371 55.5949 135.415 54.498L135.42 54.2744C135.42 53.3616 135.124 52.6399 134.535 52.1084C133.957 51.5769 133.039 51.3105 131.779 51.3105C130.497 51.3106 129.063 51.6282 127.48 52.2637L128.625 40.6855H140.811L139.614 44.9668ZM123.43 42.4092C123.972 42.9788 124.411 43.6918 124.744 44.5508C125.102 45.4751 125.345 46.4341 125.472 47.4277C125.599 48.4099 125.663 49.5598 125.663 50.877C125.663 52.2521 125.582 53.46 125.42 54.5C125.258 55.5399 124.97 56.5048 124.554 57.3945C124.149 58.2843 123.606 59.0129 122.924 59.5791C122.7 59.7683 122.453 59.9408 122.187 60.1016V59.7764L121.694 59.9746L122.187 54.9932V46.0898L123.001 46.7471L123.43 42.4092Z" fill="black" fill-opacity="0.1"/>
<path d="M117.446 40.3564C118.787 40.3564 119.948 40.5293 120.931 40.876C121.924 41.2226 122.716 41.6909 123.306 42.2803C123.906 42.8696 124.386 43.6265 124.744 44.5508C125.102 45.4751 125.345 46.4341 125.472 47.4277C125.599 48.4099 125.663 49.5598 125.663 50.877L125.659 51.3848C125.641 52.5515 125.561 53.5899 125.42 54.5C125.258 55.5399 124.97 56.5048 124.554 57.3945C124.149 58.2843 123.606 59.0129 122.924 59.5791C122.254 60.1451 121.393 60.5845 120.342 60.8965C119.302 61.2085 118.077 61.3642 116.667 61.3643C115.327 61.3643 114.165 61.1964 113.183 60.8613C112.212 60.5147 111.426 60.0524 110.825 59.4746C110.299 58.9691 109.866 58.3353 109.526 57.5732L109.387 57.2383C109.083 56.4395 108.864 55.6098 108.729 54.749L108.676 54.3789C108.58 53.6337 108.521 52.7973 108.497 51.8701L108.485 50.9121C108.485 49.537 108.566 48.3291 108.728 47.2891C108.889 46.2491 109.173 45.2843 109.577 44.3945C109.982 43.4932 110.519 42.7596 111.189 42.1934C111.86 41.6156 112.715 41.1653 113.755 40.8418C114.806 40.5183 116.037 40.3565 117.446 40.3564ZM127.187 56.5449C127.545 56.8338 128.117 57.0941 128.902 57.3252C129.238 57.419 129.55 57.4922 129.837 57.5459C129.636 58.1993 129.393 58.8392 129.104 59.4629C129.097 59.4792 129.09 59.4964 129.083 59.5127L129.082 59.5117C128.933 59.8366 128.768 60.154 128.591 60.4639C128.12 60.2484 127.652 59.9947 127.187 59.7002V56.5449ZM117.03 43.2852C116.268 43.2853 115.713 43.6903 115.366 44.499C115.031 45.3079 114.864 46.7406 114.864 48.7969V53.1484C114.864 55.0318 115.037 56.3606 115.384 57.1348C115.73 57.8973 116.279 58.2782 117.03 58.2783C117.585 58.2783 118.013 58.1517 118.313 57.8975C118.614 57.6317 118.851 57.0649 119.024 56.1982C119.198 55.3201 119.284 54.0433 119.284 52.3682V48.1904C119.284 44.9204 118.532 43.2852 117.03 43.2852ZM127.48 52.2637L128.59 41.0312C128.908 41.5839 129.179 42.1576 129.406 42.7441C129.911 44.0475 130.253 45.3979 130.431 46.7861L130.487 47.2607C130.609 48.3818 130.663 49.5937 130.663 50.877C130.663 51.0484 130.66 51.2193 130.658 51.3887C129.677 51.5174 128.617 51.8074 127.48 52.2637Z" fill="black" fill-opacity="0.1"/>
</svg>
