<svg width="145" height="75" viewBox="0 0 145 75" fill="none" xmlns="http://www.w3.org/2000/svg">
<path d="M0 15C0 6.71573 6.71573 0 15 0H130C138.284 0 145 6.71573 145 15V60C145 68.2843 138.284 75 130 75H15C6.71573 75 0 68.2843 0 60V15Z" fill="white"/>
<path d="M126.265 42.3906C127.536 42.3906 128.634 42.5353 129.559 42.8242L129.9 42.9385C130.676 43.2178 131.302 43.5897 131.777 44.0547C132.332 44.5862 132.736 45.1933 132.99 45.875C133.256 46.5566 133.389 47.3248 133.389 48.1797C133.389 50.745 132.014 52.1439 129.264 52.375C130.743 52.4906 131.916 53.0162 132.782 53.9521C133.649 54.8766 134.082 56.2053 134.082 57.9385C134.082 59.4638 133.401 60.7471 132.037 61.7871L131.774 61.9756C130.43 62.8896 128.594 63.3467 126.265 63.3467C124.37 63.3466 122.613 62.8321 120.995 61.8037V58.9609C121.804 59.5734 122.717 59.8799 123.734 59.8799C124.451 59.8799 125.052 59.7995 125.537 59.6377C126.022 59.4644 126.38 59.2271 126.611 58.9268C126.785 58.7015 126.916 58.4762 127.005 58.251L127.079 58.0254C127.148 57.8001 127.193 57.5488 127.21 57.2715L127.218 56.9854C127.218 54.9863 126.034 53.9864 123.665 53.9863H123.214V51.6123H123.439C124.71 51.6123 125.658 51.4273 126.282 51.0576C126.906 50.6763 127.218 49.9537 127.218 48.8906C127.218 47.8506 126.9 47.0939 126.265 46.6201C125.629 46.1349 124.786 45.8916 123.734 45.8916C122.717 45.8916 121.804 46.1981 120.995 46.8105V43.9678C122.636 42.9163 124.393 42.3907 126.265 42.3906ZM115.995 43.335C116.507 43.6048 116.945 43.9195 117.306 44.2803C117.906 44.8696 118.386 45.6265 118.744 46.5508C119.102 47.4751 119.345 48.4341 119.472 49.4277C119.599 50.4099 119.663 51.5598 119.663 52.877C119.663 54.2521 119.582 55.46 119.42 56.5C119.258 57.5399 118.97 58.5048 118.554 59.3945C118.149 60.2843 117.606 61.0129 116.924 61.5791C116.647 61.8128 116.337 62.0225 115.995 62.2129V43.335Z" fill="black" fill-opacity="0.1"/>
<path d="M111.446 42.3564C112.787 42.3564 113.948 42.5293 114.931 42.876C115.924 43.2226 116.716 43.6909 117.306 44.2803L117.525 44.5088C118.025 45.0611 118.431 45.742 118.744 46.5508C119.102 47.4751 119.345 48.4341 119.472 49.4277C119.599 50.4099 119.663 51.5598 119.663 52.877L119.659 53.3848C119.641 54.5515 119.561 55.5899 119.42 56.5C119.258 57.5399 118.97 58.5048 118.554 59.3945C118.149 60.2843 117.606 61.0129 116.924 61.5791C116.254 62.1451 115.393 62.5845 114.342 62.8965C113.302 63.2085 112.077 63.3642 110.667 63.3643C109.327 63.3643 108.165 63.1964 107.183 62.8613C106.212 62.5147 105.426 62.0524 104.825 61.4746C104.299 60.9691 103.866 60.3353 103.526 59.5732L103.387 59.2383C103.083 58.4395 102.864 57.6098 102.729 56.749L102.676 56.3789C102.58 55.6337 102.521 54.7973 102.497 53.8701L102.485 52.9121C102.485 51.537 102.566 50.3291 102.728 49.2891C102.889 48.2491 103.173 47.2843 103.577 46.3945C103.982 45.4932 104.519 44.7596 105.189 44.1934C105.86 43.6156 106.715 43.1653 107.755 42.8418C108.806 42.5183 110.037 42.3565 111.446 42.3564ZM120.995 58.9609C121.803 59.5726 122.715 59.8781 123.73 59.8789C123.552 60.417 123.344 60.9456 123.104 61.4629C123.097 61.4792 123.09 61.4964 123.083 61.5127L123.082 61.5117C122.911 61.8841 122.721 62.2471 122.513 62.5996C121.994 62.3818 121.488 62.1169 120.995 61.8037V58.9609ZM111.03 45.2852C110.268 45.2853 109.713 45.6903 109.366 46.499C109.031 47.3079 108.864 48.7406 108.864 50.7969V55.1484C108.864 57.0318 109.037 58.3606 109.384 59.1348C109.73 59.8973 110.279 60.2782 111.03 60.2783C111.585 60.2783 112.013 60.1517 112.313 59.8975C112.614 59.6317 112.851 59.0649 113.024 58.1982C113.198 57.3201 113.284 56.0433 113.284 54.3682V50.1904C113.284 46.9204 112.532 45.2852 111.03 45.2852ZM123.214 51.6123H123.439C123.878 51.6123 124.279 51.5881 124.641 51.5439C124.655 51.9788 124.663 52.4234 124.663 52.877C124.663 53.2755 124.656 53.6688 124.644 54.0557C124.343 54.0114 124.018 53.9863 123.665 53.9863H123.214V51.6123ZM123.406 44.7441C123.553 45.1232 123.685 45.5068 123.804 45.8936C123.781 45.8933 123.758 45.8916 123.734 45.8916C122.717 45.8916 121.804 46.1981 120.995 46.8105V45.6777L123.406 44.7441ZM122.635 43.1084C122.934 43.6371 123.19 44.1849 123.406 44.7441L120.995 45.6777V43.9678C121.529 43.6255 122.076 43.3393 122.635 43.1084Z" fill="black" fill-opacity="0.1"/>
</svg>
