<svg width="145" height="75" viewBox="0 0 145 75" fill="none" xmlns="http://www.w3.org/2000/svg">
<path d="M0 15C0 6.71573 6.71573 0 15 0H130C138.284 0 145 6.71573 145 15V60C145 68.2843 138.284 75 130 75H15C6.71573 75 0 68.2843 0 60V15Z" fill="white"/>
<path d="M129.951 39.46C131.014 39.46 131.985 39.5987 132.863 39.876C133.741 40.1417 134.458 40.4997 135.013 40.9502C135.567 41.4008 135.995 41.9094 136.296 42.4756C136.596 43.0301 136.74 43.6082 136.729 44.209C136.717 44.6133 136.654 45.0064 136.538 45.3877C136.434 45.769 136.255 46.1509 136.001 46.5322C135.758 46.9134 135.417 47.2886 134.979 47.6582C134.539 48.0164 134.014 48.3521 133.401 48.6641C134.037 49.0338 134.574 49.3866 135.013 49.7217C135.463 50.0568 135.897 50.4497 136.312 50.9004C136.74 51.3395 137.059 51.83 137.267 52.373C137.486 52.9162 137.596 53.506 137.596 54.1416L137.592 54.3965C137.551 55.6606 137.199 56.7366 136.538 57.625C135.833 58.5726 134.886 59.266 133.695 59.7051C132.517 60.1441 131.142 60.3643 129.57 60.3643C128.161 60.3643 126.878 60.1501 125.723 59.7227C124.579 59.2951 123.659 58.6599 122.966 57.8164C122.272 56.9613 121.926 55.9725 121.926 54.8516C121.926 54.2855 122.053 53.7194 122.308 53.1533C122.562 52.5872 122.966 52.0554 123.521 51.5586C124.087 51.0501 124.746 50.6974 125.497 50.501C125.047 50.1891 124.653 49.8834 124.318 49.583C123.995 49.2826 123.682 48.9238 123.382 48.5078C123.082 48.0803 122.856 47.5887 122.706 47.0342C122.575 46.539 122.506 45.9996 122.498 45.416V45.1631C122.533 43.3489 123.197 41.944 124.491 40.9502C125.785 39.9565 127.606 39.46 129.951 39.46ZM116.926 54.8516C116.926 53.5141 117.231 52.253 117.746 51.1055L117.86 50.8613C118.03 50.5123 118.221 50.182 118.427 49.8672C118.201 49.3697 118.02 48.8591 117.88 48.3418L117.877 48.3291L117.873 48.3164C117.587 47.2387 117.481 46.1472 117.499 45.0781V45.0674L120.231 45.1191C120.334 45.5485 120.415 45.9845 120.472 46.4277C120.599 47.4099 120.663 48.5598 120.663 49.877C120.663 51.2521 120.582 52.46 120.42 53.5C120.258 54.5399 119.97 55.5048 119.554 56.3945C119.149 57.2843 118.606 58.0129 117.924 58.5791C117.859 58.6335 117.792 58.6843 117.724 58.7363C117.194 57.5229 116.926 56.2129 116.926 54.8516ZM127.924 51.9746C127.265 52.5061 126.93 53.1937 126.918 54.0371C126.906 55.0193 127.114 55.7479 127.542 56.2217C127.97 56.6839 128.646 56.9613 129.57 57.0537C130.125 57.0999 130.598 56.926 130.991 56.5332C131.379 56.1564 131.579 55.6893 131.595 55.1318C131.615 55.1263 131.635 55.1199 131.654 55.1143C131.66 55.1028 131.667 55.0918 131.673 55.0801C131.841 54.7347 131.899 54.4135 131.912 54.1797L131.442 54.4014L131.914 54.1504C131.914 54.1468 131.915 54.1432 131.915 54.1396C131.914 54.1301 131.912 54.1184 131.909 54.1045L131.499 54.0996L131.279 54.1562C131.187 54.0459 131.068 53.9356 130.922 53.8291C130.801 53.7368 130.68 53.6501 130.559 53.5693L130.194 53.3438C129.952 53.1935 129.599 52.9855 129.137 52.7197C128.675 52.454 128.27 52.2056 127.924 51.9746ZM131.531 54.0908L131.908 54.0947C131.903 54.0687 131.896 54.0364 131.886 53.998L131.531 54.0908ZM118.306 41.2803C118.906 41.8696 119.386 42.6265 119.744 43.5508C119.943 44.0628 120.104 44.5858 120.231 45.1191L117.499 45.0674C117.525 43.726 117.766 42.4265 118.24 41.2197C118.262 41.2403 118.285 41.2594 118.306 41.2803ZM127.909 44.7305C127.692 44.8094 127.58 44.8832 127.537 44.916C127.536 44.9168 127.534 44.9172 127.533 44.918C127.52 44.9686 127.501 45.0734 127.497 45.251C127.493 45.4768 127.514 45.6204 127.529 45.6992C127.56 45.7381 127.586 45.7732 127.61 45.8018L127.642 45.7773L127.819 45.8955L128.334 45.6338C128.433 45.7406 128.561 45.8555 128.721 45.9775C128.929 46.1162 129.103 46.2258 129.241 46.3066C129.38 46.3875 129.576 46.4972 129.83 46.6357C130.084 46.7744 130.269 46.8789 130.385 46.9482C130.593 47.0754 130.83 47.214 131.096 47.3643C131.171 47.2775 131.243 47.1903 131.312 47.1035L131.512 46.8438C131.575 46.7571 131.635 46.6706 131.689 46.584L131.841 46.3242C131.91 46.201 131.97 46.079 132.023 45.9609L132.101 45.7871C132.181 45.6138 132.24 45.4399 132.274 45.2666C132.321 45.0933 132.344 44.9314 132.344 44.7812C132.344 44.192 132.077 43.6774 131.546 43.2383C131.026 42.7995 130.489 42.5802 129.935 42.5801C129.38 42.5801 128.9 42.759 128.495 43.1172C128.102 43.4754 127.9 43.9207 127.889 44.4521C127.889 44.5471 127.896 44.6398 127.909 44.7305Z" fill="black" fill-opacity="0.1"/>
<path d="M112.446 39.3564C113.787 39.3564 114.948 39.5293 115.931 39.876C116.924 40.2226 117.716 40.6909 118.306 41.2803C118.906 41.8696 119.386 42.6265 119.744 43.5508C120.102 44.4751 120.345 45.4341 120.472 46.4277C120.599 47.4099 120.663 48.5598 120.663 49.877L120.659 50.3848C120.641 51.5515 120.561 52.5899 120.42 53.5C120.258 54.5399 119.97 55.5048 119.554 56.3945C119.149 57.2843 118.606 58.0129 117.924 58.5791C117.254 59.1451 116.393 59.5845 115.342 59.8965C114.302 60.2085 113.077 60.3642 111.667 60.3643C110.327 60.3643 109.165 60.1964 108.183 59.8613C107.212 59.5147 106.426 59.0524 105.825 58.4746C105.299 57.9691 104.866 57.3353 104.526 56.5732L104.387 56.2383C104.083 55.4395 103.864 54.6098 103.729 53.749L103.676 53.3789C103.58 52.6337 103.521 51.7973 103.497 50.8701L103.485 49.9121C103.485 48.537 103.566 47.3291 103.728 46.2891C103.889 45.2491 104.173 44.2843 104.577 43.3945C104.982 42.4932 105.519 41.7596 106.189 41.1934C106.86 40.6156 107.715 40.1653 108.755 39.8418C109.806 39.5183 111.037 39.3565 112.446 39.3564ZM125.497 50.501C125.047 50.1891 124.653 49.8834 124.318 49.583C123.995 49.2826 123.682 48.9238 123.382 48.5078C123.082 48.0803 122.856 47.5887 122.706 47.0342C122.556 46.4682 122.487 45.8445 122.498 45.1631C122.53 43.4992 123.092 42.1808 124.184 41.207C124.262 41.3848 124.336 41.5638 124.406 41.7441C124.911 43.0475 125.253 44.3979 125.431 45.7861L125.487 46.2607C125.609 47.3818 125.663 48.5937 125.663 49.877C125.663 51.4361 125.572 52.9109 125.36 54.2686C125.134 55.7243 124.722 57.1301 124.104 58.4629C124.097 58.4792 124.09 58.4964 124.083 58.5127L124.082 58.5117C124.043 58.5975 124.002 58.6828 123.961 58.7676C123.59 58.4866 123.257 58.1709 122.966 57.8164C122.272 56.9613 121.926 55.9725 121.926 54.8516C121.926 54.2855 122.053 53.7194 122.308 53.1533C122.562 52.5872 122.966 52.0554 123.521 51.5586C124.087 51.0501 124.746 50.6974 125.497 50.501ZM112.03 42.2852C111.268 42.2853 110.713 42.6903 110.366 43.499C110.031 44.3079 109.864 45.7406 109.864 47.7969V52.1484C109.864 54.0318 110.037 55.3606 110.384 56.1348C110.73 56.8973 111.279 57.2782 112.03 57.2783C112.585 57.2783 113.013 57.1517 113.313 56.8975C113.614 56.6317 113.851 56.0649 114.024 55.1982C114.198 54.3201 114.284 53.0433 114.284 51.3682V47.1904C114.284 43.9204 113.532 42.2852 112.03 42.2852Z" fill="black" fill-opacity="0.1"/>
</svg>
