<svg width="92" height="92" viewBox="0 0 92 92" fill="none" xmlns="http://www.w3.org/2000/svg">
<path d="M0 0H92V92H0V0Z" fill="#D3AC4A"/>
<path d="M44.8904 64.5569C45.6304 63.6666 62.9973 42.7501 62.9973 32.5982C61.9568 7.40033 26.0437 7.39871 25.0029 32.5984C25.0029 42.7501 42.3698 63.6667 43.1097 64.557C43.2193 64.6863 43.3557 64.7902 43.5094 64.8615C43.6632 64.9327 43.8306 64.9696 44.0001 64.9696C44.1696 64.9696 44.337 64.9327 44.4908 64.8614C44.6445 64.7902 44.7809 64.6862 44.8904 64.5569ZM35.0739 41.9408V33.5464C34.9961 33.6974 34.8869 33.8299 34.7537 33.9352C34.6204 34.0405 34.4661 34.116 34.3013 34.1567C34.1364 34.1974 33.9647 34.2023 33.7978 34.1712C33.6308 34.14 33.4725 34.0734 33.3334 33.976C33.1943 33.8785 33.0777 33.7524 32.9914 33.6062C32.9051 33.4599 32.8511 33.2969 32.8331 33.128C32.8151 32.9591 32.8334 32.7884 32.8868 32.6272C32.9403 32.466 33.0276 32.3181 33.1429 32.1935L35.3976 29.9389C35.3803 29.9078 42.7295 22.6535 42.7282 22.6197C43.0703 22.2914 43.526 22.1081 44.0001 22.1081C44.4742 22.1082 44.93 22.2915 45.272 22.6198C45.2953 22.6429 52.586 29.9223 52.6026 29.9389L54.8574 32.1936C55.074 32.4119 55.1956 32.7069 55.1956 33.0145C55.1956 33.322 55.074 33.6171 54.8574 33.8354C54.718 33.9587 54.5533 34.0499 54.3748 34.1027C54.1964 34.1555 54.0085 34.1686 53.8244 34.1411C53.6404 34.1135 53.4646 34.046 53.3095 33.9432C53.1543 33.8405 53.0235 33.705 52.9263 33.5463V41.9408C52.9254 42.2471 52.8033 42.5407 52.5867 42.7574C52.37 42.974 52.0764 43.0961 51.7701 43.097H36.2301C35.9237 43.0961 35.6302 42.974 35.4135 42.7574C35.1969 42.5407 35.0748 42.2471 35.0739 41.9408Z" fill="white"/>
<path d="M37.3862 31.2335V40.7842H50.6137V31.2335L44 24.6198L37.3862 31.2335Z" fill="white"/>
<path d="M38.3807 72.7316C38.6154 80.1563 49.3837 80.1581 49.6195 72.7317C49.3893 65.3214 38.612 65.3197 38.3807 72.7316Z" fill="white"/>
</svg>
