<svg width="92" height="92" viewBox="0 0 92 92" fill="none" xmlns="http://www.w3.org/2000/svg">
<path d="M0 0H92V92H0V0Z" fill="#D3AC4A"/>
<path d="M47.4701 46.887V40.8582C55.664 40.0614 61.9183 33.1906 61.9334 24.9667C61.9334 16.1564 54.792 9 45.9667 9C37.1564 9 30 16.1414 30 24.9667C30 33.2056 36.2694 40.0764 44.4632 40.8582V46.872C42.614 45.0679 40.1182 44.0605 37.5323 44.0756H34.0894V47.5786C34.0593 53.0061 38.4494 57.4413 43.8769 57.4563C43.9069 57.4563 43.922 57.4563 43.9521 57.4563H44.4632V63.5904C42.644 61.7863 40.1784 60.7639 37.6075 60.7639C37.5774 60.7639 37.5473 60.7489 37.5173 60.7489H34.0894V64.282C34.0894 69.7696 38.4795 74.28 43.9521 74.28H44.4632V79.9931H39.0207C38.1938 79.9931 37.5173 80.6696 37.5173 81.4965C37.5173 82.3234 38.1938 83 39.0207 83H52.9126C53.7395 83 54.4161 82.3234 54.4161 81.4965C54.4161 80.6696 53.7395 79.9931 52.9126 79.9931H47.4701V74.28H47.9813C53.4539 74.28 57.844 69.7696 57.844 64.282V60.7639H54.4011C51.8001 60.7639 49.3194 61.7863 47.4701 63.6054V57.4563H47.9813C53.4088 57.4713 57.8289 53.0813 57.844 47.6388C57.844 47.6087 57.844 47.5937 57.844 47.5636V44.0756H54.4011C51.8151 44.0605 49.3194 45.0829 47.4701 46.887ZM46.8387 33.6266L40.4189 27.5677C40.1182 27.282 39.9529 26.8911 39.9529 26.4701C39.9529 25.6432 40.6294 24.9817 41.4563 24.9817H44.0272C44.6587 24.9667 45.2601 24.7111 45.6961 24.2601C45.7412 24.215 45.7863 24.23 45.8314 24.0796H41.4714C40.6445 24.0796 39.9679 23.4031 39.9679 22.5762C39.9679 21.7493 40.6445 21.0727 41.4714 21.0727H45.8314C45.3653 20.5916 44.7188 20.321 44.0423 20.321H41.4714C40.6445 20.321 39.9679 19.6445 39.9679 18.8176C39.9679 17.9907 40.6445 17.3141 41.4714 17.3141H50.4319C51.2588 17.3141 51.9354 17.9907 51.9354 18.8176C51.9354 19.6445 51.2739 20.321 50.4019 20.336H48.8232C48.9586 20.5766 49.0638 20.8322 49.154 21.0878H50.4169C51.2438 21.0878 51.9204 21.7643 51.9204 22.5912C51.9204 23.4181 51.2438 24.0947 50.4169 24.0947H49.154C48.9134 24.9667 48.4474 25.7635 47.8009 26.395C47.0642 27.1317 46.1321 27.6428 45.1097 27.8683L48.8984 31.4466C49.4998 32.0179 49.5299 32.9651 48.9586 33.5664C48.3872 34.1678 47.4401 34.1979 46.8387 33.6266Z" fill="white"/>
</svg>
