<svg width="92" height="92" viewBox="0 0 92 92" fill="none" xmlns="http://www.w3.org/2000/svg">
<path d="M0 0H92V92H0V0Z" fill="#D3AC4A"/>
<path d="M36.4841 73.7794C36.3916 73.8256 36.299 73.8719 36.195 73.9065C36.3568 73.8603 36.5072 73.7909 36.6459 73.71L36.4841 73.7794Z" fill="white"/>
<path d="M39.9991 68.0906C39.9953 68.208 40.0093 68.436 39.9875 68.5531C39.9875 68.4028 39.9991 68.2525 39.9991 68.0906Z" fill="white"/>
<path d="M77.3343 64.1825V69.7094C77.3343 73.4672 74.2819 76.5312 70.5241 76.5312C70.5163 76.5359 34.0775 76.5279 34.0676 76.5313C29.5928 76.4965 25.9622 72.8544 25.9622 68.3912V52.4234C25.9709 50.9856 28.1831 50.9583 28.1937 52.4235C28.1937 52.4234 28.1937 68.3912 28.1937 68.3912C28.1845 71.7095 30.999 74.4287 34.3334 74.2881H34.53L34.6918 74.265C34.9809 74.2442 35.2653 74.1925 35.5475 74.1147C35.7672 74.0684 35.9869 73.9991 36.195 73.9065C36.3568 73.8603 36.5072 73.7909 36.6459 73.71C36.6575 73.7216 36.6691 73.6984 36.6691 73.6984C38.5306 72.7965 39.8487 70.9465 39.9759 68.7612C39.9875 68.7496 39.9875 68.7266 39.9759 68.7034C39.9875 68.6456 39.9875 68.5994 39.9875 68.5531C40.0625 68.1504 39.8831 64.0588 40.0916 63.7431C40.1494 63.6159 40.2303 63.4887 40.3343 63.3963C40.531 63.1881 40.82 63.0609 41.1207 63.0609H68.0843V18.4065H39.8487C39.2244 18.4065 38.7272 17.8978 38.7272 17.285C38.7272 16.6722 39.2244 16.1634 39.8487 16.1634H69.1944C69.8187 16.1634 70.316 16.6722 70.316 17.285V63.0609H76.2244C76.8372 63.0609 77.3343 63.5697 77.3343 64.1825Z" fill="white"/>
<path d="M34.3334 74.2881H34.53L34.6918 74.265C34.5762 74.2766 34.4607 74.2881 34.3334 74.2881Z" fill="white"/>
<path d="M54.5794 47.2666V54.6087H56.8225V47.2666H54.5794Z" fill="white"/>
<path d="M65.7488 55.7303C65.7488 56.3431 65.2516 56.8519 64.6272 56.8519H61.9562C61.9216 56.8519 61.8753 56.8519 61.8406 56.8403H49.5613C49.5265 56.8519 49.4803 56.8519 49.4456 56.8519H46.7747C45.3122 56.8423 45.3021 54.6247 46.7747 54.6203C46.7747 54.6203 48.3356 54.6203 48.3356 54.6203V47.2666H50.5672V54.6087H60.8347V47.2666H63.0663V54.6203C64.028 54.6643 65.6976 54.2842 65.7488 55.7303Z" fill="white"/>
<path d="M54.5794 47.2666V54.6087H56.8225V47.2666H54.5794Z" fill="white"/>
<path d="M54.5794 47.2666V54.6087H56.8225V47.2666H54.5794Z" fill="white"/>
<path d="M65.6794 46.5381C65.5175 46.9775 65.1013 47.2666 64.6272 47.2666H46.7631C46.3006 47.2666 45.8844 46.9775 45.7225 46.5381C45.5606 46.0987 45.6878 45.6016 46.0462 45.3009L54.9725 37.6466C55.3887 37.2881 56.0131 37.2881 56.4294 37.6466L65.3556 45.3009C65.7141 45.6016 65.8412 46.0987 65.6794 46.5381Z" fill="white"/>
<path d="M37.3166 25.8066C38.8394 23.6446 37.919 20.3187 35.5938 19.1928C37.5825 14.4753 37.0391 12.845 36.4262 12.0356C35.0005 9.95652 30.4306 9.41763 28.4827 9.46881C27.0722 9.46875 22.32 9.65372 20.5278 12.0356C19.915 12.845 19.3715 14.4638 21.3603 19.1928C18.9848 20.352 18.1592 23.6513 19.6491 25.8066C11.4346 35.0699 12.7199 49.3792 28.4829 49.1048C44.2378 49.3774 45.5349 35.0691 37.3166 25.8066ZM35.2122 24.9394C35.1544 24.974 35.0966 25.0203 35.0503 25.0666C34.6225 25.4712 34.0443 25.7025 33.42 25.7025H23.5341C23.3838 25.7025 23.2334 25.6909 23.0831 25.6562C22.8643 25.6115 22.6277 25.5491 22.4356 25.425C22.424 25.4134 22.401 25.4134 22.3894 25.4018C22.3316 25.3672 22.2737 25.3325 22.2159 25.2978C22.1234 25.24 22.0425 25.1706 21.9616 25.1012C21.9384 25.0897 21.9153 25.0666 21.8922 25.0434C20.4606 23.8109 21.1853 21.195 23.0831 20.9272C23.3821 20.8451 33.5924 20.8465 33.8825 20.9272C35.7122 21.2061 36.4435 23.6538 35.2237 24.9278L35.2122 24.9394Z" fill="white"/>
<path d="M64.6272 22.8696V28.4544C64.6272 29.0672 64.13 29.5644 63.5172 29.5644H44.5315C43.9188 29.5644 43.4216 29.0672 43.4216 28.4544V22.8696C43.4216 22.2453 43.9188 21.7481 44.5315 21.7481H63.5172C64.13 21.7481 64.6272 22.2453 64.6272 22.8696Z" fill="white"/>
<path d="M63.5164 34.0335H57.9335C56.4748 34.028 56.4719 31.8061 57.9335 31.8004C57.9335 31.8004 63.5164 31.8004 63.5164 31.8004C64.975 31.8059 64.978 34.0279 63.5164 34.0335Z" fill="white"/>
</svg>
