<svg width="104" height="78" viewBox="0 0 104 78" fill="none" xmlns="http://www.w3.org/2000/svg">
<path d="M0 50C0 22.3858 22.3858 0 50 0H104V78H0V50Z" fill="#D3AC4A"/>
<path d="M70.3334 12H33.6666C31.6416 12 30 13.6416 30 15.6666V63.3334C30 65.3584 31.6416 67 33.6666 67H70.3334C72.3586 67 74 65.3584 74 63.3334V15.6666C74 13.6416 72.3584 12 70.3334 12ZM64.8334 61.5H39.1666C38.1541 61.5 37.3332 60.6791 37.3332 59.6666C37.3332 58.6541 38.1541 57.8332 39.1666 57.8332H64.8332C65.8457 57.8332 66.6666 58.6541 66.6666 59.6666C66.6666 60.6791 65.8459 61.5 64.8334 61.5ZM64.8334 54.1666H39.1666C38.1541 54.1666 37.3332 53.3457 37.3332 52.3332C37.3332 51.3207 38.1541 50.4998 39.1666 50.4998H64.8332C65.8457 50.4998 66.6666 51.3207 66.6666 52.3332C66.6666 53.3457 65.8459 54.1666 64.8334 54.1666ZM68.2709 30.3332C68.2709 32.3555 66.6264 33.9998 64.6043 33.9998H61.8543C60.5968 33.9998 59.4867 33.3629 58.8258 32.3957H57.0418V41.7916C57.0418 44.572 54.7806 46.8332 52.0002 46.8332C49.2197 46.8332 46.9586 44.572 46.9586 41.7916V32.3957H45.1745C44.5138 33.363 43.4037 33.9998 42.1461 33.9998H39.3961C37.3738 33.9998 35.7295 32.3553 35.7295 30.3332V21.1666C35.7295 19.1443 37.374 17.5 39.3961 17.5H42.1461C43.4035 17.5 44.5136 18.137 45.1745 19.1041H58.826C59.4867 18.1368 60.5968 17.5 61.8545 17.5H64.6045C66.6267 17.5 68.2711 19.1445 68.2711 21.1666L68.2709 30.3332Z" fill="#37405E"/>
<path d="M50.625 41.7916C50.625 42.5497 51.2419 43.1666 52 43.1666C52.7581 43.1666 53.375 42.5497 53.375 41.7916V32.3957H50.625V41.7916Z" fill="#37405E"/>
<path d="M58.1875 28.7291V22.7709H45.8125V28.7291H58.1875Z" fill="#37405E"/>
<path d="M39.3964 21.1661H42.1464V30.3322H39.3964V21.1661Z" fill="#37405E"/>
<path d="M61.8536 21.1661H64.6053V30.3322H61.8536V21.1661Z" fill="#37405E"/>
</svg>
