<svg width="104" height="78" viewBox="0 0 104 78" fill="none" xmlns="http://www.w3.org/2000/svg">
<path d="M0 50C0 22.3858 22.3858 0 50 0H104V78H0V50Z" fill="#D3AC4A"/>
<path d="M58.563 55.6974C59.6676 55.6974 60.563 54.8019 60.563 53.6974C60.563 52.5928 59.6676 51.6974 58.563 51.6974C57.4584 51.6974 56.563 52.5928 56.563 53.6974C56.563 54.8019 57.4584 55.6974 58.563 55.6974Z" fill="#37405E"/>
<path d="M44.563 54.6974C45.6676 54.6974 46.563 53.8019 46.563 52.6974C46.563 51.5928 45.6676 50.6974 44.563 50.6974C43.4584 50.6974 42.563 51.5928 42.563 52.6974C42.563 53.8019 43.4584 54.6974 44.563 54.6974Z" fill="#37405E"/>
<path d="M38.563 37.6974V59.6974C38.563 60.2278 38.7737 60.7365 39.1488 61.1116C39.5238 61.4867 40.0326 61.6974 40.563 61.6974H62.563C63.0934 61.6974 63.6021 61.4867 63.9772 61.1116C64.3523 60.7365 64.563 60.2278 64.563 59.6974V37.6974C64.563 37.1669 64.3523 36.6582 63.9772 36.2832C63.6021 35.9081 63.0934 35.6974 62.563 35.6974H40.563C40.0326 35.6974 39.5238 35.9081 39.1488 36.2832C38.7737 36.6582 38.563 37.1669 38.563 37.6974ZM57.563 49.8394V38.6974C57.563 38.4322 57.6684 38.1778 57.8559 37.9903C58.0434 37.8027 58.2978 37.6974 58.563 37.6974C58.8282 37.6974 59.0826 37.8027 59.2701 37.9903C59.4576 38.1778 59.563 38.4322 59.563 38.6974V49.8394C60.4206 50.0576 61.181 50.5554 61.7241 51.2541C62.2672 51.9528 62.5621 52.8125 62.5621 53.6974C62.5621 54.5823 62.2672 55.442 61.7241 56.1407C61.181 56.8393 60.4206 57.3371 59.563 57.5554V58.6974C59.563 58.9626 59.4576 59.2169 59.2701 59.4045C59.0826 59.592 58.8282 59.6974 58.563 59.6974C58.2978 59.6974 58.0434 59.592 57.8559 59.4045C57.6684 59.2169 57.563 58.9626 57.563 58.6974V57.5554C56.7054 57.3371 55.945 56.8393 55.4019 56.1407C54.8588 55.442 54.5639 54.5823 54.5639 53.6974C54.5639 52.8125 54.8588 51.9528 55.4019 51.2541C55.945 50.5554 56.7054 50.0576 57.563 49.8394ZM50.563 40.8394V38.6974C50.563 38.4322 50.6683 38.1778 50.8559 37.9903C51.0434 37.8027 51.2978 37.6974 51.563 37.6974C51.8282 37.6974 52.0826 37.8027 52.2701 37.9903C52.4576 38.1778 52.563 38.4322 52.563 38.6974V40.8394C53.4206 41.0576 54.181 41.5554 54.7241 42.2541C55.2672 42.9528 55.5621 43.8125 55.5621 44.6974C55.5621 45.5823 55.2672 46.442 54.7241 47.1407C54.181 47.8393 53.4206 48.3371 52.563 48.5554V58.6974C52.563 58.9626 52.4576 59.2169 52.2701 59.4045C52.0826 59.592 51.8282 59.6974 51.563 59.6974C51.2978 59.6974 51.0434 59.592 50.8559 59.4045C50.6683 59.2169 50.563 58.9626 50.563 58.6974V48.5554C49.7054 48.3371 48.945 47.8393 48.4019 47.1407C47.8588 46.442 47.5639 45.5823 47.5639 44.6974C47.5639 43.8125 47.8588 42.9528 48.4019 42.2541C48.945 41.5554 49.7054 41.0576 50.563 40.8394ZM43.563 48.8394V38.6974C43.563 38.4322 43.6683 38.1778 43.8559 37.9903C44.0434 37.8027 44.2978 37.6974 44.563 37.6974C44.8282 37.6974 45.0826 37.8027 45.2701 37.9903C45.4576 38.1778 45.563 38.4322 45.563 38.6974V48.8394C46.4206 49.0576 47.181 49.5554 47.7241 50.2541C48.2672 50.9528 48.5621 51.8125 48.5621 52.6974C48.5621 53.5823 48.2672 54.442 47.7241 55.1407C47.181 55.8393 46.4206 56.3371 45.563 56.5554V58.6974C45.563 58.9626 45.4576 59.2169 45.2701 59.4045C45.0826 59.592 44.8282 59.6974 44.563 59.6974C44.2978 59.6974 44.0434 59.592 43.8559 59.4045C43.6683 59.2169 43.563 58.9626 43.563 58.6974V56.5554C42.7054 56.3371 41.945 55.8393 41.4019 55.1407C40.8588 54.442 40.5639 53.5823 40.5639 52.6974C40.5639 51.8125 40.8588 50.9528 41.4019 50.2541C41.945 49.5554 42.7054 49.0576 43.563 48.8394Z" fill="#37405E"/>
<path d="M51.563 46.6974C52.6676 46.6974 53.563 45.8019 53.563 44.6974C53.563 43.5928 52.6676 42.6974 51.563 42.6974C50.4584 42.6974 49.563 43.5928 49.563 44.6974C49.563 45.8019 50.4584 46.6974 51.563 46.6974Z" fill="#37405E"/>
<path d="M29.563 36.4604V65.6974C29.563 65.9626 29.6683 66.2169 29.8559 66.4045C30.0434 66.592 30.2978 66.6974 30.563 66.6974H72.563C72.8282 66.6974 73.0826 66.592 73.2701 66.4045C73.4576 66.2169 73.563 65.9626 73.563 65.6974V36.4604L51.563 18.2104L29.563 36.4604ZM66.563 37.6974V59.6974C66.563 60.7582 66.1416 61.7757 65.3914 62.5258C64.6413 63.2759 63.6239 63.6974 62.563 63.6974H40.563C39.5021 63.6974 38.4847 63.2759 37.7346 62.5258C36.9844 61.7757 36.563 60.7582 36.563 59.6974V37.6974C36.563 36.6365 36.9844 35.6191 37.7346 34.8689C38.4847 34.1188 39.5021 33.6974 40.563 33.6974H62.563C63.6239 33.6974 64.6413 34.1188 65.3914 34.8689C66.1416 35.6191 66.563 36.6365 66.563 37.6974Z" fill="#37405E"/>
<path d="M24.248 34.6894L25.416 36.0204C25.5878 36.2161 25.8291 36.3371 26.0887 36.3576C26.3482 36.3781 26.6056 36.2966 26.806 36.1304L50.924 16.1414C51.1035 15.9922 51.3296 15.9106 51.563 15.9106C51.7964 15.9106 52.0224 15.9922 52.202 16.1414L76.313 36.1414C76.5128 36.3075 76.7694 36.3893 77.0285 36.3695C77.2875 36.3498 77.5287 36.2299 77.701 36.0354L78.875 34.7094C78.9639 34.609 79.0318 34.4918 79.0745 34.3647C79.1172 34.2376 79.1339 34.1033 79.1237 33.9696C79.1134 33.8359 79.0764 33.7056 79.0148 33.5865C78.9531 33.4674 78.8682 33.362 78.765 33.2764L52.211 11.2304C52.0315 11.0815 51.8057 11 51.5725 11C51.3393 11 51.1135 11.0815 50.934 11.2304L24.363 33.2594C24.2599 33.3446 24.1749 33.4496 24.1131 33.5683C24.0513 33.6869 24.0139 33.8167 24.0032 33.9501C23.9925 34.0834 24.0086 34.2175 24.0507 34.3445C24.0927 34.4715 24.1598 34.5888 24.248 34.6894Z" fill="#37405E"/>
<path d="M72.563 16.6974H69.563C69.2978 16.6974 69.0434 16.8027 68.8559 16.9903C68.6683 17.1778 68.563 17.4322 68.563 17.6974V22.1974L73.563 26.3454V17.6974C73.563 17.4322 73.4576 17.1778 73.2701 16.9903C73.0826 16.8027 72.8282 16.6974 72.563 16.6974Z" fill="#37405E"/>
</svg>
