<svg width="74" height="74" viewBox="0 0 74 74" fill="none" xmlns="http://www.w3.org/2000/svg">
<path d="M17.5704 28.0383C16.1324 28.4683 14.8713 29.3506 13.9744 30.5541C13.0775 31.7575 12.5925 33.2181 12.5913 34.7191V36.5558L0.358504 25.9741C0.255483 25.8851 0.171024 25.7767 0.109965 25.655C0.0489056 25.5334 0.0124451 25.4009 0.00267138 25.2651C-0.00710235 25.1293 0.0100027 24.993 0.0530069 24.8638C0.0960112 24.7347 0.16407 24.6153 0.253286 24.5125L21.1381 0.358539C21.227 0.255519 21.3355 0.171061 21.4571 0.109998C21.5788 0.0489343 21.7113 0.0124656 21.8471 0.00267892C21.9829 -0.00710775 22.1192 0.00997969 22.2484 0.0529633C22.3776 0.095947 22.497 0.163983 22.5998 0.253176L28.3584 5.23228L13.6529 11.9342C12.9021 12.2795 12.3185 12.9079 12.0297 13.6822C11.7409 14.4566 11.7703 15.3137 12.1116 16.0663L17.5704 28.0383ZM14.0067 15.2031L19.7273 27.7484H27.7392C28.0694 27.7492 28.399 27.776 28.7249 27.8283V11.1001C28.7251 10.2722 29.0541 9.47824 29.6395 8.89281C30.2249 8.30739 31.0189 7.97842 31.8468 7.97823H48.0855L44.9426 1.09565C44.8863 0.971687 44.8061 0.860048 44.7066 0.767119C44.607 0.674189 44.4902 0.601793 44.3626 0.554071C44.2351 0.506349 44.0994 0.484239 43.9634 0.489004C43.8273 0.493769 43.6935 0.525315 43.5696 0.58184L14.5165 13.8297C14.3927 13.8863 14.2814 13.9667 14.1887 14.0664C14.0961 14.1661 14.024 14.2831 13.9767 14.4106C13.9293 14.5382 13.9076 14.6739 13.9128 14.8098C13.9179 14.9458 13.9499 15.0794 14.0067 15.2031ZM57.3398 18.3582H64.2102L56.5184 10.6704V17.5367C56.5199 17.7541 56.6069 17.9621 56.7606 18.1159C56.9143 18.2696 57.1224 18.3567 57.3398 18.3582ZM54.4417 10.0596V17.5367C54.4411 17.9176 54.5156 18.2949 54.661 18.6471C54.8064 18.9992 55.0198 19.3192 55.2889 19.5887C55.5581 19.8583 55.8778 20.0722 56.2297 20.2181C56.5816 20.364 56.9589 20.439 57.3398 20.439H64.8168V34.5464C63.2392 34.7631 61.7375 35.3586 60.4401 36.2819H39.3107C39.2743 36.2663 39.2391 36.2479 39.2053 36.2271C38.862 35.9787 38.5433 35.698 38.2534 35.3889L37.3082 34.4663H58.6751C58.9511 34.4663 59.2158 34.3567 59.411 34.1615C59.6061 33.9664 59.7158 33.7017 59.7158 33.4257C59.7158 33.1497 59.6061 32.885 59.411 32.6899C59.2158 32.4947 58.9511 32.3851 58.6751 32.3851H36.9476C36.7219 32.3857 36.5025 32.4594 36.3224 32.5953C36.1422 32.7312 36.0109 32.9218 35.9483 33.1387L33.1606 30.4183C32.5556 29.7956 31.8847 29.2405 31.1597 28.7628C31.0418 28.6906 30.9238 28.6238 30.8059 28.5564V11.1001C30.8064 10.8243 30.9162 10.5599 31.1113 10.3649C31.3063 10.1698 31.5707 10.06 31.8465 10.0595L54.4417 10.0596ZM35.9071 18.2444C35.9071 18.5204 36.0168 18.7851 36.2119 18.9803C36.4071 19.1754 36.6718 19.2851 36.9477 19.2851H50.7096C50.9856 19.2851 51.2503 19.1754 51.4454 18.9803C51.6406 18.7851 51.7502 18.5204 51.7502 18.2444C51.7502 17.9684 51.6406 17.7037 51.4454 17.5086C51.2503 17.3134 50.9856 17.2038 50.7096 17.2038H36.9476C36.6718 17.2044 36.4075 17.3142 36.2125 17.5092C36.0174 17.7043 35.9077 17.9686 35.9071 18.2444ZM59.7156 28.3668C59.7156 28.0908 59.606 27.8261 59.4108 27.631C59.2157 27.4358 58.951 27.3262 58.675 27.3262H36.9476C36.6716 27.3262 36.4069 27.4358 36.2118 27.631C36.0166 27.8261 35.907 28.0908 35.907 28.3668C35.907 28.6428 36.0166 28.9075 36.2118 29.1026C36.4069 29.2978 36.6716 29.4074 36.9476 29.4074H58.6751C58.9511 29.4074 59.2157 29.2977 59.4109 29.1026C59.606 28.9074 59.7156 28.6428 59.7156 28.3668ZM36.9476 22.2676C36.6716 22.2676 36.4069 22.3772 36.2118 22.5724C36.0166 22.7675 35.907 23.0322 35.907 23.3082C35.907 23.5842 36.0166 23.8489 36.2118 24.0441C36.4069 24.2392 36.6716 24.3488 36.9476 24.3488H58.6751C58.9511 24.3488 59.2158 24.2392 59.411 24.0441C59.6061 23.8489 59.7158 23.5842 59.7158 23.3082C59.7158 23.0322 59.6061 22.7675 59.411 22.5724C59.2158 22.3772 58.9511 22.2676 58.6751 22.2676H36.9476ZM73.9999 44.3614C73.9992 46.1713 73.3709 47.925 72.2222 49.3236C71.0735 50.7223 69.4753 51.6794 67.7001 52.032C65.9248 52.3845 64.0822 52.1107 62.4863 51.257C60.8903 50.4034 59.6396 49.0229 58.9473 47.3506C58.255 45.6783 58.164 43.8177 58.6896 42.0858C59.2153 40.3539 60.3252 38.8578 61.8302 37.8524C63.3352 36.847 65.1422 36.3945 66.9434 36.572C68.7446 36.7495 70.4286 37.546 71.7084 38.8258C72.4361 39.5521 73.0131 40.415 73.4063 41.365C73.7996 42.315 74.0013 43.3332 73.9999 44.3614ZM71.4725 40.4311C71.3763 40.334 71.2618 40.257 71.1356 40.2044C71.0095 40.1518 70.8741 40.1247 70.7374 40.1247C70.6007 40.1247 70.4654 40.1518 70.3392 40.2044C70.213 40.257 70.0985 40.334 70.0023 40.4311L64.3409 46.0884L62.3484 44.0918C62.1529 43.8969 61.888 43.7875 61.6119 43.7879C61.3358 43.7883 61.0712 43.8983 60.8762 44.0938C60.6812 44.2893 60.5719 44.5543 60.5723 44.8304C60.5727 45.1064 60.6827 45.3711 60.8782 45.566L63.6081 48.2957C63.8034 48.49 64.0677 48.599 64.3431 48.599C64.6186 48.599 64.8829 48.49 65.0781 48.2957L71.4726 41.9013C71.6669 41.7059 71.7759 41.4417 71.7758 41.1662C71.7758 40.8907 71.6668 40.6264 71.4725 40.4311ZM66.1733 54.269C67.3188 54.2696 68.4559 54.073 69.5348 53.6877V63.3256C69.5302 64.842 68.9255 66.2949 67.8528 67.3668C66.7802 68.4387 65.3269 69.0424 63.8105 69.046H20.397C18.8806 69.0425 17.4271 68.4389 16.3544 67.367C15.2817 66.2951 14.6769 64.8421 14.6723 63.3256V34.7191C14.6741 33.4233 15.1894 32.181 16.1052 31.2644C17.0211 30.3477 18.263 29.8314 19.5588 29.8285H27.7392C28.5616 29.8325 29.365 30.0754 30.0517 30.5278C30.6527 30.9244 31.2079 31.3864 31.7072 31.9052L36.8 36.8801C37.1953 37.2922 37.6311 37.6634 38.1008 37.988C38.4616 38.2284 38.8846 38.3587 39.3182 38.3629H58.2918C57.1739 39.8314 56.4884 41.5831 56.3128 43.4203C56.1371 45.2576 56.4783 47.1074 57.2977 48.7611C58.1171 50.4149 59.3823 51.8068 60.9505 52.78C62.5187 53.7532 64.3276 54.2689 66.1733 54.269ZM21.2819 54.4037C21.2819 54.6797 21.3915 54.9444 21.5867 55.1395C21.7818 55.3347 22.0465 55.4443 22.3225 55.4443H32.466C32.742 55.4443 33.0067 55.3347 33.2018 55.1395C33.397 54.9444 33.5066 54.6797 33.5066 54.4037C33.5066 54.1277 33.397 53.863 33.2018 53.6679C33.0067 53.4727 32.742 53.3631 32.466 53.3631H22.3221C22.1853 53.3626 22.0498 53.3893 21.9233 53.4414C21.7969 53.4936 21.682 53.5702 21.5853 53.6669C21.4886 53.7636 21.412 53.8785 21.3599 54.005C21.3077 54.1314 21.2814 54.2669 21.2819 54.4037ZM62.9258 61.5146C62.9258 61.2386 62.8162 60.9739 62.621 60.7788C62.4258 60.5836 62.1612 60.474 61.8852 60.474H22.3221C22.0467 60.474 21.7826 60.5834 21.5879 60.7781C21.3931 60.9728 21.2837 61.2369 21.2837 61.5123C21.2837 61.7877 21.3931 62.0518 21.5879 62.2465C21.7826 62.4412 22.0467 62.5506 22.3221 62.5506H61.885C62.1604 62.551 62.4246 62.442 62.6197 62.2477C62.8148 62.0534 62.9251 61.79 62.9258 61.5146Z" fill="#D3AC4A"/>
</svg>
