<svg width="104" height="78" viewBox="0 0 104 78" fill="none" xmlns="http://www.w3.org/2000/svg">
<path d="M0 50C0 22.3858 22.3858 0 50 0H104V78H0V50Z" fill="#D3AC4A"/>
<path fill-rule="evenodd" clip-rule="evenodd" d="M47.625 66.5C45.59 66.5 42.325 66.5 40.5013 66.4213C39.285 66.415 38.19 65.6838 37.7113 64.5625C37.15 63.5338 35.8938 62.5138 34.5175 61.545C32.14 59.8738 29.3613 58.4288 28.2388 57.6538C27.4413 57.1025 26.7238 56.0537 26.175 54.695C25.0975 52.0262 24.5625 48.085 24.5025 45.565C24.4563 43.5975 25.0963 42.5863 25.795 42.0613C26.9025 41.2275 28.5063 41.5175 29.4463 41.9237C29.7513 42.0562 30.04 42.29 30.265 42.67C30.4813 43.0338 30.6575 43.6437 30.7775 44.425C30.9225 45.3712 31.025 46.6412 31.2838 47.91C31.5063 49.0025 31.8325 50.1038 32.4825 50.9138C33.2888 51.9163 34.97 52.995 36.6738 53.9588C36.95 54.115 37.2275 54.2675 37.5013 54.4137C36.7175 53.0062 36.11 51.4375 36.0163 49.925C35.9263 48.4625 36.3388 47.5488 36.8575 46.9875C37.7 46.0738 38.9638 45.94 39.9738 46.245C40.7263 46.4712 41.2975 46.9462 41.545 47.3762C41.98 48.1312 44.36 52.3725 47.5163 54.3313C48.6725 55.0488 49.475 56.275 49.9725 57.7188C50.6163 59.5863 50.7588 61.8175 50.75 63.3938C50.74 65.1125 49.3438 66.5 47.625 66.5ZM56.3763 66.5C54.6575 66.5 53.2613 65.1125 53.25 63.3938C53.2425 61.8175 53.3838 59.5863 54.0288 57.7188C54.5263 56.275 55.3275 55.0488 56.485 54.3313C59.6413 52.3725 62.0213 48.1312 62.4563 47.3762C62.6763 46.9937 63.14 46.5775 63.7713 46.3325C64.5575 46.0275 65.5825 45.9862 66.4188 46.4287C67.2888 46.8887 68.1113 47.88 67.985 49.925C67.8913 51.4375 67.2825 53.0075 66.4975 54.4163C66.7725 54.2675 67.05 54.115 67.3263 53.9588C69.0313 52.995 70.7125 51.9163 71.5188 50.9138C72.1688 50.1038 72.495 49.0025 72.7175 47.91C72.975 46.6412 73.0788 45.3712 73.2238 44.425C73.3438 43.6437 73.52 43.0338 73.7363 42.67C73.9613 42.29 74.25 42.0562 74.555 41.9237C75.4938 41.5175 77.0975 41.2275 78.2063 42.0613C78.905 42.5863 79.545 43.5975 79.4988 45.565C79.4388 48.085 78.9038 52.0262 77.8263 54.695C77.2775 56.0537 76.56 57.1025 75.7613 57.6538C74.6388 58.4288 71.86 59.8738 69.4838 61.545C68.1025 62.5163 66.8438 63.54 66.2838 64.5725C65.81 65.6825 64.7225 66.4088 63.5175 66.4213C61.6825 66.5 58.4125 66.5 56.3763 66.5ZM39.9813 40.115C35.3388 40.5375 30.0375 39.9187 27.16 38.3462C25.4375 37.4037 24.4988 36.1 24.4988 34.6087C24.4988 29.59 27.8025 25.275 32.4763 23.5512C31.035 22.29 30.1238 20.4388 30.1238 18.375C30.1238 14.58 33.205 11.5 36.9988 11.5C40.7938 11.5 43.8738 14.58 43.8738 18.375C43.8738 20.4388 42.9638 22.2912 41.5213 23.5512C43.7138 24.36 45.6063 25.7375 46.995 27.49C47.1538 27.4237 47.3138 27.36 47.4763 27.3012C46.035 26.04 45.1238 24.1888 45.1238 22.125C45.1238 18.33 48.205 15.25 51.9988 15.25C55.7938 15.25 58.8738 18.33 58.8738 22.125C58.8738 24.1888 57.9638 26.04 56.5225 27.3012C56.685 27.3612 56.845 27.4237 57.0038 27.49C58.3925 25.7387 60.285 24.36 62.4775 23.5512C61.0363 22.2912 60.125 20.4388 60.125 18.375C60.125 14.58 63.205 11.5 67 11.5C70.795 11.5 73.875 14.58 73.875 18.375C73.875 20.4388 72.9638 22.29 71.5225 23.5512C76.1975 25.275 79.5 29.59 79.5 34.6087C79.5 36.1 78.5625 37.4037 76.8388 38.3462C73.9613 39.9187 68.66 40.5375 64.0163 40.115C63.52 40.9675 62.6513 41.71 61.4575 42.2925C59.1638 43.4125 55.5838 44 51.9988 44C48.415 44 44.835 43.4125 42.5413 42.2925C41.3463 41.71 40.4775 40.9675 39.9813 40.115ZM67 22.75C69.415 22.75 71.375 20.79 71.375 18.375C71.375 15.96 69.415 14 67 14C64.585 14 62.625 15.96 62.625 18.375C62.625 20.79 64.585 22.75 67 22.75ZM51.9988 29C50.2475 29 48.5975 29.4237 47.1625 30.1675C44.0925 31.76 41.9988 34.825 41.9988 38.3587C41.9988 38.42 42.005 38.48 42.0163 38.5388C42.02 38.5625 42.0238 38.5862 42.0275 38.6112C42.1675 39.2237 42.8188 39.6463 43.6375 40.0463C45.6638 41.0338 48.8338 41.5 51.9988 41.5C55.165 41.5 58.335 41.0338 60.3613 40.0463C61.1788 39.6463 61.8313 39.2237 61.9713 38.61C61.9738 38.5862 61.9775 38.5625 61.9825 38.5375C61.9938 38.48 61.9988 38.42 61.9988 38.3587C61.9988 34.8263 59.9063 31.76 56.8363 30.1675C55.4013 29.4237 53.7513 29 51.9988 29ZM36.9988 22.75C39.4138 22.75 41.3738 20.79 41.3738 18.375C41.3738 15.96 39.4138 14 36.9988 14C34.585 14 32.6238 15.96 32.6238 18.375C32.6238 20.79 34.585 22.75 36.9988 22.75Z" fill="#37405E"/>
</svg>
