<svg width="104" height="78" viewBox="0 0 104 78" fill="none" xmlns="http://www.w3.org/2000/svg">
<path d="M0 50C0 22.3858 22.3858 0 50 0H104V78H0V50Z" fill="#D3AC4A"/>
<path d="M52 29.2941C51.649 29.2941 51.3123 29.1547 51.0641 28.9065C50.8159 28.6583 50.6765 28.3216 50.6765 27.9706V26.7794C50.6765 26.4284 50.8159 26.0917 51.0641 25.8435C51.3123 25.5953 51.649 25.4559 52 25.4559C52.351 25.4559 52.6877 25.5953 52.9359 25.8435C53.1841 26.0917 53.3235 26.4284 53.3235 26.7794V27.9706C53.3235 28.1444 53.2893 28.3165 53.2228 28.4771C53.1563 28.6377 53.0588 28.7836 52.9359 28.9065C52.813 29.0294 52.6671 29.1269 52.5065 29.1934C52.3459 29.2599 52.1738 29.2941 52 29.2941Z" fill="#37405E"/>
<path d="M60.8235 17.8235H59.6324C59.4723 17.7902 59.3071 17.7902 59.1471 17.8235C58.9581 16.7525 58.5364 15.7359 57.9118 14.8456C58.0564 14.8313 58.1979 14.7941 58.3309 14.7353L59.7206 13.3456C59.9692 13.0969 60.1089 12.7597 60.1089 12.4081C60.1089 12.0565 59.9692 11.7192 59.7206 11.4706C59.472 11.2219 59.1347 11.0823 58.7831 11.0823C58.4315 11.0823 58.0942 11.2219 57.8456 11.4706L56.4118 12.8162C56.2987 12.9386 56.209 13.0806 56.1471 13.2353C55.2567 12.6106 54.2402 12.189 53.1691 12C53.2396 11.8478 53.2772 11.6824 53.2794 11.5147V10.3235C53.2794 9.97251 53.14 9.63586 52.8918 9.38765C52.6436 9.13944 52.3069 9 51.9559 9C51.6049 9 51.2682 9.13944 51.02 9.38765C50.7718 9.63586 50.6324 9.97251 50.6324 10.3235V11.5147C50.5991 11.6748 50.5991 11.8399 50.6324 12C49.5613 12.189 48.5447 12.6106 47.6544 13.2353C47.6543 13.093 47.632 12.9516 47.5882 12.8162L46.1985 11.4265C46.0754 11.3034 45.9293 11.2057 45.7684 11.1391C45.6075 11.0724 45.4351 11.0381 45.261 11.0381C45.0869 11.0381 44.9145 11.0724 44.7537 11.1391C44.5928 11.2057 44.4466 11.3034 44.3235 11.4265C44.2004 11.5496 44.1028 11.6957 44.0361 11.8566C43.9695 12.0175 43.9352 12.1899 43.9352 12.364C43.9352 12.5381 43.9695 12.7105 44.0361 12.8713C44.1028 13.0322 44.2004 13.1784 44.3235 13.3015L45.7132 14.6912C45.8356 14.8042 45.9777 14.8939 46.1324 14.9559C45.5077 15.8462 45.086 16.8628 44.8971 17.9338C44.737 17.9005 44.5718 17.9005 44.4118 17.9338H43.1765C42.8254 17.9338 42.4888 18.0733 42.2406 18.3215C41.9924 18.5697 41.8529 18.9063 41.8529 19.2574C41.8529 19.6084 41.9924 19.945 42.2406 20.1932C42.4888 20.4414 42.8254 20.5809 43.1765 20.5809H44.3676C44.5277 20.6142 44.6929 20.6142 44.8529 20.5809C45.0419 21.6519 45.4636 22.6685 46.0882 23.5588C45.9336 23.6208 45.7915 23.7105 45.6691 23.8235L44.2794 25.2132C44.1206 25.4027 44.0171 25.6322 43.9802 25.8766C43.9432 26.1209 43.9743 26.3708 44.07 26.5987C44.1658 26.8266 44.3224 27.0237 44.5228 27.1684C44.7231 27.3131 44.9595 27.3999 45.2059 27.4191C45.3825 27.4196 45.5574 27.3847 45.7203 27.3165C45.8832 27.2483 46.0308 27.1482 46.1544 27.0221L47.5882 25.4779C47.7013 25.3555 47.791 25.2135 47.8529 25.0588C49.0748 25.9352 50.5405 26.4065 52.0441 26.4065C53.5477 26.4065 55.0135 25.9352 56.2353 25.0588C56.2973 25.2135 56.387 25.3555 56.5 25.4779L57.8897 26.8676C58.0111 26.9937 58.1567 27.094 58.3178 27.1626C58.4789 27.2311 58.6522 27.2664 58.8272 27.2664C59.0023 27.2664 59.1755 27.2311 59.3366 27.1626C59.4977 27.094 59.6433 26.9937 59.7647 26.8676C59.8908 26.7462 59.9911 26.6006 60.0596 26.4395C60.1281 26.2785 60.1635 26.1052 60.1635 25.9301C60.1635 25.7551 60.1281 25.5818 60.0596 25.4208C59.9911 25.2597 59.8908 25.1141 59.7647 24.9926L58.3309 23.5588C58.2085 23.4458 58.0664 23.3561 57.9118 23.2941C58.5364 22.4038 58.9581 21.3872 59.1471 20.3162C59.3071 20.3495 59.4723 20.3495 59.6324 20.3162H60.8235C61.1746 20.3162 61.5112 20.1767 61.7594 19.9285C62.0076 19.6803 62.1471 19.3437 62.1471 18.9926C62.1471 18.6416 62.0076 18.305 61.7594 18.0568C61.5112 17.8086 61.1746 17.6691 60.8235 17.6691V17.8235Z" fill="#37405E"/>
<path d="M67.4412 69H36.5588C36.2078 69 35.8712 68.8606 35.6229 68.6124C35.3747 68.3641 35.2353 68.0275 35.2353 67.6765C35.2353 67.3254 35.3747 66.9888 35.6229 66.7406C35.8712 66.4924 36.2078 66.3529 36.5588 66.3529H67.4412C67.7922 66.3529 68.1288 66.4924 68.3771 66.7406C68.6253 66.9888 68.7647 67.3254 68.7647 67.6765C68.7647 68.0275 68.6253 68.3641 68.3771 68.6124C68.1288 68.8606 67.7922 69 67.4412 69Z" fill="#37405E"/>
<path d="M80.6765 61.9412H73.1765V49.0368C78.1397 48.5294 82 45.2206 82 41.2059C81.9611 40.0147 81.6311 38.8511 81.039 37.8168C80.4468 36.7824 79.6105 35.9088 78.6029 35.2721C79.3668 34.1779 79.782 32.8784 79.7941 31.5441C79.6746 29.5522 78.773 27.6882 77.2857 26.3579C75.7984 25.0276 73.8458 24.3387 71.8529 24.4412C69.8601 24.3387 67.9075 25.0276 66.4202 26.3579C64.9329 27.6882 64.0313 29.5522 63.9118 31.5441C63.9239 32.8784 64.3391 34.1779 65.1029 35.2721C64.0954 35.9088 63.2591 36.7824 62.6669 37.8168C62.0748 38.8511 61.7448 40.0147 61.7059 41.2059C61.7059 45.2206 65.5662 48.5294 70.5294 49.0368V61.9412H53.3235V53.5809C54.8903 53.496 56.376 52.8572 57.5154 51.7784C58.6548 50.6996 59.3738 49.251 59.5441 47.6912C59.5255 46.8572 59.3172 46.0384 58.935 45.2969C58.5528 44.5554 58.0068 43.9107 57.3382 43.4118C57.7987 42.6456 58.0426 41.7689 58.0441 40.875C57.9587 39.357 57.2741 37.9351 56.1408 36.9217C55.0074 35.9083 53.518 35.3863 52 35.4706C50.4894 35.3984 49.0114 35.9257 47.8877 36.9379C46.764 37.9501 46.0855 39.3651 46 40.875C46.0015 41.7689 46.2455 42.6456 46.7059 43.4118C46.0374 43.9107 45.4913 44.5554 45.1091 45.2969C44.7269 46.0384 44.5186 46.8572 44.5 47.6912C44.6703 49.251 45.3893 50.6996 46.5287 51.7784C47.6681 52.8572 49.1538 53.496 50.7206 53.5809V61.9412H33.4706V49.0368C38.4338 48.5294 42.2941 45.2206 42.2941 41.2059C42.2552 40.0147 41.9252 38.8511 41.3331 37.8168C40.7409 36.7824 39.9046 35.9088 38.8971 35.2721C39.6609 34.1779 40.0761 32.8784 40.0882 31.5441C39.9687 29.5522 39.0671 27.6882 37.5798 26.3579C36.0925 25.0276 34.1399 24.3387 32.1471 24.4412C30.1542 24.3387 28.2016 25.0276 26.7143 26.3579C25.227 27.6882 24.3254 29.5522 24.2059 31.5441C24.218 32.8784 24.6332 34.1779 25.3971 35.2721C24.3895 35.9088 23.5532 36.7824 22.961 37.8168C22.3689 38.8511 22.0389 40.0147 22 41.2059C22 45.2206 25.8603 48.5294 30.8235 49.0368V61.9412H23.3235C22.9725 61.9412 22.6359 62.0806 22.3877 62.3288C22.1394 62.577 22 62.9137 22 63.2647C22 63.6157 22.1394 63.9524 22.3877 64.2006C22.6359 64.4488 22.9725 64.5882 23.3235 64.5882H80.6765C81.0275 64.5882 81.3641 64.4488 81.6124 64.2006C81.8606 63.9524 82 63.6157 82 63.2647C82 62.9137 81.8606 62.577 81.6124 62.3288C81.3641 62.0806 81.0275 61.9412 80.6765 61.9412Z" fill="#37405E"/>
</svg>
