<svg width="74" height="74" viewBox="0 0 74 74" fill="none" xmlns="http://www.w3.org/2000/svg">
<path d="M66.8594 67.4375H7.89063C7.5872 67.4424 7.29786 67.5664 7.08502 67.7827C6.87218 67.999 6.7529 68.2903 6.75291 68.5938C6.75292 68.8973 6.87221 69.1886 7.08507 69.4049C7.29792 69.6212 7.58727 69.7451 7.8907 69.75H66.8594C67.1628 69.7451 67.4521 69.6212 67.665 69.4048C67.8778 69.1885 67.9971 68.8972 67.9971 68.5938C67.9971 68.2903 67.8778 67.999 67.665 67.7827C67.4521 67.5664 67.1628 67.4424 66.8594 67.4375Z" fill="#D3AC4A"/>
<path d="M54.1406 8.46877H65.7031C66.0068 8.46425 66.2965 8.34044 66.5097 8.12409C66.7228 7.90773 66.8423 7.6162 66.8423 7.31248C66.8423 7.00876 66.7228 6.71724 66.5096 6.5009C66.2965 6.28455 66.0067 6.16076 65.703 6.15627H54.1406C53.8369 6.16077 53.5472 6.28457 53.334 6.50092C53.1209 6.71727 53.0014 7.0088 53.0014 7.31252C53.0014 7.61624 53.1209 7.90776 53.334 8.12411C53.5472 8.34046 53.8369 8.46426 54.1406 8.46877Z" fill="#D3AC4A"/>
<path d="M30.9694 52.3485C30.9585 51.1473 30.4738 49.9991 29.6206 49.1536C28.7674 48.3081 27.6149 47.8337 26.4137 47.8337C25.2126 47.8337 24.06 48.3081 23.2068 49.1536C22.3537 49.9992 21.8689 51.1474 21.8581 52.3485C21.869 53.5496 22.3537 54.6979 23.2069 55.5434C24.0601 56.3889 25.2126 56.8633 26.4138 56.8632C27.6149 56.8632 28.7675 56.3889 29.6207 55.5433C30.4738 54.6978 30.9586 53.5496 30.9694 52.3485Z" fill="#D3AC4A"/>
<path d="M16.6087 64.755V65.125H36.2188C36.2337 64.9559 36.2375 64.7859 36.2303 64.6163C36.2003 63.8749 35.9453 63.1603 35.4991 62.5675C35.0529 61.9747 34.4368 61.5318 33.7328 61.2978C32.2028 60.8882 27.9806 59.0942 26.4137 59.2166C24.8704 59.0988 20.5954 60.8827 19.0946 61.2978C18.3691 61.5391 17.7382 62.0031 17.2919 62.6239C16.8455 63.2447 16.6065 63.9904 16.6087 64.755Z" fill="#D3AC4A"/>
<path d="M52.9034 52.3369C52.8926 51.1358 52.4079 49.9875 51.5547 49.142C50.7015 48.2965 49.5489 47.8222 48.3478 47.8222C47.1466 47.8222 45.9941 48.2966 45.1409 49.1421C44.2877 49.9876 43.803 51.1358 43.7922 52.337C43.803 53.5381 44.2878 54.6863 45.1409 55.5318C45.9941 56.3773 47.1467 56.8517 48.3479 56.8517C49.549 56.8517 50.7016 56.3773 51.5547 55.5318C52.4079 54.6863 52.8926 53.538 52.9034 52.3369Z" fill="#D3AC4A"/>
<path d="M38.5428 65.125H58.1528C58.2292 64.299 58.0256 63.4713 57.5747 62.7751C57.1238 62.0788 56.4518 61.5544 55.6669 61.2863C54.1324 60.8769 49.9143 59.0824 48.3478 59.205C46.7987 59.0872 42.5215 60.8726 41.0172 61.2863C40.3141 61.5238 39.6998 61.9696 39.2558 62.5643C38.8119 63.159 38.5592 63.8746 38.5312 64.6163C38.524 64.7859 38.5279 64.9559 38.5428 65.125Z" fill="#D3AC4A"/>
<path d="M69.2644 27.1769C60.6739 21.0535 46.7797 11.4114 38.0456 5.208C37.8482 5.07249 37.6144 4.99998 37.375 5C37.1355 5.00002 36.9017 5.07259 36.7044 5.20814L5.48563 27.1769C5.33554 27.2853 5.21328 27.4278 5.12887 27.5926C5.04446 27.7574 5.00029 27.9399 5 28.125V32.75C5.00089 33.0564 5.12299 33.35 5.33964 33.5666C5.55628 33.7833 5.84987 33.9054 6.15625 33.9063H9.625V65.125H14.2963C14.2197 63.8134 14.5767 62.5131 15.3122 61.4245C16.0477 60.3358 17.1209 59.5194 18.3662 59.101L22.2512 57.806C21.109 56.9351 20.2686 55.728 19.8484 54.3544C19.4282 52.9809 19.4494 51.5102 19.909 50.1493C20.3685 48.7884 21.2433 47.606 22.4102 46.7684C23.5771 45.9309 24.9773 45.4804 26.4137 45.4804C27.8501 45.4804 29.2503 45.9309 30.4171 46.7684C31.584 47.606 32.4588 48.7884 32.9184 50.1493C33.378 51.5102 33.3992 52.9809 32.979 54.3544C32.5588 55.728 31.7184 56.9351 30.5761 57.806C32.6173 58.5528 36.1431 59.2201 37.375 61.2054C38.592 59.2183 42.1506 58.5389 44.1853 57.7945C43.3434 57.1557 42.6609 56.3305 42.1914 55.3835C41.722 54.4366 41.4784 53.3938 41.4797 52.337C41.8027 43.2457 54.8886 43.2527 55.216 52.337C55.2173 53.3939 54.9737 54.4367 54.5042 55.3836C54.0348 56.3305 53.3523 57.1557 52.5103 57.7945L56.3953 59.0895C57.6425 59.5088 58.7169 60.327 59.4526 61.4179C60.1882 62.5088 60.5441 63.8116 60.4653 65.125H65.125V33.9063H68.5938C68.9001 33.9053 69.1937 33.7832 69.4103 33.5666C69.627 33.35 69.7491 33.0564 69.75 32.75V28.125C69.7497 27.9399 69.7055 27.7574 69.6211 27.5926C69.5367 27.4278 69.4145 27.2853 69.2644 27.1769ZM37.375 39.6875C34.31 39.6825 31.3719 38.4627 29.2046 36.2954C27.0373 34.1281 25.8175 31.19 25.8125 28.125C26.462 12.7839 48.2903 12.7885 48.9375 28.1251C48.9324 31.1901 47.7126 34.1281 45.5453 36.2954C43.378 38.4627 40.44 39.6825 37.375 39.6875Z" fill="#D3AC4A"/>
<path d="M37.375 18.875C34.9227 18.8783 32.5719 19.8539 30.8379 21.5879C29.1038 23.3219 28.1282 25.6728 28.125 28.125C28.5918 40.3791 46.1599 40.3758 46.625 28.1249C46.6217 25.6726 45.6461 23.3218 43.9121 21.5878C42.1781 19.8538 39.8272 18.8783 37.375 18.875ZM42.2428 26.2403L36.8431 31.64C36.6258 31.8542 36.333 31.9742 36.028 31.9742C35.7229 31.9742 35.4301 31.8542 35.2128 31.64L32.5072 28.946C32.3987 28.8383 32.3125 28.7103 32.2535 28.5692C32.1946 28.4282 32.1641 28.2769 32.1638 28.124C32.1635 27.9712 32.1934 27.8198 32.2517 27.6785C32.3101 27.5372 32.3957 27.4088 32.5038 27.3007C32.6119 27.1926 32.7403 27.1069 32.8816 27.0486C33.0229 26.9902 33.1743 26.9604 33.3271 26.9607C33.48 26.961 33.6313 26.9915 33.7723 27.0504C33.9134 27.1093 34.0414 27.1955 34.1491 27.3041L36.0222 29.1888L40.6009 24.61C40.8186 24.3992 41.1102 24.2821 41.4132 24.284C41.7162 24.2858 42.0064 24.4065 42.2214 24.62C42.4364 24.8335 42.5591 25.1228 42.5631 25.4258C42.5671 25.7288 42.4521 26.0212 42.2428 26.2403Z" fill="#D3AC4A"/>
<path d="M65.125 21.4303V10.7813H54.7188V14.1113C54.7188 14.1113 63.4821 20.2734 65.125 21.4303Z" fill="#D3AC4A"/>
</svg>
