<svg width="104" height="78" viewBox="0 0 104 78" fill="none" xmlns="http://www.w3.org/2000/svg">
<path d="M0 50C0 22.3858 22.3858 0 50 0H104V78H0V50Z" fill="#D3AC4A"/>
<path d="M63.2726 53.6363C63.2726 53.909 63.0908 54.1818 62.909 54.3636L64.2726 64.7272C64.4545 65.909 63.8181 67.0908 62.909 67.7272C63.1817 67.9999 65.5453 67.6363 65.8181 65.4545L67.3635 52.7272C65.9999 52.6363 64.7272 52.4545 63.4544 52.0908L63.2726 53.6363Z" fill="#37405E"/>
<path d="M74.8181 51.6363C73.1817 52.1818 71.4544 52.5454 69.7272 52.6363L71.2726 65.3636C71.7272 68.8181 76.8181 68.0908 76.4544 64.7272L74.8181 51.6363Z" fill="#37405E"/>
<path d="M35.6363 19.8181C38.3977 19.8181 40.6363 17.5795 40.6363 14.8181C40.6363 12.0567 38.3977 9.81812 35.6363 9.81812C32.8748 9.81812 30.6363 12.0567 30.6363 14.8181C30.6363 17.5795 32.8748 19.8181 35.6363 19.8181Z" fill="#37405E"/>
<path d="M41.6363 56.8181C40.8181 56.4545 40.2726 56.0908 39.9999 55.909L41.2726 49.5454C39.5454 50.909 37.0908 48.909 38.0908 46.8181C38.0908 46.7272 41.8181 39.2727 41.5454 39.7272C41.8181 39.2727 42.1817 38.8181 42.7272 38.6363C42.8181 37.2727 43.2726 31.2727 43.2726 31.7272C43.3635 32.1818 43.5453 32.5454 43.6363 32.9999C44.2726 31.909 45.4544 31.1818 46.7272 31.1818C46.0908 28.909 45.2726 26.7272 44.2726 24.4545C41.8181 19.0908 28.3635 20.2727 26.5454 24.5454C24.3635 29.6363 23.1817 34.5454 22.909 39.2727C22.8181 41.5454 26.2726 41.7272 26.3635 39.4545C26.4544 36.909 26.9999 34.2727 27.7272 31.5454L28.9999 48.2727C28.9999 48.5454 29.2726 48.7272 29.5454 48.8181L27.6363 64.8181C27.2726 68.1817 32.3635 68.909 32.8181 65.4545L34.7272 48.8181H36.1817L38.1817 65.3636C38.4544 67.4545 40.9999 68.3636 42.4544 66.9999C41.909 66.5454 41.5454 65.8181 41.5454 65.0909V56.8181H41.6363Z" fill="#37405E"/>
<path d="M77.6363 35.909C77.3635 33.5454 76.2726 30.9999 75.1817 28.909V32.4545L78.4544 48.9999C73.909 51.7272 68.6363 52.5454 63.4544 51.0908C63.5453 49.9999 63.1817 55.0908 64.2726 40.3636C66.2726 39.2727 68.4544 37.1817 68.909 32.909C68.9999 31.4545 67.9999 30.1818 66.5453 30.0908C65.0908 29.9999 63.8181 30.9999 63.7272 32.4545C63.6363 33.909 63.1817 34.7272 62.6363 35.2727C62.2726 35.0908 61.8181 34.909 61.4544 34.7272L61.8181 32.8181C63.2726 30.4545 62.3635 27.3636 59.909 26.1818C62.1817 21.7272 61.6363 22.2727 62.5453 21.7272C66.1817 19.909 69.8181 19.6363 73.6363 21.2727C77.0908 22.7272 80.6363 31.6363 81.1817 35.3636C81.3635 37.7272 77.9999 38.2727 77.6363 35.909Z" fill="#37405E"/>
<path d="M68.3635 19.8181C71.0908 19.8181 73.3635 17.6363 73.3635 14.8181C73.3635 12.0908 71.0908 9.81812 68.3635 9.81812C65.6363 9.81812 63.3635 12.0908 63.3635 14.8181C63.4544 17.6363 65.6363 19.8181 68.3635 19.8181Z" fill="#37405E"/>
<path d="M57.8181 34.2727C59.9999 34.2727 61.5454 32.4545 61.5454 30.4545C61.5454 28.9999 60.6363 27.6363 59.3635 26.9999C58.909 26.8181 58.3635 26.6363 57.8181 26.6363C55.7272 26.6363 54.0908 28.2727 54.0908 30.3636C54.0908 32.5454 55.8181 34.2727 57.8181 34.2727Z" fill="#37405E"/>
<path d="M63.4544 64.8181L62.0908 54.7272L61.9999 53.909C62.1817 53.909 62.3635 53.7272 62.3635 53.5454C63.1817 43.909 63.4544 39.8181 63.4544 39.909C66.3635 38.6363 67.7272 36.0908 67.9999 32.909C68.0908 31.9999 67.3635 31.0908 66.4545 30.9999C65.5454 30.909 64.6363 31.6363 64.5453 32.5454C64.4544 34.0908 63.909 35.5454 62.6363 36.3636C61.5454 35.7272 60.0908 35.1818 58.8181 34.9999C58.7272 34.909 57.9999 35.3636 56.6363 34.9999C56.4544 34.9999 55.1817 35.0908 53.7272 35.909C52.6363 36.4545 50.9999 37.6363 51.1817 38.7272C51.6363 38.909 51.9999 39.2727 52.1817 39.7272C52.1817 39.8181 55.909 47.2727 55.6363 46.8181C56.4544 48.6363 54.7272 50.5454 52.909 49.7272C52.909 49.8181 53.1817 53.7272 53.1817 53.4545C53.1817 53.6363 53.3635 53.8181 53.5454 53.8181C51.909 65.7272 52.0908 64.7272 52.0908 64.7272C51.7272 67.5454 55.9999 68.1818 56.3635 65.2727L57.2726 58.5454L57.7272 61.8181L58.1817 65.4545C58.4544 67.6363 60.9999 68.7272 62.7272 67.6363C62.2726 67.5454 61.909 67.4545 61.5454 67.1818C62.909 66.9999 63.6363 65.909 63.4544 64.8181Z" fill="#37405E"/>
<path d="M42.3635 57.1818L42.4544 57.7272V65.0908C42.4544 67.3636 45.909 67.3636 45.909 65.0908V57.9999C44.7272 57.909 43.5454 57.6363 42.3635 57.1818C42.4545 57.1818 42.4545 57.1818 42.3635 57.1818Z" fill="#37405E"/>
<path d="M51.6363 66.4545C52.2726 65.4545 51.909 64.7272 51.9999 59.7272L51.3635 64.7272C51.2726 65.2727 51.4544 65.909 51.6363 66.4545Z" fill="#37405E"/>
<path d="M47.7272 65.0908C47.7272 67.3636 51.1817 67.3636 51.1817 65.0908V57.1818C50.0908 57.6363 48.909 57.909 47.7272 57.9999V65.0908Z" fill="#37405E"/>
<path d="M43.8181 34.9999C43.8181 38.909 49.8181 38.909 49.8181 34.9999C49.8181 33.3636 48.4544 31.9999 46.8181 31.9999C45.1817 31.9999 43.8181 33.3636 43.8181 34.9999Z" fill="#37405E"/>
<path d="M52.7272 55.5454C52.7272 55.4545 50.6363 44.9999 50.8181 45.6363V44.5454C50.8181 44.6363 52.7272 48.4545 52.7272 48.3636C53.4544 49.909 55.8181 48.8181 55.0908 47.1818C51.3635 39.6363 51.909 39.6363 49.3635 38.8181C48.9999 38.7272 48.7272 38.6363 48.3635 38.5454C47.6363 38.909 46.4544 38.909 45.5454 38.5454C44.8181 38.7272 43.8181 38.9999 42.9999 39.4545C42.8181 39.5454 42.5454 39.7272 42.4544 39.9999C36.4544 52.1818 42.8181 39.2727 38.9999 47.0908C38.7272 47.6363 38.909 48.2727 39.3635 48.6363C39.909 49.1818 40.9999 48.909 41.3635 48.1818C41.7272 47.3636 43.1817 44.4545 43.0908 44.6363V45.4545C41.4544 53.7272 41.0908 55.4545 41.1817 55.3636C44.909 57.8181 49.0908 57.7272 52.7272 55.5454Z" fill="#37405E"/>
</svg>
