<svg width="92" height="92" viewBox="0 0 92 92" fill="none" xmlns="http://www.w3.org/2000/svg">
<path d="M0 0H92V92H0V0Z" fill="#D3AC4A"/>
<path fill-rule="evenodd" clip-rule="evenodd" d="M17.8683 56.1215H11.3131V75.16H17.8681C19.0727 75.16 20.06 74.1768 20.06 72.9682V58.3133C20.0601 57.1048 19.0728 56.1215 17.8683 56.1215ZM23.0919 59.4522L31.9086 59.5179C36.8701 56.8507 39.3487 55.5193 39.3487 55.5193C55.4906 58.4199 63.5575 59.8702 63.5575 59.8702C66.3393 61.4148 66.536 62.9144 64.1761 64.971C50.3284 64.9259 43.4168 65.2046 43.4168 65.2046C51.5944 68.7894 55.5642 70.6699 55.3308 70.8501C70.3419 61.673 77.8436 57.0844 77.8436 57.0844C80.8549 57.3057 81.3506 58.9649 79.9125 61.7017C62.9061 73.8083 54.4049 79.8635 54.4049 79.8635C46.1987 76.5941 38.6931 73.8902 31.8841 71.7516C27.7052 71.8048 24.5711 71.8335 23.0921 71.8498L23.0919 59.4522ZM55.2488 12.1366L56.6459 16.4671L61.1936 16.4588L57.5103 19.1218L58.9238 23.4442L55.2488 20.7648L51.5738 23.4443L52.9874 19.122L49.3043 16.459L53.8519 16.4672L55.2488 12.1366ZM72.9312 20.6009L74.7543 26.2465L80.6868 26.2382L75.8811 29.7165L77.7248 35.354L72.9314 31.8594L68.138 35.354L69.9816 29.7165L65.176 26.2382L71.1084 26.2465L72.9312 20.6009ZM55.7814 35.1943C62.9675 35.1943 68.7893 41.0202 68.7893 48.2021C68.7893 51.9959 67.1669 55.4127 64.5736 57.789C63.4756 57.3711 46.7928 54.7449 44.1543 54.032C43.2736 52.2786 42.7736 50.2997 42.7736 48.2021C42.7736 41.0202 48.5995 35.1943 55.7814 35.1943ZM47.4401 51.7091C46.973 51.2748 46.9484 50.5457 47.3827 50.0785C47.817 49.6156 48.5462 49.5868 49.0133 50.0211L51.9304 52.7333C52.2745 53.0365 52.8399 53.1185 53.1062 52.8112L62.4513 41.5117C62.8568 41.0202 63.5861 40.9546 64.0778 41.3601C64.5694 41.7657 64.635 42.495 64.2294 42.9865L54.9089 54.2572C53.7658 55.642 51.6437 55.6174 50.3572 54.4211L47.4401 51.7091ZM31.4496 28.7089V35.3418H24.4274V28.7089C24.4274 27.6068 26.0006 26.7178 27.9385 26.7178C29.8764 26.7177 31.4496 27.6068 31.4496 28.7089ZM27.9385 22.3872C29.0365 22.3872 29.9296 23.2803 29.9296 24.3783C29.9296 25.4763 29.0364 26.3693 27.9385 26.3693C26.8405 26.3693 25.9474 25.4761 25.9474 24.3783C25.9474 23.2804 26.8406 22.3872 27.9385 22.3872ZM30.8719 14.6236C32.7852 15.0005 34.5632 15.7542 36.1284 16.8073L38.2179 16.2665C38.5908 16.1722 38.9595 16.2705 39.2299 16.545C39.787 17.0981 40.799 17.7904 40.5818 18.6303L40.0452 20.6992C41.1514 22.3216 41.9339 24.1735 42.3108 26.1728L44.0439 27.1971C44.3758 27.3938 44.5642 27.7214 44.5642 28.1066V29.6266C44.5642 30.0118 44.3758 30.3437 44.0439 30.5362L42.3108 31.5603C41.9257 33.617 41.1063 35.518 39.9509 37.169L40.4344 39.0454C40.5327 39.4183 40.4303 39.7828 40.1599 40.0573L39.0865 41.1307C38.8161 41.4012 38.4474 41.5035 38.0745 41.4052L36.1489 40.9095C34.4814 42.032 32.5681 42.8228 30.5074 43.1751L29.5077 44.8712C29.311 45.2031 28.9791 45.3915 28.5941 45.3915H27.0783C26.6931 45.3915 26.3612 45.2031 26.1647 44.8712L25.1158 43.089C23.1288 42.6834 21.2852 41.8681 19.6833 40.7373L17.6594 41.2617C17.2866 41.3559 16.9179 41.2576 16.6474 40.9832L15.574 39.9097C15.2995 39.6393 15.2011 39.2706 15.2953 38.8977L15.8485 36.7509C14.8284 35.1736 14.1031 33.3873 13.7549 31.4658L11.8335 30.3309C11.5017 30.1342 11.3132 29.8066 11.3132 29.4214V27.9018C11.3132 27.5166 11.5017 27.189 11.8335 26.9923L13.8451 25.8042C14.2426 23.9565 14.9923 22.2399 16.0206 20.7239L15.4429 18.4828C15.3446 18.1101 15.447 17.7454 15.7174 17.471L16.7908 16.3975C17.0653 16.1271 17.4299 16.0247 17.8028 16.1231L20.0971 16.7131C21.6252 15.7133 23.3541 14.9923 25.21 14.6236L26.3695 12.6571C26.5662 12.3252 26.898 12.1368 27.2831 12.1368H28.7989C29.1841 12.1368 29.5159 12.3252 29.7125 12.6571L30.8719 14.6236ZM27.9385 18.1879C33.8341 18.1879 38.6152 22.9689 38.6152 28.8645C38.6152 34.7601 33.8341 39.5412 27.9385 39.5412C22.0429 39.5412 17.2618 34.7601 17.2618 28.8645C17.2618 22.9689 22.0431 18.1879 27.9385 18.1879Z" fill="white"/>
</svg>
