<svg width="92" height="92" viewBox="0 0 92 92" fill="none" xmlns="http://www.w3.org/2000/svg">
<path d="M0 0H92V92H0V0Z" fill="#D3AC4A"/>
<path fill-rule="evenodd" clip-rule="evenodd" d="M45.0114 48.4308V24.4263C45.0114 24.3429 45.0841 24.2791 45.1669 24.29C45.7474 24.3665 46.3387 24.3665 46.9193 24.29C47.0021 24.2791 47.0748 24.3429 47.0748 24.4263V48.4308C47.0748 48.5053 47.1345 48.5665 47.209 48.5682C53.613 48.7234 59.5818 50.1516 64.6571 52.5184C70.2525 55.1278 74.7736 58.8873 77.6142 63.3524C77.845 63.715 77.8181 64.1362 77.6001 64.4784C74.7587 68.9339 70.2433 72.6854 64.6571 75.2905C53.317 80.5789 38.7693 80.5789 27.4293 75.2905C21.8339 72.6811 17.3128 68.9217 14.4722 64.4565C14.2413 64.0939 14.2682 63.6727 14.4863 63.3305C17.3277 58.875 21.843 55.1235 27.4293 52.5184C32.5045 50.1516 38.4734 48.7234 44.8773 48.5682C44.9518 48.5665 45.0114 48.5053 45.0114 48.4308ZM52.958 56.5262C48.8834 52.4516 42.2761 52.4516 38.2015 56.5262C34.1267 60.6008 34.1267 67.2081 38.2015 71.2827C42.2762 75.3574 48.8834 75.3574 52.958 71.2827C55.3937 68.8469 56.5145 65.3179 55.8062 61.8225C55.7967 61.7759 55.8101 61.7315 55.8437 61.6979L60.7509 56.7907C61.243 56.2986 61.243 55.5006 60.7509 55.0085C60.2588 54.5164 59.4608 54.5164 58.9687 55.0085L44.7056 69.2715C44.2134 69.7635 43.4155 69.7635 42.9234 69.2714L38.3362 64.6841C37.8441 64.192 37.8441 63.394 38.3362 62.9019C38.8283 62.4098 39.6263 62.4098 40.1184 62.9019L43.7171 66.5007C43.7707 66.5542 43.858 66.5542 43.9116 66.5007L53.3155 57.0967C53.3673 57.0449 53.3694 56.9616 53.3203 56.9073C53.2029 56.7774 53.082 56.6504 52.958 56.5262ZM41.3429 17.7002C41.3429 20.2964 43.447 22.4004 46.0431 22.4004C48.6393 22.4004 50.7433 20.2963 50.7433 17.7002C50.7433 15.1041 48.6392 13 46.0431 13C43.447 13 41.3429 15.104 41.3429 17.7002ZM80.0862 34.6308C80.0862 34.0611 79.6243 33.5991 79.0545 33.5991H77.4253C77.3697 33.5991 77.3222 33.5681 77.2997 33.5174L70.09 17.285C69.9262 16.9152 69.5597 16.6731 69.1511 16.6734V16.6686H52.7693C52.6858 16.6686 52.622 16.7413 52.633 16.8242C52.7095 17.4046 52.7095 17.9959 52.633 18.5765C52.622 18.6592 52.6858 18.732 52.7693 18.732H67.3581C67.458 18.732 67.5243 18.834 67.4837 18.9253L61.0026 33.5177C60.9802 33.5684 60.9325 33.5994 60.877 33.5994H59.2477C58.678 33.5994 58.2161 34.0613 58.2161 34.6311C58.2161 40.6701 63.1121 45.5662 69.1512 45.5662C75.1901 45.5659 80.0862 40.6699 80.0862 34.6308ZM63.4244 33.5992H74.8778C74.9777 33.5992 75.044 33.4973 75.0034 33.4059L69.2767 20.5122C69.2283 20.4031 69.0738 20.4031 69.0254 20.5122L63.2987 33.4059C63.2582 33.4971 63.3245 33.5992 63.4244 33.5992ZM33.8701 34.6308C33.8701 34.0611 33.4082 33.5991 32.8385 33.5991H31.2092C31.1536 33.5991 31.1061 33.5681 31.0836 33.5174L24.6025 18.925C24.5619 18.8337 24.6282 18.7317 24.7281 18.7317H39.3169C39.4004 18.7317 39.4642 18.6591 39.4533 18.5762C39.3767 17.9956 39.3767 17.4045 39.4533 16.8239C39.4642 16.741 39.4004 16.6683 39.3169 16.6683H22.9351V16.6731C22.5413 16.6732 22.1657 16.9013 21.9962 17.2847L14.7865 33.5175C14.7639 33.5683 14.7164 33.5992 14.6609 33.5992H13.0317C12.4621 33.5992 12 34.0611 12 34.6309C12 40.6699 16.896 45.5661 22.9351 45.5661C28.9741 45.5659 33.8701 40.6699 33.8701 34.6308ZM17.2084 33.5992H28.6618C28.7617 33.5992 28.828 33.4973 28.7875 33.4059L23.0608 20.5122C23.0124 20.4031 22.8579 20.4031 22.8095 20.5122L17.0828 33.4059C17.0422 33.4971 17.1085 33.5992 17.2084 33.5992ZM63.7865 73.4209C68.7666 71.0984 72.8203 67.8346 75.4646 63.9825C75.4975 63.9346 75.4975 63.8747 75.4646 63.8268C72.8203 59.9746 68.7664 56.7106 63.7865 54.3882C52.9997 49.3578 39.0865 49.3578 28.2997 54.3882C23.3196 56.7106 19.2659 59.9746 16.6216 63.8268C16.5887 63.8746 16.5887 63.9345 16.6216 63.9825C19.2659 67.8346 23.3198 71.0986 28.2997 73.4209C39.0865 78.4512 52.9997 78.4512 63.7865 73.4209Z" fill="white"/>
</svg>
