<svg width="92" height="92" viewBox="0 0 92 92" fill="none" xmlns="http://www.w3.org/2000/svg">
<path d="M0 0H92V92H0V0Z" fill="#D3AC4A"/>
<path d="M54.2304 68.0794C53.9534 68.2103 53.7397 68.4458 53.6362 68.7341C53.5327 69.0224 53.5478 69.34 53.6782 69.6172C53.9501 70.1856 54.0921 70.8074 54.0938 71.4375C54.0938 74.6262 50.4624 77.2188 46 77.2188C41.5376 77.2188 37.9062 74.6262 37.9062 71.4375C37.9079 70.8074 38.0499 70.1857 38.3218 69.6173C38.4524 69.34 38.4674 69.0222 38.3636 68.7338C38.2599 68.4454 38.0458 68.21 37.7685 68.0794C37.4912 67.9488 37.1734 67.9338 36.8849 68.0375C36.5965 68.1413 36.3612 68.3554 36.2306 68.6327C35.8123 69.5086 35.5948 70.4668 35.5938 71.4375C35.5938 75.8999 40.2616 79.5312 46 79.5312C51.7384 79.5312 56.4062 75.8999 56.4062 71.4375C56.4052 70.4668 56.1877 69.5086 55.7694 68.6327C55.7049 68.4951 55.6139 68.3716 55.5016 68.2693C55.3892 68.167 55.2578 68.0878 55.1148 68.0364C54.9718 67.985 54.8201 67.9624 54.6683 67.9697C54.5165 67.9771 54.3677 68.0144 54.2304 68.0794Z" fill="white"/>
<path d="M46 12.4688C39.5624 12.4758 33.3904 15.0363 28.8384 19.5884C24.2863 24.1404 21.7258 30.3124 21.7188 36.75C21.7188 55.6431 44.3813 71.715 45.3294 72.3856C45.5267 72.5212 45.7605 72.5939 46 72.5939C46.2395 72.5939 46.4733 72.5212 46.6706 72.3856C47.6188 71.715 70.2812 55.6431 70.2812 36.75C70.2742 30.3124 67.7137 24.1404 63.1616 19.5884C58.6096 15.0363 52.4376 12.4758 46 12.4688ZM46 70.0038C42.2537 67.2056 24.0312 52.7062 24.0312 36.75C24.0312 30.9235 26.3458 25.3357 30.4657 21.2157C34.5857 17.0958 40.1735 14.7812 46 14.7812C51.8265 14.7812 57.4143 17.0958 61.5343 21.2157C65.6542 25.3357 67.9688 30.9235 67.9688 36.75C67.9688 52.7062 49.7463 67.2056 46 70.0038Z" fill="white"/>
<path d="M46 19.4062C42.5697 19.4062 39.2165 20.4234 36.3643 22.3292C33.5122 24.235 31.2892 26.9437 29.9765 30.1128C28.6638 33.282 28.3203 36.7692 28.9895 40.1336C29.6587 43.498 31.3105 46.5883 33.7361 49.0139C36.1617 51.4394 39.252 53.0913 42.6164 53.7605C45.9808 54.4297 49.468 54.0862 52.6372 52.7735C55.8063 51.4608 58.515 49.2378 60.4208 46.3857C62.3266 43.5335 63.3438 40.1803 63.3438 36.75C63.3421 32.1507 61.5143 27.7402 58.262 24.488C55.0098 21.2357 50.5993 19.4079 46 19.4062ZM46 47.6188C43.8504 47.6188 41.749 46.9813 39.9616 45.787C38.1743 44.5928 36.7812 42.8953 35.9586 40.9093C35.136 38.9233 34.9207 36.7379 35.3401 34.6296C35.7595 32.5213 36.7946 30.5847 38.3146 29.0646C39.8347 27.5446 41.7713 26.5095 43.8796 26.0901C45.9879 25.6707 48.1733 25.886 50.1593 26.7086C52.1453 27.5312 53.8428 28.9243 55.037 30.7116C56.2313 32.499 56.8688 34.6004 56.8688 36.75C56.8642 39.6312 55.7177 42.3931 53.6804 44.4304C51.6431 46.4677 48.8812 47.6142 46 47.6188Z" fill="white"/>
<path d="M44.8438 28.3094V36.2644L39.2244 41.9069C38.0729 40.4343 37.4462 38.6193 37.4437 36.75C37.4515 34.6871 38.2048 32.6966 39.5648 31.1454C40.9247 29.5942 42.7996 28.587 44.8438 28.3094Z" fill="white"/>
<path d="M40.8431 43.5256L44.8438 39.5481V45.2369C43.3846 45.0223 42.0061 44.4326 40.8431 43.5256Z" fill="white"/>
<path d="M51.1569 43.5256C49.9939 44.4326 48.6154 45.0223 47.1562 45.2369V39.5481L51.1569 43.5256Z" fill="white"/>
<path d="M54.5563 36.75C54.5538 38.6193 53.9271 40.4343 52.7756 41.9069L47.1562 36.2644V28.3094C49.2004 28.587 51.0753 29.5942 52.4352 31.1454C53.7952 32.6966 54.5485 34.6871 54.5563 36.75Z" fill="white"/>
</svg>
