<svg width="74" height="74" viewBox="0 0 74 74" fill="none" xmlns="http://www.w3.org/2000/svg">
<path d="M53.587 41.5785C47.2016 41.5785 42.0005 46.827 42.0005 53.2693C42.0005 59.7115 47.2016 64.96 53.587 64.96C60.0292 64.96 65.2777 59.7115 65.2777 53.2693C65.2777 46.827 60.0292 41.5785 53.587 41.5785ZM57.7271 51.4219C57.6797 51.9429 57.2155 52.3219 56.6944 52.2745C56.1733 52.2271 55.7944 51.7629 55.8418 51.2418C55.8986 50.5787 55.5291 49.9913 54.847 49.6787C54.5154 49.4987 54.1175 49.3944 53.7101 49.3755C53.6249 49.385 53.5301 49.385 53.4354 49.366C53.0375 49.3755 52.6396 49.4608 52.2985 49.6218C52.0712 49.726 51.6827 49.9629 51.6164 50.3324C51.3796 51.4219 51.7491 51.7155 53.928 52.2556C55.2165 52.5682 56.6755 52.9282 57.3481 54.103C57.746 54.7945 57.7934 55.6472 57.4997 56.6325C57.1776 57.5988 56.4102 58.1388 55.6997 58.5367C55.3396 58.7262 54.9417 58.8588 54.5344 58.9346V60.2325C54.5344 60.7631 54.108 61.1799 53.587 61.1799C53.0659 61.1799 52.6396 60.7631 52.6396 60.2325V58.9251C52.2701 58.8588 51.9006 58.7357 51.5501 58.5841C51.5217 58.5651 51.4838 58.5462 51.4554 58.5272C50.148 57.7504 49.4185 56.4335 49.5511 55.1072C49.5985 54.5861 50.0722 54.2072 50.5838 54.2545C51.1048 54.3114 51.4838 54.7756 51.4364 55.2967C51.3796 55.8651 51.7491 56.4809 52.3838 56.8788C53.1796 57.2199 54.108 57.2199 54.8091 56.8693C55.3302 56.5662 55.6049 56.3293 55.6902 56.064C55.8228 55.6188 55.8323 55.2682 55.6997 55.0503C55.4344 54.5766 54.3923 54.3209 53.4733 54.0935C51.8343 53.6861 49.0869 53.0135 49.7595 49.9629C49.9111 49.1102 50.5269 48.3618 51.4933 47.9071C51.8533 47.7365 52.2417 47.6134 52.6396 47.547V46.306C52.6396 45.7754 53.0659 45.3586 53.587 45.3586C54.108 45.3586 54.5344 45.7754 54.5344 46.306V47.566C54.9512 47.6513 55.3491 47.7934 55.6997 47.9923C57.0544 48.6081 57.8597 49.9345 57.7271 51.4219Z" fill="#D3AC4A"/>
<path d="M53.587 38.4806C45.4395 38.4806 38.8078 45.1123 38.8078 53.2692C38.8078 61.4168 45.4395 68.0579 53.587 68.0579C61.744 68.0579 68.3757 61.4168 68.3757 53.2692C68.3757 45.1123 61.744 38.4806 53.587 38.4806ZM53.587 66.1632C46.4817 66.1632 40.7026 60.3746 40.7026 53.2692C40.7026 46.1639 46.4817 40.3753 53.587 40.3753C60.6924 40.3753 66.481 46.1639 66.481 53.2692C66.481 60.3746 60.6924 66.1632 53.587 66.1632Z" fill="#D3AC4A"/>
<path d="M36.752 52.3209H21.7341V37.2035C21.7341 36.6805 21.3097 36.2561 20.7867 36.2561C20.2637 36.2561 19.8393 36.6805 19.8393 37.2035V53.2683C19.8393 53.7912 20.2637 54.2157 20.7867 54.2157H36.752C37.275 54.2157 37.6994 53.7912 37.6994 53.2683C37.6994 52.7453 37.275 52.3209 36.752 52.3209Z" fill="#D3AC4A"/>
<path d="M35.0108 46.1279H26.2049C25.6819 46.1279 25.2575 46.5523 25.2575 47.0752C25.2575 47.5982 25.6819 48.0226 26.2049 48.0226H35.0108C35.5338 48.0226 35.9582 47.5982 35.9582 47.0752C35.9582 46.5523 35.5338 46.1279 35.0108 46.1279Z" fill="#D3AC4A"/>
<path d="M26.2049 40.8074C25.6819 40.8074 25.2575 41.2318 25.2575 41.7547C25.2575 42.2777 25.6819 42.7021 26.2049 42.7021H35.0108C35.5338 42.7021 35.9582 42.2777 35.9582 41.7547C35.9582 41.2318 35.5338 40.8074 35.0108 40.8074H26.2049Z" fill="#D3AC4A"/>
<path d="M24.5403 33.5258V32.1142C25.2888 31.8868 26.0656 31.5742 26.8235 31.1952L27.8751 32.19C28.2541 32.5405 28.832 32.531 29.2015 32.171L33.1615 28.2015C33.531 27.832 33.531 27.2351 33.1615 26.8562L32.1573 25.852C32.5552 25.1509 32.8773 24.3835 33.1236 23.5403H34.5258C35.0468 23.5403 35.4732 23.114 35.4732 22.5929V16.9844C35.4732 16.4634 35.0468 16.037 34.5258 16.037H33.1236C32.8773 15.2033 32.5457 14.3981 32.1384 13.6496L33.1615 12.617C33.531 12.2475 33.531 11.6506 33.1615 11.2812L29.2015 7.31162C29.0215 7.13162 28.7751 7.03688 28.5288 7.03688C28.273 7.03688 28.0362 7.13162 27.8562 7.31162L26.8235 8.34427C26.1035 7.94637 25.3267 7.61478 24.5403 7.35899V5.94739C24.5403 5.42632 24.114 5 23.593 5H17.8802C17.3592 5 16.9328 5.42632 16.9328 5.94739V7.35899C16.1465 7.61478 15.3696 7.94637 14.6496 8.34427L13.617 7.31162C13.4465 7.13162 13.2001 7.03688 12.9538 7.03688C12.698 7.03688 12.4612 7.13162 12.2812 7.31162L8.31162 11.2812C7.94214 11.6506 7.94214 12.2475 8.31162 12.617L9.34427 13.6496C8.92742 14.3981 8.59584 15.2033 8.34952 16.037H6.94739C6.42632 16.037 6 16.4634 6 16.9844V22.5929C6 23.114 6.42632 23.5403 6.94739 23.5403H8.34952C8.59584 24.374 8.91795 25.1509 9.32532 25.8425L8.31162 26.8562C7.94214 27.2351 7.94214 27.832 8.31162 28.2015L12.2812 32.171C12.6412 32.531 13.2286 32.5405 13.598 32.19L14.6591 31.1952C15.4075 31.5742 16.1844 31.8868 16.9328 32.1142V33.5258C16.9328 34.0468 17.3592 34.4732 17.8802 34.4732H23.593C24.114 34.4732 24.5403 34.0468 24.5403 33.5258ZM20.7887 14.9286C23.3656 14.9286 25.5446 17.155 25.5446 19.7887C25.5446 22.3656 23.3656 24.5446 20.7887 24.5446C18.155 24.5446 15.9286 22.3656 15.9286 19.7887C15.9286 17.1076 18.1076 14.9286 20.7887 14.9286Z" fill="#D3AC4A"/>
<path d="M53.5888 31.614C53.0659 31.614 52.6414 32.0384 52.6414 32.5614V35.9474C52.6414 36.4703 53.0659 36.8947 53.5888 36.8947C54.1118 36.8947 54.5362 36.4703 54.5362 35.9474V32.5614C54.5362 32.0375 54.1118 31.614 53.5888 31.614Z" fill="#D3AC4A"/>
<path d="M37.4295 20.736H40.8164C41.3393 20.736 41.7637 20.3116 41.7637 19.7886C41.7637 19.2657 41.3393 18.8413 40.8164 18.8413H37.4295C36.9065 18.8413 36.4821 19.2657 36.4821 19.7886C36.4821 20.3116 36.9065 20.736 37.4295 20.736Z" fill="#D3AC4A"/>
<path d="M54.5362 25.7856C54.5362 25.2627 54.1118 24.8382 53.5888 24.8382C53.0659 24.8382 52.6414 25.2627 52.6414 25.7856V29.1735C52.6414 29.6964 53.0659 30.1209 53.5888 30.1209C54.1118 30.1209 54.5362 29.6964 54.5362 29.1735V25.7856Z" fill="#D3AC4A"/>
<path d="M44.2033 20.736H47.5902C48.1131 20.736 48.5376 20.3116 48.5376 19.7886C48.5376 19.2657 48.1131 18.8413 47.5902 18.8413H44.2033C43.6803 18.8413 43.2559 19.2657 43.2559 19.7886C43.2559 20.3116 43.6803 20.736 44.2033 20.736Z" fill="#D3AC4A"/>
<path d="M50.9759 20.736H52.6414V22.3021C52.6414 22.825 53.0658 23.2494 53.5888 23.2494C54.1118 23.2494 54.5362 22.825 54.5362 22.3021V19.7886C54.5362 19.2657 54.1118 18.8413 53.5888 18.8413H50.9759C50.453 18.8413 50.0285 19.2657 50.0285 19.7886C50.0285 20.3116 50.452 20.736 50.9759 20.736Z" fill="#D3AC4A"/>
<path d="M48.1698 33.8944C48.6928 33.8944 49.1172 33.4699 49.1172 32.947C49.1172 32.424 48.6928 31.9996 48.1698 31.9996H39.3648C38.8419 31.9996 38.4174 32.424 38.4174 32.947C38.4174 33.4699 38.8419 33.8944 39.3648 33.8944H48.1698Z" fill="#D3AC4A"/>
<path d="M39.3648 26.68C38.8419 26.68 38.4174 27.1044 38.4174 27.6274C38.4174 28.1503 38.8419 28.5748 39.3648 28.5748H48.1698C48.6928 28.5748 49.1172 28.1503 49.1172 27.6274C49.1172 27.1044 48.6928 26.68 48.1698 26.68H39.3648Z" fill="#D3AC4A"/>
</svg>
