<svg width="104" height="78" viewBox="0 0 104 78" fill="none" xmlns="http://www.w3.org/2000/svg">
<path d="M0 50C0 22.3858 22.3858 0 50 0H104V78H0V50Z" fill="#D3AC4A"/>
<path d="M77.4229 28.4923L72.1596 19.3235C71.586 18.2674 70.3452 17.7116 69.0468 18.1949L63.0972 20.6019C61.9645 19.7803 60.7788 19.0867 59.5524 18.5284L58.6476 12.175C58.4916 10.9352 57.4236 10 56.1612 10H45.6012C44.3412 10 43.2708 10.9352 43.1196 12.1532L42.2124 18.5284C41.022 19.0722 39.8532 19.7585 38.6724 20.6043L32.7084 18.1925C31.5564 17.7358 30.1836 18.2505 29.622 19.2969L24.3468 28.4827C23.7108 29.5629 23.97 30.967 24.9564 31.7524L29.9988 35.7206C29.9196 36.4915 29.8812 37.1609 29.8812 37.7917C29.8812 38.4224 29.9196 39.0918 29.9988 39.8627L24.9516 43.8333C23.9916 44.597 23.7252 45.9552 24.3396 47.0886L29.6028 56.2574C30.174 57.3111 31.4124 57.8669 32.7156 57.386L38.6652 54.979C39.7956 55.7982 40.9836 56.4918 42.2124 57.0525L43.1172 63.4059C43.2708 64.6481 44.3412 65.5833 45.6012 65.5833H53.8717C54.3204 65.5833 54.7284 65.332 54.9348 64.9333C55.1412 64.5345 55.11 64.0536 54.8556 63.6838C53.0173 61.0352 52.0476 57.9322 52.0476 54.7083C52.0476 53.2052 52.266 51.6996 52.698 50.2327C52.8084 49.8557 52.7317 49.4497 52.4893 49.1403C52.2468 48.831 51.87 48.6691 51.4837 48.6812C51.3517 48.6884 51.2244 48.7053 50.9004 48.7464C44.9316 48.7464 40.074 43.8575 40.074 37.8472C40.074 31.837 44.9292 26.9457 50.9004 26.9457C56.8668 26.9457 61.7244 31.8346 61.7029 38.043C61.6836 38.1711 61.6668 38.3016 61.6596 38.4345C61.638 38.8284 61.8084 39.2054 62.1132 39.4471C62.4204 39.6912 62.826 39.7685 63.198 39.6573C65.5332 38.9565 67.8396 38.7897 70.4412 39.2658C70.7796 39.3238 71.1108 39.1788 71.382 38.9782C71.6485 38.7777 71.826 38.4055 71.862 38.072C71.8644 38.0285 71.8788 37.8327 71.8788 37.7892C71.8788 37.0377 71.826 36.3296 71.7636 35.7182L76.8109 31.75C77.7709 30.9839 78.0372 29.6282 77.4229 28.4923Z" fill="#37405E"/>
<path d="M67.6476 68C60.3708 68 54.4476 62.0381 54.4476 54.7083C54.4476 47.3786 60.3708 41.4167 67.6476 41.4167C74.9244 41.4167 80.8476 47.3786 80.8476 54.7083C80.8476 62.0381 74.9268 68 67.6476 68ZM67.6476 43.8333C61.6932 43.8333 56.8476 48.7126 56.8476 54.7083C56.8476 60.7041 61.6932 65.5833 67.6476 65.5833C73.602 65.5833 78.4476 60.7041 78.4476 54.7083C78.4476 48.7126 73.6044 43.8333 67.6476 43.8333Z" fill="#37405E"/>
<path d="M76.134 64.462C75.8268 64.462 75.5196 64.3436 75.2844 64.1092L58.3165 47.0209C57.8485 46.5497 57.8485 45.7836 58.3165 45.3123C58.7845 44.8411 59.5452 44.8411 60.0132 45.3123L76.9812 62.4006C77.4492 62.8718 77.4492 63.6379 76.9812 64.1092C76.746 64.3436 76.4412 64.462 76.134 64.462Z" fill="#37405E"/>
</svg>
