<svg width="16" height="16" viewBox="0 0 16 16" fill="none" xmlns="http://www.w3.org/2000/svg">
<path d="M15.7074 7.70026L11.3527 3.59444C10.9732 3.23658 10.3694 3.248 10.0042 3.61988C9.63897 3.99177 9.6505 4.58332 10.0302 4.94117L12.6656 7.42593L0.959312 7.35872C0.957333 7.35872 0.955584 7.35872 0.953604 7.35872C0.429527 7.35872 0.00316182 7.77351 1.73571e-05 8.2877C-0.00312711 8.80382 0.421375 9.22466 0.948131 9.22763L12.6598 9.29495L10.037 11.7192C9.65388 12.0734 9.6363 12.6649 9.99768 13.0402C10.1853 13.2351 10.4381 13.3334 10.6917 13.3333C10.9265 13.3333 11.1617 13.2489 11.346 13.0786L15.7007 9.05338C15.8905 8.87788 15.9986 8.63391 16 8.3783C16.0012 8.12258 15.8954 7.87759 15.7074 7.70026Z" fill="#37405E"/>
</svg>
