<svg width="1440" height="496" viewBox="0 0 1440 496" fill="none" xmlns="http://www.w3.org/2000/svg">
<g opacity="0.03">
<mask id="mask0_686_2143" style="mask-type:alpha" maskUnits="userSpaceOnUse" x="0" y="0" width="1440" height="496">
<rect width="1440" height="496" fill="#37405E"/>
</mask>
<g mask="url(#mask0_686_2143)">
<path d="M266.953 324.058H224.948V362.689H211.306V257.593H185.928L183.294 264.361H162.975V359.739H154.691V303.822L144.484 296.698H89.1535V383.989H77.96V329.53L66.3332 324.484V324.058H16.0677V361.025H2.1531V494H279.549V329.53L266.953 324.063V324.058Z" fill="white"/>
<path d="M493.22 347.969H473.455V276.846L463.035 273.175V272.918H398.991V330.352H377.588V301.941L373.072 297.306V296.698H326.369V359.681H289.297V381.114H279.559V494H290.096L493.22 493.411V347.969Z" fill="white"/>
<path d="M58.9646 339.203H22.4537V332.037H58.9646V339.203ZM58.9646 343.6H22.4537V350.766H58.9646V343.6ZM58.9646 355.163H22.4537V362.329H58.9646V355.163ZM58.9646 366.725H22.4537V373.891H58.9646V366.725ZM58.9646 378.288H22.4537V385.454H58.9646V378.288ZM318.883 364.846H294.176V372.011H318.883V364.846ZM318.883 376.409H294.176V383.574H318.883V376.409ZM238.542 332.037H231.335V339.203H238.542V332.037ZM247.856 332.037H240.649V339.203H247.856V332.037ZM257.17 332.037H249.962V339.203H257.17V332.037ZM238.542 341.438H231.335V348.604H238.542V341.438ZM247.856 341.438H240.649V348.604H247.856V341.438ZM257.17 341.438H249.962V348.604H257.17V341.438ZM238.542 350.838H231.335V358.004H238.542V350.838ZM247.856 350.838H240.649V358.004H247.856V350.838ZM257.17 350.838H249.962V358.004H257.17V350.838ZM238.542 360.239H231.335V367.405H238.542V360.239ZM247.856 360.239H240.649V367.405H247.856V360.239ZM257.17 360.239H249.962V367.405H257.17V360.239ZM238.542 369.639H231.335V376.804H238.542V369.639ZM247.856 369.639H240.649V376.804H247.856V369.639ZM257.17 369.639H249.962V376.804H257.17V369.639ZM238.542 379.04H231.335V386.205H238.542V379.04ZM247.856 379.04H240.649V386.205H247.856V379.04ZM257.17 379.04H249.962V386.205H257.17V379.04ZM108.134 305.246H98.2859V334.453H108.134V305.246ZM108.134 341.219H98.2859V370.425H108.134V341.219ZM122.459 305.246H112.611V334.453H122.459V305.246ZM122.459 341.219H112.611V370.425H122.459V341.219ZM136.785 305.246H126.936V334.453H136.785V305.246ZM136.785 341.219H126.936V370.425H136.785V341.219ZM181.096 268.303H165.899V272.822H181.096V268.303ZM192.854 268.327H188.526V381.703H192.854V268.327ZM335.442 302.631H331.114V385.567H335.442V302.631ZM344.097 302.821H339.769V385.756H344.097V302.821ZM352.752 303.01H348.424V385.946H352.752V303.01ZM361.407 303.199H357.079V386.135H361.407V303.199ZM370.062 303.388H365.734V386.324H370.062V303.388ZM200.191 268.327H195.864V381.703H200.191V268.327ZM207.529 268.327H203.202V381.703H207.529V268.327ZM181.096 280.712H165.899V285.231H181.096V280.712ZM181.096 293.12H165.899V297.639H181.096V293.12ZM181.096 305.529H165.899V310.048H181.096V305.529ZM181.096 317.937H165.899V322.455H181.096V317.937ZM181.096 330.346H165.899V334.864H181.096V330.346ZM181.096 342.755H165.899V347.273H181.096V342.755ZM181.096 355.162H165.899V359.681H181.096V355.162ZM413.865 279.384H404.361V288.832H413.865V279.384ZM427.641 279.384H418.137V288.832H427.641V279.384ZM441.416 279.384H431.912V288.832H441.416V279.384ZM454.589 279.384H445.085V288.832H454.589V279.384ZM413.865 295.298H404.361V304.746H413.865V295.298ZM427.641 295.298H418.137V304.746H427.641V295.298ZM441.416 295.298H431.912V304.746H441.416V295.298ZM454.589 295.298H445.085V304.746H454.589V295.298ZM413.865 311.212H404.361V320.659H413.865V311.212ZM427.641 311.212H418.137V320.659H427.641V311.212ZM441.416 311.212H431.912V320.659H441.416V311.212ZM454.589 311.212H445.085V320.659H454.589V311.212ZM413.865 327.126H404.361V336.573H413.865V327.126ZM427.641 327.126H418.137V336.573H427.641V327.126ZM441.416 327.126H431.912V336.573H441.416V327.126ZM454.589 327.126H445.085V336.573H454.589V327.126ZM413.865 343.04H404.361V352.487H413.865V343.04ZM427.641 343.04H418.137V352.487H427.641V343.04ZM441.416 343.04H431.912V352.487H441.416V343.04ZM454.589 343.04H445.085V352.487H454.589V343.04ZM413.865 358.953H404.361V368.401H413.865V358.953ZM427.641 358.953H418.137V368.401H427.641V358.953ZM441.416 358.953H431.912V368.401H441.416V358.953ZM454.589 358.953H445.085V368.401H454.589V358.953Z" fill="#E1EAEA"/>
<path d="M1213.73 324.058H1171.73V362.689H1158.09V257.593H1132.71L1130.07 264.361H1109.76V359.739H1101.47V303.822L1091.26 296.698H1035.93V383.989H1024.74V329.53L1013.11 324.484V324.058H962.848V361.025H948.933V494H1226.33V329.53L1213.73 324.063V324.058Z" fill="white"/>
<path d="M1440 347.969H1420.24V276.846L1409.82 273.175V272.918H1345.77V330.352H1324.37V301.941L1319.85 297.306V296.698H1273.15V359.681H1236.08V381.114H1226.34V494H1236.88L1440 493.411V347.969Z" fill="white"/>
<path d="M1005.74 339.203H969.234V332.037H1005.74V339.203ZM1005.74 343.6H969.234V350.766H1005.74V343.6ZM1005.74 355.163H969.234V362.329H1005.74V355.163ZM1005.74 366.725H969.234V373.891H1005.74V366.725ZM1005.74 378.288H969.234V385.454H1005.74V378.288ZM1265.66 364.846H1240.96V372.011H1265.66V364.846ZM1265.66 376.409H1240.96V383.574H1265.66V376.409ZM1185.32 332.037H1178.11V339.203H1185.32V332.037ZM1194.64 332.037H1187.43V339.203H1194.64V332.037ZM1203.95 332.037H1196.74V339.203H1203.95V332.037ZM1185.32 341.438H1178.11V348.604H1185.32V341.438ZM1194.64 341.438H1187.43V348.604H1194.64V341.438ZM1203.95 341.438H1196.74V348.604H1203.95V341.438ZM1185.32 350.838H1178.11V358.004H1185.32V350.838ZM1194.64 350.838H1187.43V358.004H1194.64V350.838ZM1203.95 350.838H1196.74V358.004H1203.95V350.838ZM1185.32 360.239H1178.11V367.405H1185.32V360.239ZM1194.64 360.239H1187.43V367.405H1194.64V360.239ZM1203.95 360.239H1196.74V367.405H1203.95V360.239ZM1185.32 369.639H1178.11V376.804H1185.32V369.639ZM1194.64 369.639H1187.43V376.804H1194.64V369.639ZM1203.95 369.639H1196.74V376.804H1203.95V369.639ZM1185.32 379.04H1178.11V386.205H1185.32V379.04ZM1194.64 379.04H1187.43V386.205H1194.64V379.04ZM1203.95 379.04H1196.74V386.205H1203.95V379.04ZM1054.91 305.246H1045.07V334.453H1054.91V305.246ZM1054.91 341.219H1045.07V370.425H1054.91V341.219ZM1069.24 305.246H1059.39V334.453H1069.24V305.246ZM1069.24 341.219H1059.39V370.425H1069.24V341.219ZM1083.56 305.246H1073.72V334.453H1083.56V305.246ZM1083.56 341.219H1073.72V370.425H1083.56V341.219ZM1127.88 268.303H1112.68V272.822H1127.88V268.303ZM1139.64 268.327H1135.31V381.703H1139.64V268.327ZM1282.22 302.631H1277.89V385.567H1282.22V302.631ZM1290.88 302.821H1286.55V385.756H1290.88V302.821ZM1299.53 303.01H1295.2V385.946H1299.53V303.01ZM1308.19 303.199H1303.86V386.135H1308.19V303.199ZM1316.84 303.388H1312.51V386.324H1316.84V303.388ZM1146.97 268.327H1142.65V381.703H1146.97V268.327ZM1154.31 268.327H1149.98V381.703H1154.31V268.327ZM1127.88 280.712H1112.68V285.231H1127.88V280.712ZM1127.88 293.12H1112.68V297.639H1127.88V293.12ZM1127.88 305.529H1112.68V310.048H1127.88V305.529ZM1127.88 317.937H1112.68V322.455H1127.88V317.937ZM1127.88 330.346H1112.68V334.864H1127.88V330.346ZM1127.88 342.755H1112.68V347.273H1127.88V342.755ZM1127.88 355.162H1112.68V359.681H1127.88V355.162ZM1360.65 279.384H1351.14V288.832H1360.65V279.384ZM1374.42 279.384H1364.92V288.832H1374.42V279.384ZM1388.2 279.384H1378.69V288.832H1388.2V279.384ZM1401.37 279.384H1391.87V288.832H1401.37V279.384ZM1360.65 295.298H1351.14V304.746H1360.65V295.298ZM1374.42 295.298H1364.92V304.746H1374.42V295.298ZM1388.2 295.298H1378.69V304.746H1388.2V295.298ZM1401.37 295.298H1391.87V304.746H1401.37V295.298ZM1360.65 311.212H1351.14V320.659H1360.65V311.212ZM1374.42 311.212H1364.92V320.659H1374.42V311.212ZM1388.2 311.212H1378.69V320.659H1388.2V311.212ZM1401.37 311.212H1391.87V320.659H1401.37V311.212ZM1360.65 327.126H1351.14V336.573H1360.65V327.126ZM1374.42 327.126H1364.92V336.573H1374.42V327.126ZM1388.2 327.126H1378.69V336.573H1388.2V327.126ZM1401.37 327.126H1391.87V336.573H1401.37V327.126ZM1360.65 343.04H1351.14V352.487H1360.65V343.04ZM1374.42 343.04H1364.92V352.487H1374.42V343.04ZM1388.2 343.04H1378.69V352.487H1388.2V343.04ZM1401.37 343.04H1391.87V352.487H1401.37V343.04ZM1360.65 358.953H1351.14V368.401H1360.65V358.953ZM1374.42 358.953H1364.92V368.401H1374.42V358.953ZM1388.2 358.953H1378.69V368.401H1388.2V358.953ZM1401.37 358.953H1391.87V368.401H1401.37V358.953Z" fill="#E1EAEA"/>
<path d="M723.482 324.058H681.477V362.689H667.835V257.593H642.457L639.822 264.361H619.504V359.739H611.22V303.822L601.013 296.698H545.681V383.989H534.488V329.53L522.862 324.484V324.058H472.595V361.025H458.682V494H736.078V329.53L723.482 324.063V324.058Z" fill="white"/>
<path d="M949.748 347.969H929.984V276.846L919.564 273.175V272.918H855.52V330.352H834.117V301.941L829.602 297.306V296.698H782.898V359.681H745.825V381.114H736.088V494H746.625L949.748 493.411V347.969Z" fill="white"/>
<path d="M515.492 339.203H478.981V332.037H515.492V339.203ZM515.492 343.6H478.981V350.766H515.492V343.6ZM515.492 355.163H478.981V362.329H515.492V355.163ZM515.492 366.725H478.981V373.891H515.492V366.725ZM515.492 378.288H478.981V385.454H515.492V378.288ZM775.412 364.846H750.706V372.011H775.412V364.846ZM775.412 376.409H750.706V383.574H775.412V376.409ZM695.07 332.037H687.863V339.203H695.07V332.037ZM704.384 332.037H697.176V339.203H704.384V332.037ZM713.697 332.037H706.49V339.203H713.697V332.037ZM695.07 341.438H687.863V348.604H695.07V341.438ZM704.384 341.438H697.176V348.604H704.384V341.438ZM713.697 341.438H706.49V348.604H713.697V341.438ZM695.07 350.838H687.863V358.004H695.07V350.838ZM704.384 350.838H697.176V358.004H704.384V350.838ZM713.697 350.838H706.49V358.004H713.697V350.838ZM695.07 360.239H687.863V367.405H695.07V360.239ZM704.384 360.239H697.176V367.405H704.384V360.239ZM713.697 360.239H706.49V367.405H713.697V360.239ZM695.07 369.639H687.863V376.804H695.07V369.639ZM704.384 369.639H697.176V376.804H704.384V369.639ZM713.697 369.639H706.49V376.804H713.697V369.639ZM695.07 379.04H687.863V386.205H695.07V379.04ZM704.384 379.04H697.176V386.205H704.384V379.04ZM713.697 379.04H706.49V386.205H713.697V379.04ZM564.662 305.246H554.814V334.453H564.662V305.246ZM564.662 341.219H554.814V370.425H564.662V341.219ZM578.987 305.246H569.139V334.453H578.987V305.246ZM578.987 341.219H569.139V370.425H578.987V341.219ZM593.312 305.246H583.464V334.453H593.312V305.246ZM593.312 341.219H583.464V370.425H593.312V341.219ZM637.625 268.303H622.428V272.822H637.625V268.303ZM649.383 268.327H645.055V381.703H649.383V268.327ZM791.971 302.631H787.643V385.567H791.971V302.631ZM800.626 302.821H796.298V385.756H800.626V302.821ZM809.281 303.01H804.953V385.946H809.281V303.01ZM817.936 303.199H813.608V386.135H817.936V303.199ZM826.591 303.388H822.264V386.324H826.591V303.388ZM656.721 268.327H652.393V381.703H656.721V268.327ZM664.058 268.327H659.731V381.703H664.058V268.327ZM637.625 280.712H622.428V285.231H637.625V280.712ZM637.625 293.12H622.428V297.639H637.625V293.12ZM637.625 305.529H622.428V310.048H637.625V305.529ZM637.625 317.937H622.428V322.455H637.625V317.937ZM637.625 330.346H622.428V334.864H637.625V330.346ZM637.625 342.755H622.428V347.273H637.625V342.755ZM637.625 355.162H622.428V359.681H637.625V355.162ZM870.395 279.384H860.89V288.832H870.395V279.384ZM884.169 279.384H874.665V288.832H884.169V279.384ZM897.945 279.384H888.441V288.832H897.945V279.384ZM911.118 279.384H901.614V288.832H911.118V279.384ZM870.395 295.298H860.89V304.746H870.395V295.298ZM884.169 295.298H874.665V304.746H884.169V295.298ZM897.945 295.298H888.441V304.746H897.945V295.298ZM911.118 295.298H901.614V304.746H911.118V295.298ZM870.395 311.212H860.89V320.659H870.395V311.212ZM884.169 311.212H874.665V320.659H884.169V311.212ZM897.945 311.212H888.441V320.659H897.945V311.212ZM911.118 311.212H901.614V320.659H911.118V311.212ZM870.395 327.126H860.89V336.573H870.395V327.126ZM884.169 327.126H874.665V336.573H884.169V327.126ZM897.945 327.126H888.441V336.573H897.945V327.126ZM911.118 327.126H901.614V336.573H911.118V327.126ZM870.395 343.04H860.89V352.487H870.395V343.04ZM884.169 343.04H874.665V352.487H884.169V343.04ZM897.945 343.04H888.441V352.487H897.945V343.04ZM911.118 343.04H901.614V352.487H911.118V343.04ZM870.395 358.953H860.89V368.401H870.395V358.953ZM884.169 358.953H874.665V368.401H884.169V358.953ZM897.945 358.953H888.441V368.401H897.945V358.953ZM911.118 358.953H901.614V368.401H911.118V358.953Z" fill="#E1EAEA"/>
<path d="M756.062 433.954H696.019V486.945H756.062V433.954Z" fill="#E2E2E2"/>
<path d="M782.048 400.008H670.034V437.407H782.048V400.008Z" fill="#ED5C58" fill-opacity="0.6"/>
<path d="M758.038 486.945H694.045V492.074H758.038V486.945Z" fill="#D3D3D3"/>
<path d="M721.533 450.41H712.196V455.855H721.533V450.41Z" fill="#688FB8"/>
<path d="M721.533 455.855H712.196V466.539H721.533V455.855Z" fill="#688FB8"/>
<path d="M742.521 450.41H733.185V455.855H742.521V450.41Z" fill="#688FB8"/>
<path d="M742.521 455.855H733.185V466.539H742.521V455.855Z" fill="#688FB8"/>
<path d="M700.056 433.954H640.013V486.945H700.056V433.954Z" fill="#F7F7F5"/>
<path d="M702.031 486.945H638.037V492.074H702.031V486.945Z" fill="#E5E5E3"/>
<path d="M654.242 450.41H648.432V455.855H654.242V450.41Z" fill="#688FB8"/>
<path d="M654.242 455.855H648.432V466.539H654.242V455.855Z" fill="#688FB8"/>
<path d="M660.052 450.41H654.242V455.855H660.052V450.41Z" fill="#688FB8"/>
<path d="M660.052 455.855H654.242V466.539H660.052V455.855Z" fill="#688FB8"/>
<path d="M665.862 450.41H660.052V455.855H665.862V450.41Z" fill="#688FB8"/>
<path d="M665.862 455.855H660.052V466.539H665.862V455.855Z" fill="#688FB8"/>
<path d="M680.017 450.41H674.207V455.855H680.017V450.41Z" fill="#688FB8"/>
<path d="M680.017 455.855H674.207V466.539H680.017V455.855Z" fill="#688FB8"/>
<path d="M685.827 450.41H680.017V455.855H685.827V450.41Z" fill="#688FB8"/>
<path d="M685.827 455.855H680.017V466.539H685.827V455.855Z" fill="#688FB8"/>
<path d="M691.637 450.41H685.827V455.855H691.637V450.41Z" fill="#688FB8"/>
<path d="M691.637 455.855H685.827V466.539H691.637V455.855Z" fill="#688FB8"/>
<path d="M670.034 400.008L634.483 437.407H705.586L670.034 400.008Z" fill="#FF695E" fill-opacity="0.6"/>
<path d="M812.069 433.954H752.025V486.945H812.069V433.954Z" fill="#F7F7F5"/>
<path d="M793.676 451.763H773.579V486.945H793.676V451.763Z" fill="#B2B2B2"/>
<path d="M795.652 451.763H771.605V456.295H795.652V451.763Z" fill="#CCCCCA"/>
<path d="M814.044 486.945H750.051V492.074H814.044V486.945Z" fill="#E5E5E3"/>
<path d="M782.048 400.008L746.495 437.407H817.6L782.048 400.008Z" fill="#FF695E" fill-opacity="0.6"/>
<path d="M654.638 450.41H653.859V467.858H654.638V450.41Z" fill="#F7F7F5"/>
<path d="M647.32 456.712V457.521H691.637V456.712H647.32Z" fill="#F7F7F5"/>
<path d="M660.808 450.41H660.03V467.858H660.808V450.41Z" fill="#F7F7F5"/>
<path d="M680.055 450.41H679.277V467.858H680.055V450.41Z" fill="#F7F7F5"/>
<path d="M686.226 450.41H685.447V467.858H686.226V450.41Z" fill="#F7F7F5"/>
<path d="M743.693 457.271V456.493H711.449V457.271H743.693Z" fill="#E2E2E2"/>
<path d="M210.905 413.674H129.073V486.947H210.905V413.674Z" fill="#FF695E" fill-opacity="0.6"/>
<path d="M201.986 428.541H137.992V488.365H201.986V428.541Z" fill="#E2E2E2"/>
<path d="M180.537 450.41H159.441V486.945H180.537V450.41Z" fill="#B2B2B2"/>
<path d="M182.019 450.41H157.96V453.729H182.019V450.41Z" fill="#CCCCCA"/>
<path d="M201.986 486.945H137.992V492.074H201.986V486.945Z" fill="#D3D3D3"/>
<path d="M199.665 479.267C199.665 483.963 199.665 486.945 199.665 486.945H259.708V421.224L229.686 398.428L199.663 421.224C199.663 421.224 199.665 461.925 199.665 479.267Z" fill="#F7F7F5"/>
<path d="M261.682 486.945H197.689V492.074H261.682V486.945Z" fill="#E5E5E3"/>
<path d="M215.956 437.407H210.905V442.141H215.956V437.407Z" fill="#688FB8"/>
<path d="M215.956 442.141H210.905V451.43H215.956V442.141Z" fill="#688FB8"/>
<path d="M221.008 437.407H215.956V442.141H221.008V437.407Z" fill="#688FB8"/>
<path d="M221.008 442.141H215.956V451.43H221.008V442.141Z" fill="#688FB8"/>
<path d="M226.059 437.407H221.008V442.141H226.059V437.407Z" fill="#688FB8"/>
<path d="M226.059 442.141H221.008V451.43H226.059V442.141Z" fill="#688FB8"/>
<path d="M238.365 437.407H233.313V442.141H238.365V437.407Z" fill="#688FB8"/>
<path d="M238.365 442.141H233.313V451.43H238.365V442.141Z" fill="#688FB8"/>
<path d="M243.416 437.407H238.365V442.141H243.416V437.407Z" fill="#688FB8"/>
<path d="M243.416 442.141H238.365V451.43H243.416V442.141Z" fill="#688FB8"/>
<path d="M248.468 437.407H243.416V442.141H248.468V437.407Z" fill="#688FB8"/>
<path d="M248.468 442.141H243.416V451.43H248.468V442.141Z" fill="#688FB8"/>
<path d="M215.956 458.941H210.905V463.675H215.956V458.941Z" fill="#688FB8"/>
<path d="M215.956 463.675H210.905V472.966H215.956V463.675Z" fill="#688FB8"/>
<path d="M221.008 458.941H215.956V463.675H221.008V458.941Z" fill="#688FB8"/>
<path d="M221.008 463.675H215.956V472.966H221.008V463.675Z" fill="#688FB8"/>
<path d="M226.059 458.941H221.008V463.675H226.059V458.941Z" fill="#688FB8"/>
<path d="M226.059 463.675H221.008V472.966H226.059V463.675Z" fill="#688FB8"/>
<path d="M238.365 458.941H233.313V463.675H238.365V458.941Z" fill="#688FB8"/>
<path d="M238.365 463.675H233.313V472.966H238.365V463.675Z" fill="#688FB8"/>
<path d="M243.416 458.941H238.365V463.675H243.416V458.941Z" fill="#688FB8"/>
<path d="M243.416 463.675H238.365V472.966H243.416V463.675Z" fill="#688FB8"/>
<path d="M248.468 458.941H243.416V463.675H248.468V458.941Z" fill="#688FB8"/>
<path d="M248.468 463.675H243.416V472.966H248.468V463.675Z" fill="#688FB8"/>
<path d="M265.963 428.541L228.88 400.383L193.409 427.317L190.99 424.136L228.88 395.364L268.383 425.36L265.963 428.541Z" fill="#FF908D" fill-opacity="0.6"/>
<path d="M229.686 428.541C232.995 428.541 235.677 425.861 235.677 422.554C235.677 419.248 232.995 416.568 229.686 416.568C226.377 416.568 223.694 419.248 223.694 422.554C223.694 425.861 226.377 428.541 229.686 428.541Z" fill="#688FB8"/>
<path d="M216.28 436.469H215.577V451.641H216.28V436.469Z" fill="#F7F7F5"/>
<path d="M209.67 441.948V442.652H249.703V441.948H209.67Z" fill="#F7F7F5"/>
<path d="M221.855 436.469H221.151V451.641H221.855V436.469Z" fill="#F7F7F5"/>
<path d="M239.241 436.469H238.537V451.641H239.241V436.469Z" fill="#F7F7F5"/>
<path d="M244.815 436.469H244.111V451.641H244.815V436.469Z" fill="#F7F7F5"/>
<path d="M216.28 458.554H215.577V473.726H216.28V458.554Z" fill="#F7F7F5"/>
<path d="M209.67 464.034V464.737H249.703V464.034H209.67Z" fill="#F7F7F5"/>
<path d="M221.855 458.554H221.151V473.726H221.855V458.554Z" fill="#F7F7F5"/>
<path d="M239.241 458.554H238.537V473.726H239.241V458.554Z" fill="#F7F7F5"/>
<path d="M244.815 458.554H244.111V473.726H244.815V458.554Z" fill="#F7F7F5"/>
<path d="M82.2849 479.267C82.2849 483.963 82.2849 486.945 82.2849 486.945H142.328V421.224L112.306 398.428L82.2849 421.224C82.2849 421.224 82.2849 461.925 82.2849 479.267Z" fill="#F7F7F5"/>
<path d="M144.304 486.945H80.3104V492.074H144.304V486.945Z" fill="#E5E5E3"/>
<path d="M93.5264 437.407V451.43H108.68V437.407H93.5264Z" fill="#688FB8"/>
<path d="M115.935 437.407V451.43H131.088V437.407H115.935Z" fill="#688FB8"/>
<path d="M98.5765 458.941H93.5264V472.964H108.68V458.941H98.5765Z" fill="#688FB8"/>
<path d="M115.935 458.941V472.964H131.088V458.941H115.935Z" fill="#688FB8"/>
<path d="M148.583 428.541L111.501 400.383L76.0295 427.317L73.6098 424.136L111.501 395.364L151.004 425.36L148.583 428.541Z" fill="#FF908D" fill-opacity="0.6"/>
<path d="M112.307 428.541C115.616 428.541 118.299 425.861 118.299 422.554C118.299 419.248 115.616 416.568 112.307 416.568C108.998 416.568 106.316 419.248 106.316 422.554C106.316 425.861 108.998 428.541 112.307 428.541Z" fill="#688FB8"/>
<path d="M98.5779 436.855H97.8739V452.027H98.5779V436.855Z" fill="#F7F7F5"/>
<path d="M91.9667 442.335V443.038H132V442.335H91.9667Z" fill="#F7F7F5"/>
<path d="M104.151 436.855H103.447V452.027H104.151V436.855Z" fill="#F7F7F5"/>
<path d="M121.538 436.855H120.834V452.027H121.538V436.855Z" fill="#F7F7F5"/>
<path d="M127.111 436.855H126.407V452.027H127.111V436.855Z" fill="#F7F7F5"/>
<path d="M98.5765 458.941H97.8739V474.113H98.5779L98.5765 458.941Z" fill="#F7F7F5"/>
<path d="M91.9668 464.42V465.124H132V464.42H91.9668Z" fill="#F7F7F5"/>
<path d="M104.151 458.941H103.447V474.113H104.151V458.941Z" fill="#F7F7F5"/>
<path d="M121.538 458.941H120.834V474.113H121.538V458.941Z" fill="#F7F7F5"/>
<path d="M127.111 458.941H126.407V474.113H127.111V458.941Z" fill="#F7F7F5"/>
<path d="M1257.57 413.674H1175.74V486.947H1257.57V413.674Z" fill="#FF695E" fill-opacity="0.6"/>
<path d="M1248.66 428.541H1184.66V488.365H1248.66V428.541Z" fill="#E2E2E2"/>
<path d="M1227.21 450.41H1206.11V486.945H1227.21V450.41Z" fill="#B2B2B2"/>
<path d="M1228.69 450.41H1204.63V453.729H1228.69V450.41Z" fill="#CCCCCA"/>
<path d="M1248.66 486.945H1184.66V492.074H1248.66V486.945Z" fill="#D3D3D3"/>
<path d="M1246.33 479.267C1246.33 483.963 1246.33 486.945 1246.33 486.945H1306.38V421.224L1276.36 398.428L1246.33 421.224C1246.33 421.224 1246.33 461.925 1246.33 479.267Z" fill="#F7F7F5"/>
<path d="M1308.35 486.945H1244.36V492.074H1308.35V486.945Z" fill="#E5E5E3"/>
<path d="M1262.63 437.407H1257.57V442.141H1262.63V437.407Z" fill="#688FB8"/>
<path d="M1262.63 442.141H1257.57V451.43H1262.63V442.141Z" fill="#688FB8"/>
<path d="M1267.68 437.407H1262.62V442.141H1267.68V437.407Z" fill="#688FB8"/>
<path d="M1267.68 442.141H1262.62V451.43H1267.68V442.141Z" fill="#688FB8"/>
<path d="M1272.73 437.407H1267.68V442.141H1272.73V437.407Z" fill="#688FB8"/>
<path d="M1272.73 442.141H1267.68V451.43H1272.73V442.141Z" fill="#688FB8"/>
<path d="M1285.03 437.407H1279.98V442.141H1285.03V437.407Z" fill="#688FB8"/>
<path d="M1285.03 442.141H1279.98V451.43H1285.03V442.141Z" fill="#688FB8"/>
<path d="M1290.09 437.407H1285.03V442.141H1290.09V437.407Z" fill="#688FB8"/>
<path d="M1290.09 442.141H1285.03V451.43H1290.09V442.141Z" fill="#688FB8"/>
<path d="M1295.14 437.407H1290.09V442.141H1295.14V437.407Z" fill="#688FB8"/>
<path d="M1295.14 442.141H1290.09V451.43H1295.14V442.141Z" fill="#688FB8"/>
<path d="M1262.63 458.941H1257.57V463.675H1262.63V458.941Z" fill="#688FB8"/>
<path d="M1262.63 463.675H1257.57V472.966H1262.63V463.675Z" fill="#688FB8"/>
<path d="M1267.68 458.941H1262.62V463.675H1267.68V458.941Z" fill="#688FB8"/>
<path d="M1267.68 463.675H1262.62V472.966H1267.68V463.675Z" fill="#688FB8"/>
<path d="M1272.73 458.941H1267.68V463.675H1272.73V458.941Z" fill="#688FB8"/>
<path d="M1272.73 463.675H1267.68V472.966H1272.73V463.675Z" fill="#688FB8"/>
<path d="M1285.03 458.941H1279.98V463.675H1285.03V458.941Z" fill="#688FB8"/>
<path d="M1285.03 463.675H1279.98V472.966H1285.03V463.675Z" fill="#688FB8"/>
<path d="M1290.09 458.941H1285.03V463.675H1290.09V458.941Z" fill="#688FB8"/>
<path d="M1290.09 463.675H1285.03V472.966H1290.09V463.675Z" fill="#688FB8"/>
<path d="M1295.14 458.941H1290.09V463.675H1295.14V458.941Z" fill="#688FB8"/>
<path d="M1295.14 463.675H1290.09V472.966H1295.14V463.675Z" fill="#688FB8"/>
<path d="M1312.63 428.541L1275.55 400.383L1240.08 427.317L1237.66 424.136L1275.55 395.364L1315.05 425.36L1312.63 428.541Z" fill="#FF908D" fill-opacity="0.6"/>
<path d="M1276.36 428.541C1279.66 428.541 1282.35 425.861 1282.35 422.554C1282.35 419.248 1279.66 416.568 1276.36 416.568C1273.05 416.568 1270.36 419.248 1270.36 422.554C1270.36 425.861 1273.05 428.541 1276.36 428.541Z" fill="#688FB8"/>
<path d="M1262.95 436.469H1262.25V451.641H1262.95V436.469Z" fill="#F7F7F5"/>
<path d="M1256.34 441.949V442.652H1296.37V441.949H1256.34Z" fill="#F7F7F5"/>
<path d="M1268.52 436.469H1267.82V451.641H1268.52V436.469Z" fill="#F7F7F5"/>
<path d="M1285.91 436.469H1285.21V451.641H1285.91V436.469Z" fill="#F7F7F5"/>
<path d="M1291.48 436.469H1290.78V451.641H1291.48V436.469Z" fill="#F7F7F5"/>
<path d="M1262.95 458.554H1262.25V473.726H1262.95V458.554Z" fill="#F7F7F5"/>
<path d="M1256.34 464.035V464.738H1296.37V464.035H1256.34Z" fill="#F7F7F5"/>
<path d="M1268.52 458.554H1267.82V473.726H1268.52V458.554Z" fill="#F7F7F5"/>
<path d="M1285.91 458.554H1285.21V473.726H1285.91V458.554Z" fill="#F7F7F5"/>
<path d="M1291.48 458.554H1290.78V473.726H1291.48V458.554Z" fill="#F7F7F5"/>
<path d="M1128.95 479.267C1128.95 483.963 1128.95 486.945 1128.95 486.945H1189V421.224L1158.98 398.428L1128.95 421.224C1128.95 421.224 1128.95 461.925 1128.95 479.267Z" fill="#F7F7F5"/>
<path d="M1190.97 486.945H1126.98V492.074H1190.97V486.945Z" fill="#E5E5E3"/>
<path d="M1140.19 437.407V451.43H1155.35V437.407H1140.19Z" fill="#688FB8"/>
<path d="M1162.6 437.407V451.43H1177.76V437.407H1162.6Z" fill="#688FB8"/>
<path d="M1145.25 458.941H1140.19V472.964H1155.35V458.941H1145.25Z" fill="#688FB8"/>
<path d="M1162.6 458.941V472.964H1177.76V458.941H1162.6Z" fill="#688FB8"/>
<path d="M1195.25 428.541L1158.17 400.383L1122.7 427.317L1120.28 424.136L1158.17 395.364L1197.67 425.36L1195.25 428.541Z" fill="#FF908D" fill-opacity="0.6"/>
<path d="M1158.98 428.541C1162.28 428.541 1164.97 425.861 1164.97 422.554C1164.97 419.248 1162.28 416.568 1158.98 416.568C1155.67 416.568 1152.98 419.248 1152.98 422.554C1152.98 425.861 1155.67 428.541 1158.98 428.541Z" fill="#688FB8"/>
<path d="M1145.25 436.855H1144.54V452.027H1145.25V436.855Z" fill="#F7F7F5"/>
<path d="M1138.64 442.335V443.039H1178.67V442.335H1138.64Z" fill="#F7F7F5"/>
<path d="M1150.82 436.855H1150.12V452.027H1150.82V436.855Z" fill="#F7F7F5"/>
<path d="M1168.21 436.855H1167.5V452.027H1168.21V436.855Z" fill="#F7F7F5"/>
<path d="M1173.78 436.855H1173.08V452.027H1173.78V436.855Z" fill="#F7F7F5"/>
<path d="M1145.25 458.941H1144.54V474.113H1145.25V458.941Z" fill="#F7F7F5"/>
<path d="M1138.64 464.421V465.124H1178.67V464.421H1138.64Z" fill="#F7F7F5"/>
<path d="M1150.82 458.941H1150.12V474.113H1150.82V458.941Z" fill="#F7F7F5"/>
<path d="M1168.21 458.941H1167.5V474.113H1168.21V458.941Z" fill="#F7F7F5"/>
<path d="M1173.78 458.941H1173.08V474.113H1173.78V458.941Z" fill="#F7F7F5"/>
<path d="M1051.06 433.954H991.017V486.945H1051.06V433.954Z" fill="#E2E2E2"/>
<path d="M1053.04 486.945H989.042V492.074H1053.04V486.945Z" fill="#D3D3D3"/>
<path d="M1019.61 450.41H1007.2V468.677H1019.61V450.41Z" fill="#688FB8"/>
<path d="M1039.89 450.41H1027.47V468.677H1039.89V450.41Z" fill="#688FB8"/>
<path d="M995.054 433.954H935.011V486.945H995.054V433.954Z" fill="#F7F7F5"/>
<path d="M997.03 486.945H933.036V492.074H997.03V486.945Z" fill="#E5E5E3"/>
<path d="M973.544 450.41H956.52V486.945H973.544V450.41Z" fill="#CCCCCA"/>
<path d="M1059.9 436.154H960.569V398.755H1020.71L1059.9 436.154Z" fill="#ED5C58" fill-opacity="0.6"/>
<path d="M960.569 398.755L925.017 436.154H996.122L960.569 398.755Z" fill="#FF695E" fill-opacity="0.6"/>
<path d="M1044.1 457.687H1001.5V459.544H1044.1V457.687Z" fill="#E2E2E2"/>
<path d="M488.062 486.945H424.068V492.074H488.062V486.945Z" fill="#D3D3D3"/>
<path d="M494.135 437.407H398.383V409.133H476.359L494.135 437.407Z" fill="#ED5C58" fill-opacity="0.6"/>
<path d="M488.062 437.407H424.068V486.945H488.062V437.407Z" fill="#E2E2E2"/>
<path d="M457.306 450.41H440.283V486.945H457.306V450.41Z" fill="#B2B2B2"/>
<path d="M368.361 479.714C368.361 484.41 368.361 487.393 368.361 487.393H428.404V434.993L398.383 412.197L368.361 434.993C368.361 434.993 368.361 462.371 368.361 479.714Z" fill="#F7F7F5"/>
<path d="M428.405 486.945H366.386V492.074H428.405V486.945Z" fill="#E5E5E3"/>
<path d="M410.489 442.31H381.554V471.222H410.489V442.31Z" fill="#688FB8"/>
<path d="M434.659 442.31L397.577 414.151L362.107 441.086L359.686 437.903L397.577 409.133L437.08 439.128L434.659 442.31Z" fill="#FF695E" fill-opacity="0.6"/>
<path d="M480.996 450.41H468.583V468.677H480.996V450.41Z" fill="#688FB8"/>
<path d="M414.044 454.086H376.912V455.369H414.044V454.086Z" fill="#F7F7F5"/>
<path d="M388.639 440.172H387.404V473.131H388.639V440.172Z" fill="#F7F7F5"/>
<path d="M396.219 440.172H394.985V473.131H396.219V440.172Z" fill="#F7F7F5"/>
<path d="M404.219 440.172H402.984V473.131H404.219V440.172Z" fill="#F7F7F5"/>
<path d="M483.285 458.501H466.293V459.633H483.285V458.501Z" fill="#E2E2E2"/>
<path d="M567.69 453.472C567.69 467.245 561.434 473.911 553.719 473.911C546.004 473.911 539.749 467.245 539.749 453.472C539.749 439.699 546.004 424.033 553.719 424.033C561.434 424.033 567.69 439.699 567.69 453.472Z" fill="#4BB29E"/>
<path d="M552.214 492.074V444.985C552.214 444.468 552.634 444.049 553.151 444.049C553.668 444.049 554.088 444.468 554.088 444.985V492.074H552.214Z" fill="#2B665B"/>
<path d="M552.821 463.639C552.455 463.274 552.455 462.681 552.821 462.315L561.316 453.827C561.681 453.462 562.274 453.462 562.641 453.827C563.006 454.192 563.006 454.784 562.641 455.151L554.146 463.639C553.779 464.004 553.186 464.004 552.821 463.639Z" fill="#2B665B"/>
<path d="M546.213 436.97C546.213 456.631 537.284 466.146 526.27 466.146C515.256 466.146 506.325 456.631 506.325 436.97C506.325 417.308 515.255 394.946 526.27 394.946C537.285 394.946 546.213 417.308 546.213 436.97Z" fill="#51C5B2"/>
<path d="M525.333 492.074V434.58C525.333 434.063 525.753 433.643 526.27 433.643C526.787 433.643 527.207 434.063 527.207 434.58V492.074H525.333Z" fill="#2B665B"/>
<path d="M525.939 453.234C525.574 452.869 525.574 452.276 525.939 451.91L534.434 443.421C534.8 443.056 535.393 443.056 535.76 443.421C536.125 443.786 536.125 444.379 535.76 444.745L527.265 453.234C526.898 453.599 526.305 453.599 525.939 453.234Z" fill="#2B665B"/>
<path d="M615.725 436.97C615.725 456.631 606.795 466.146 595.781 466.146C584.768 466.146 575.837 456.631 575.837 436.97C575.837 417.308 584.767 394.946 595.781 394.946C606.796 394.946 615.725 417.308 615.725 436.97Z" fill="#51C5B2"/>
<path d="M594.844 492.074V434.58C594.844 434.063 595.264 433.643 595.781 433.643C596.299 433.643 596.719 434.063 596.719 434.58V492.074H594.844Z" fill="#2B665B"/>
<path d="M595.451 453.234C595.086 452.869 595.086 452.276 595.451 451.91L603.946 443.421C604.311 443.056 604.905 443.056 605.27 443.421C605.635 443.786 605.635 444.379 605.27 444.745L596.775 453.234C596.409 453.599 595.816 453.599 595.451 453.234Z" fill="#2B665B"/>
<path d="M1382 453.472C1382 467.245 1375.75 473.911 1368.03 473.911C1360.32 473.911 1354.06 467.245 1354.06 453.472C1354.06 439.699 1360.32 424.033 1368.03 424.033C1375.75 424.033 1382 439.699 1382 453.472Z" fill="#4BB29E"/>
<path d="M1366.53 492.074V444.985C1366.53 444.468 1366.95 444.049 1367.47 444.049C1367.98 444.049 1368.4 444.468 1368.4 444.985V492.074H1366.53Z" fill="#2B665B"/>
<path d="M1367.14 463.639C1366.77 463.274 1366.77 462.681 1367.14 462.315L1375.63 453.827C1376 453.462 1376.59 453.462 1376.96 453.827C1377.32 454.192 1377.32 454.784 1376.96 455.151L1368.46 463.639C1368.09 464.004 1367.5 464.004 1367.14 463.639Z" fill="#2B665B"/>
<path d="M1360.53 436.97C1360.53 456.631 1351.6 466.146 1340.58 466.146C1329.57 466.146 1320.64 456.631 1320.64 436.97C1320.64 417.308 1329.57 394.946 1340.58 394.946C1351.6 394.946 1360.53 417.308 1360.53 436.97Z" fill="#51C5B2"/>
<path d="M1339.65 492.074V434.58C1339.65 434.063 1340.07 433.643 1340.58 433.643C1341.1 433.643 1341.52 434.063 1341.52 434.58V492.074H1339.65Z" fill="#2B665B"/>
<path d="M1340.25 453.234C1339.89 452.869 1339.89 452.276 1340.25 451.91L1348.75 443.421C1349.11 443.056 1349.71 443.056 1350.07 443.421C1350.44 443.786 1350.44 444.379 1350.07 444.745L1341.58 453.234C1341.21 453.599 1340.62 453.599 1340.25 453.234Z" fill="#2B665B"/>
<path d="M1430.04 436.97C1430.04 456.631 1421.11 466.146 1410.1 466.146C1399.08 466.146 1390.15 456.631 1390.15 436.97C1390.15 417.308 1399.08 394.946 1410.1 394.946C1421.11 394.946 1430.04 417.308 1430.04 436.97Z" fill="#51C5B2"/>
<path d="M1409.16 492.074V434.58C1409.16 434.063 1409.58 433.643 1410.1 433.643C1410.62 433.643 1411.04 434.063 1411.04 434.58V492.074H1409.16Z" fill="#2B665B"/>
<path d="M1409.77 453.234C1409.4 452.869 1409.4 452.276 1409.77 451.91L1418.26 443.421C1418.63 443.056 1419.22 443.056 1419.59 443.421C1419.95 443.786 1419.95 444.379 1419.59 444.745L1411.09 453.234C1410.72 453.599 1410.13 453.599 1409.77 453.234Z" fill="#2B665B"/>
<path d="M345.241 453.472C345.241 467.245 338.985 473.911 331.27 473.911C323.555 473.911 317.299 467.245 317.299 453.472C317.299 439.699 323.555 424.033 331.27 424.033C338.985 424.033 345.241 439.699 345.241 453.472Z" fill="#4BB29E"/>
<path d="M329.765 492.074V444.985C329.765 444.468 330.185 444.049 330.702 444.049C331.219 444.049 331.639 444.468 331.639 444.985V492.074H329.765Z" fill="#2B665B"/>
<path d="M330.371 463.639C330.006 463.274 330.006 462.681 330.371 462.315L338.867 453.827C339.232 453.462 339.825 453.462 340.192 453.827C340.557 454.192 340.557 454.784 340.192 455.151L331.697 463.639C331.33 464.004 330.737 464.004 330.371 463.639Z" fill="#2B665B"/>
<path d="M323.764 436.97C323.764 456.631 314.834 466.146 303.821 466.146C292.807 466.146 283.878 456.631 283.878 436.97C283.878 417.308 292.807 394.946 303.821 394.946C314.834 394.946 323.764 417.308 323.764 436.97Z" fill="#51C5B2"/>
<path d="M302.884 492.074V434.58C302.884 434.063 303.304 433.643 303.821 433.643C304.338 433.643 304.758 434.063 304.758 434.58V492.074H302.884Z" fill="#2B665B"/>
<path d="M303.489 453.234C303.124 452.869 303.124 452.276 303.489 451.91L311.984 443.421C312.349 443.056 312.943 443.056 313.309 443.421C313.674 443.786 313.674 444.379 313.309 444.745L304.814 453.234C304.449 453.599 303.855 453.599 303.489 453.234Z" fill="#2B665B"/>
<path d="M897.157 453.472C897.157 467.245 890.902 473.911 883.187 473.911C875.471 473.911 869.216 467.245 869.216 453.472C869.216 439.699 875.471 424.033 883.187 424.033C890.902 424.033 897.157 439.699 897.157 453.472Z" fill="#4BB29E"/>
<path d="M882.659 492.074V437.32C882.659 436.719 883.079 436.232 883.596 436.232C884.113 436.232 884.533 436.719 884.533 437.32V492.074H882.659Z" fill="#2B665B"/>
<path d="M883.265 459.01C882.9 458.585 882.9 457.896 883.265 457.471L891.76 447.6C892.126 447.175 892.719 447.175 893.086 447.6C893.451 448.025 893.451 448.714 893.086 449.139L884.59 459.01C884.224 459.435 883.631 459.435 883.265 459.01Z" fill="#2B665B"/>
<path d="M875.681 436.97C875.681 456.631 866.751 466.146 855.737 466.146C844.724 466.146 835.794 456.631 835.794 436.97C835.794 417.308 844.724 394.946 855.737 394.946C866.751 394.946 875.681 417.308 875.681 436.97Z" fill="#51C5B2"/>
<path d="M854.8 492.074V434.58C854.8 434.063 855.22 433.643 855.737 433.643C856.255 433.643 856.675 434.063 856.675 434.58V492.074H854.8Z" fill="#2B665B"/>
<path d="M855.405 453.234C855.04 452.869 855.04 452.276 855.405 451.91L863.901 443.421C864.266 443.056 864.859 443.056 865.226 443.421C865.591 443.786 865.591 444.379 865.226 444.745L856.731 453.234C856.365 453.599 855.772 453.599 855.405 453.234Z" fill="#2B665B"/>
<path d="M60.5231 436.97C60.5231 456.631 51.5934 466.146 40.5798 466.146C29.5663 466.146 20.6365 456.631 20.6365 436.97C20.6365 417.308 29.5663 394.946 40.5798 394.946C51.5934 394.946 60.5231 417.308 60.5231 436.97Z" fill="#51C5B2"/>
<path d="M39.6426 492.074V434.58C39.6426 434.063 40.0625 433.643 40.5798 433.643C41.0971 433.643 41.5171 434.063 41.5171 434.58V492.074H39.6426Z" fill="#2B665B"/>
<path d="M40.2492 453.234C39.8839 452.869 39.8839 452.276 40.2492 451.91L48.7443 443.421C49.1096 443.056 49.7029 443.056 50.0695 443.421C50.4348 443.786 50.4348 444.379 50.0695 444.745L41.5744 453.234C41.2078 453.599 40.6145 453.599 40.2492 453.234Z" fill="#2B665B"/>
<path d="M1099.18 436.97C1099.18 456.631 1090.25 466.146 1079.24 466.146C1068.22 466.146 1059.29 456.631 1059.29 436.97C1059.29 417.308 1068.22 394.946 1079.24 394.946C1090.25 394.946 1099.18 417.308 1099.18 436.97Z" fill="#51C5B2"/>
<path d="M1078.3 492.074V434.58C1078.3 434.063 1078.72 433.643 1079.24 433.643C1079.76 433.643 1080.18 434.063 1080.18 434.58V492.074H1078.3Z" fill="#2B665B"/>
<path d="M1078.91 453.234C1078.54 452.869 1078.54 452.276 1078.91 451.91L1087.4 443.421C1087.77 443.056 1088.36 443.056 1088.73 443.421C1089.09 443.786 1089.09 444.379 1088.73 444.745L1080.23 453.234C1079.87 453.599 1079.27 453.599 1078.91 453.234Z" fill="#2B665B"/>
<path d="M670.034 400.008H782.048M670.034 400.008V437.407H782.048V400.008M670.034 400.008L634.483 437.407H705.586L670.034 400.008ZM782.048 400.008L746.495 437.407H817.6L782.048 400.008ZM721.533 455.855V450.41H712.196V455.855M721.533 455.855H712.196M721.533 455.855V466.539H712.196V455.855M742.521 455.855V450.41H733.185V455.855M742.521 455.855H733.185M742.521 455.855V466.539H733.185V455.855M654.242 450.41H648.432V455.855M654.242 450.41V455.855M654.242 450.41H660.052M654.242 455.855H648.432M654.242 455.855V466.539M654.242 455.855H660.052M648.432 455.855V466.539H654.242M654.242 466.539H660.052M660.052 450.41V455.855M660.052 450.41H665.862V455.855M660.052 455.855V466.539M660.052 455.855H665.862M660.052 466.539H665.862V455.855M680.017 450.41H674.207V455.855M680.017 450.41V455.855M680.017 450.41H685.827M680.017 455.855H674.207M680.017 455.855V466.539M680.017 455.855H685.827M674.207 455.855V466.539H680.017M680.017 466.539H685.827M685.827 450.41V455.855M685.827 450.41H691.637V455.855M685.827 455.855V466.539M685.827 455.855H691.637M685.827 466.539H691.637V455.855M215.956 437.407H210.905V442.141M215.956 437.407V442.141M215.956 437.407H221.008M215.956 442.141H210.905M215.956 442.141V451.43M215.956 442.141H221.008M210.905 442.141V451.43H215.956M215.956 451.43H221.008M221.008 437.407V442.141M221.008 437.407H226.059V442.141M221.008 442.141V451.43M221.008 442.141H226.059M221.008 451.43H226.059V442.141M238.365 437.407H233.313V442.141M238.365 437.407V442.141M238.365 437.407H243.416M238.365 442.141H233.313M238.365 442.141V451.43M238.365 442.141H243.416M233.313 442.141V451.43H238.365M238.365 451.43H243.416M243.416 437.407V442.141M243.416 437.407H248.468V442.141M243.416 442.141V451.43M243.416 442.141H248.468M243.416 451.43H248.468V442.141M215.956 458.941H210.905V463.675M215.956 458.941V463.675M215.956 458.941H221.008M215.956 463.675H210.905M215.956 463.675V472.966M215.956 463.675H221.008M210.905 463.675V472.966H215.956M215.956 472.966H221.008M221.008 458.941V463.675M221.008 458.941H226.059V463.675M221.008 463.675V472.966M221.008 463.675H226.059M221.008 472.966H226.059V463.675M238.365 458.941H233.313V463.675M238.365 458.941V463.675M238.365 458.941H243.416M238.365 463.675H233.313M238.365 463.675V472.966M238.365 463.675H243.416M233.313 463.675V472.966H238.365M238.365 472.966H243.416M243.416 458.941V463.675M243.416 458.941H248.468V463.675M243.416 463.675V472.966M243.416 463.675H248.468M243.416 472.966H248.468V463.675M98.5765 458.941H93.5264V472.964H108.68V458.941H98.5765ZM98.5765 458.941H97.8739V474.113H98.5779L98.5765 458.941ZM1262.63 442.141V437.407H1257.57V442.141M1262.63 442.141H1257.57M1262.63 442.141V451.43H1257.57V442.141M1267.68 437.407H1262.62V442.141M1267.68 437.407V442.141M1267.68 437.407H1272.73V442.141M1267.68 442.141H1262.62M1267.68 442.141V451.43M1267.68 442.141H1272.73M1262.62 442.141V451.43H1267.68M1267.68 451.43H1272.73V442.141M1285.03 437.407H1279.98V442.141M1285.03 437.407V442.141M1285.03 437.407H1290.09M1285.03 442.141H1279.98M1285.03 442.141V451.43M1285.03 442.141H1290.09M1279.98 442.141V451.43H1285.03M1285.03 451.43H1290.09M1290.09 437.407V442.141M1290.09 437.407H1295.14V442.141M1290.09 442.141V451.43M1290.09 442.141H1295.14M1290.09 451.43H1295.14V442.141M1262.63 463.675V458.941H1257.57V463.675M1262.63 463.675H1257.57M1262.63 463.675V472.966H1257.57V463.675M1267.68 458.941H1262.62V463.675M1267.68 458.941V463.675M1267.68 458.941H1272.73V463.675M1267.68 463.675H1262.62M1267.68 463.675V472.966M1267.68 463.675H1272.73M1262.62 463.675V472.966H1267.68M1267.68 472.966H1272.73V463.675M1285.03 458.941H1279.98V463.675M1285.03 458.941V463.675M1285.03 458.941H1290.09M1285.03 463.675H1279.98M1285.03 463.675V472.966M1285.03 463.675H1290.09M1279.98 463.675V472.966H1285.03M1285.03 472.966H1290.09M1290.09 458.941V463.675M1290.09 458.941H1295.14V463.675M1290.09 463.675V472.966M1290.09 463.675H1295.14M1290.09 472.966H1295.14V463.675M1145.25 458.941H1140.19V472.964H1155.35V458.941H1145.25ZM1145.25 458.941H1144.54V474.113H1145.25V458.941ZM960.569 398.755V436.154H1059.9L1020.71 398.755H960.569ZM960.569 398.755L925.017 436.154H996.122L960.569 398.755ZM424.068 486.945H488.062M424.068 486.945V492.074H488.062V486.945M424.068 486.945V437.407H488.062V486.945M0 492.407H1439.85M266.953 324.058H224.948V362.689H211.306V257.593H185.928L183.294 264.361H162.975V359.739H154.691V303.822L144.484 296.698H89.1535V383.989H77.96V329.53L66.3332 324.484V324.058H16.0677V361.025H2.1531V494H279.549V329.53L266.953 324.063V324.058ZM493.22 347.969H473.455V276.846L463.035 273.175V272.918H398.991V330.352H377.588V301.941L373.072 297.306V296.698H326.369V359.681H289.297V381.114H279.559V494H290.096L493.22 493.411V347.969ZM58.9646 339.203H22.4537V332.037H58.9646V339.203ZM58.9646 343.6H22.4537V350.766H58.9646V343.6ZM58.9646 355.163H22.4537V362.329H58.9646V355.163ZM58.9646 366.725H22.4537V373.891H58.9646V366.725ZM58.9646 378.288H22.4537V385.454H58.9646V378.288ZM318.883 364.846H294.176V372.011H318.883V364.846ZM318.883 376.409H294.176V383.574H318.883V376.409ZM238.542 332.037H231.335V339.203H238.542V332.037ZM247.856 332.037H240.649V339.203H247.856V332.037ZM257.17 332.037H249.962V339.203H257.17V332.037ZM238.542 341.438H231.335V348.604H238.542V341.438ZM247.856 341.438H240.649V348.604H247.856V341.438ZM257.17 341.438H249.962V348.604H257.17V341.438ZM238.542 350.838H231.335V358.004H238.542V350.838ZM247.856 350.838H240.649V358.004H247.856V350.838ZM257.17 350.838H249.962V358.004H257.17V350.838ZM238.542 360.239H231.335V367.405H238.542V360.239ZM247.856 360.239H240.649V367.405H247.856V360.239ZM257.17 360.239H249.962V367.405H257.17V360.239ZM238.542 369.639H231.335V376.804H238.542V369.639ZM247.856 369.639H240.649V376.804H247.856V369.639ZM257.17 369.639H249.962V376.804H257.17V369.639ZM238.542 379.04H231.335V386.205H238.542V379.04ZM247.856 379.04H240.649V386.205H247.856V379.04ZM257.17 379.04H249.962V386.205H257.17V379.04ZM108.134 305.246H98.2859V334.453H108.134V305.246ZM108.134 341.219H98.2859V370.425H108.134V341.219ZM122.459 305.246H112.611V334.453H122.459V305.246ZM122.459 341.219H112.611V370.425H122.459V341.219ZM136.785 305.246H126.936V334.453H136.785V305.246ZM136.785 341.219H126.936V370.425H136.785V341.219ZM181.096 268.303H165.899V272.822H181.096V268.303ZM192.854 268.327H188.526V381.703H192.854V268.327ZM335.442 302.631H331.114V385.567H335.442V302.631ZM344.097 302.821H339.769V385.756H344.097V302.821ZM352.752 303.01H348.424V385.946H352.752V303.01ZM361.407 303.199H357.079V386.135H361.407V303.199ZM370.062 303.388H365.734V386.324H370.062V303.388ZM200.191 268.327H195.864V381.703H200.191V268.327ZM207.529 268.327H203.202V381.703H207.529V268.327ZM181.096 280.712H165.899V285.231H181.096V280.712ZM181.096 293.12H165.899V297.639H181.096V293.12ZM181.096 305.529H165.899V310.048H181.096V305.529ZM181.096 317.937H165.899V322.455H181.096V317.937ZM181.096 330.346H165.899V334.864H181.096V330.346ZM181.096 342.755H165.899V347.273H181.096V342.755ZM181.096 355.162H165.899V359.681H181.096V355.162ZM413.865 279.384H404.361V288.832H413.865V279.384ZM427.641 279.384H418.137V288.832H427.641V279.384ZM441.416 279.384H431.912V288.832H441.416V279.384ZM454.589 279.384H445.085V288.832H454.589V279.384ZM413.865 295.298H404.361V304.746H413.865V295.298ZM427.641 295.298H418.137V304.746H427.641V295.298ZM441.416 295.298H431.912V304.746H441.416V295.298ZM454.589 295.298H445.085V304.746H454.589V295.298ZM413.865 311.212H404.361V320.659H413.865V311.212ZM427.641 311.212H418.137V320.659H427.641V311.212ZM441.416 311.212H431.912V320.659H441.416V311.212ZM454.589 311.212H445.085V320.659H454.589V311.212ZM413.865 327.126H404.361V336.573H413.865V327.126ZM427.641 327.126H418.137V336.573H427.641V327.126ZM441.416 327.126H431.912V336.573H441.416V327.126ZM454.589 327.126H445.085V336.573H454.589V327.126ZM413.865 343.04H404.361V352.487H413.865V343.04ZM427.641 343.04H418.137V352.487H427.641V343.04ZM441.416 343.04H431.912V352.487H441.416V343.04ZM454.589 343.04H445.085V352.487H454.589V343.04ZM413.865 358.953H404.361V368.401H413.865V358.953ZM427.641 358.953H418.137V368.401H427.641V358.953ZM441.416 358.953H431.912V368.401H441.416V358.953ZM454.589 358.953H445.085V368.401H454.589V358.953ZM1213.73 324.058H1171.73V362.689H1158.09V257.593H1132.71L1130.07 264.361H1109.76V359.739H1101.47V303.822L1091.26 296.698H1035.93V383.989H1024.74V329.53L1013.11 324.484V324.058H962.848V361.025H948.933V494H1226.33V329.53L1213.73 324.063V324.058ZM1440 347.969H1420.24V276.846L1409.82 273.175V272.918H1345.77V330.352H1324.37V301.941L1319.85 297.306V296.698H1273.15V359.681H1236.08V381.114H1226.34V494H1236.88L1440 493.411V347.969ZM1005.74 339.203H969.234V332.037H1005.74V339.203ZM1005.74 343.6H969.234V350.766H1005.74V343.6ZM1005.74 355.163H969.234V362.329H1005.74V355.163ZM1005.74 366.725H969.234V373.891H1005.74V366.725ZM1005.74 378.288H969.234V385.454H1005.74V378.288ZM1265.66 364.846H1240.96V372.011H1265.66V364.846ZM1265.66 376.409H1240.96V383.574H1265.66V376.409ZM1185.32 332.037H1178.11V339.203H1185.32V332.037ZM1194.64 332.037H1187.43V339.203H1194.64V332.037ZM1203.95 332.037H1196.74V339.203H1203.95V332.037ZM1185.32 341.438H1178.11V348.604H1185.32V341.438ZM1194.64 341.438H1187.43V348.604H1194.64V341.438ZM1203.95 341.438H1196.74V348.604H1203.95V341.438ZM1185.32 350.838H1178.11V358.004H1185.32V350.838ZM1194.64 350.838H1187.43V358.004H1194.64V350.838ZM1203.95 350.838H1196.74V358.004H1203.95V350.838ZM1185.32 360.239H1178.11V367.405H1185.32V360.239ZM1194.64 360.239H1187.43V367.405H1194.64V360.239ZM1203.95 360.239H1196.74V367.405H1203.95V360.239ZM1185.32 369.639H1178.11V376.804H1185.32V369.639ZM1194.64 369.639H1187.43V376.804H1194.64V369.639ZM1203.95 369.639H1196.74V376.804H1203.95V369.639ZM1185.32 379.04H1178.11V386.205H1185.32V379.04ZM1194.64 379.04H1187.43V386.205H1194.64V379.04ZM1203.95 379.04H1196.74V386.205H1203.95V379.04ZM1054.91 305.246H1045.07V334.453H1054.91V305.246ZM1054.91 341.219H1045.07V370.425H1054.91V341.219ZM1069.24 305.246H1059.39V334.453H1069.24V305.246ZM1069.24 341.219H1059.39V370.425H1069.24V341.219ZM1083.56 305.246H1073.72V334.453H1083.56V305.246ZM1083.56 341.219H1073.72V370.425H1083.56V341.219ZM1127.88 268.303H1112.68V272.822H1127.88V268.303ZM1139.64 268.327H1135.31V381.703H1139.64V268.327ZM1282.22 302.631H1277.89V385.567H1282.22V302.631ZM1290.88 302.821H1286.55V385.756H1290.88V302.821ZM1299.53 303.01H1295.2V385.946H1299.53V303.01ZM1308.19 303.199H1303.86V386.135H1308.19V303.199ZM1316.84 303.388H1312.51V386.324H1316.84V303.388ZM1146.97 268.327H1142.65V381.703H1146.97V268.327ZM1154.31 268.327H1149.98V381.703H1154.31V268.327ZM1127.88 280.712H1112.68V285.231H1127.88V280.712ZM1127.88 293.12H1112.68V297.639H1127.88V293.12ZM1127.88 305.529H1112.68V310.048H1127.88V305.529ZM1127.88 317.937H1112.68V322.455H1127.88V317.937ZM1127.88 330.346H1112.68V334.864H1127.88V330.346ZM1127.88 342.755H1112.68V347.273H1127.88V342.755ZM1127.88 355.162H1112.68V359.681H1127.88V355.162ZM1360.65 279.384H1351.14V288.832H1360.65V279.384ZM1374.42 279.384H1364.92V288.832H1374.42V279.384ZM1388.2 279.384H1378.69V288.832H1388.2V279.384ZM1401.37 279.384H1391.87V288.832H1401.37V279.384ZM1360.65 295.298H1351.14V304.746H1360.65V295.298ZM1374.42 295.298H1364.92V304.746H1374.42V295.298ZM1388.2 295.298H1378.69V304.746H1388.2V295.298ZM1401.37 295.298H1391.87V304.746H1401.37V295.298ZM1360.65 311.212H1351.14V320.659H1360.65V311.212ZM1374.42 311.212H1364.92V320.659H1374.42V311.212ZM1388.2 311.212H1378.69V320.659H1388.2V311.212ZM1401.37 311.212H1391.87V320.659H1401.37V311.212ZM1360.65 327.126H1351.14V336.573H1360.65V327.126ZM1374.42 327.126H1364.92V336.573H1374.42V327.126ZM1388.2 327.126H1378.69V336.573H1388.2V327.126ZM1401.37 327.126H1391.87V336.573H1401.37V327.126ZM1360.65 343.04H1351.14V352.487H1360.65V343.04ZM1374.42 343.04H1364.92V352.487H1374.42V343.04ZM1388.2 343.04H1378.69V352.487H1388.2V343.04ZM1401.37 343.04H1391.87V352.487H1401.37V343.04ZM1360.65 358.953H1351.14V368.401H1360.65V358.953ZM1374.42 358.953H1364.92V368.401H1374.42V358.953ZM1388.2 358.953H1378.69V368.401H1388.2V358.953ZM1401.37 358.953H1391.87V368.401H1401.37V358.953ZM723.482 324.058H681.477V362.689H667.835V257.593H642.457L639.822 264.361H619.504V359.739H611.22V303.822L601.013 296.698H545.681V383.989H534.488V329.53L522.862 324.484V324.058H472.595V361.025H458.682V494H736.078V329.53L723.482 324.063V324.058ZM949.748 347.969H929.984V276.846L919.564 273.175V272.918H855.52V330.352H834.117V301.941L829.602 297.306V296.698H782.898V359.681H745.825V381.114H736.088V494H746.625L949.748 493.411V347.969ZM515.492 339.203H478.981V332.037H515.492V339.203ZM515.492 343.6H478.981V350.766H515.492V343.6ZM515.492 355.163H478.981V362.329H515.492V355.163ZM515.492 366.725H478.981V373.891H515.492V366.725ZM515.492 378.288H478.981V385.454H515.492V378.288ZM775.412 364.846H750.706V372.011H775.412V364.846ZM775.412 376.409H750.706V383.574H775.412V376.409ZM695.07 332.037H687.863V339.203H695.07V332.037ZM704.384 332.037H697.176V339.203H704.384V332.037ZM713.697 332.037H706.49V339.203H713.697V332.037ZM695.07 341.438H687.863V348.604H695.07V341.438ZM704.384 341.438H697.176V348.604H704.384V341.438ZM713.697 341.438H706.49V348.604H713.697V341.438ZM695.07 350.838H687.863V358.004H695.07V350.838ZM704.384 350.838H697.176V358.004H704.384V350.838ZM713.697 350.838H706.49V358.004H713.697V350.838ZM695.07 360.239H687.863V367.405H695.07V360.239ZM704.384 360.239H697.176V367.405H704.384V360.239ZM713.697 360.239H706.49V367.405H713.697V360.239ZM695.07 369.639H687.863V376.804H695.07V369.639ZM704.384 369.639H697.176V376.804H704.384V369.639ZM713.697 369.639H706.49V376.804H713.697V369.639ZM695.07 379.04H687.863V386.205H695.07V379.04ZM704.384 379.04H697.176V386.205H704.384V379.04ZM713.697 379.04H706.49V386.205H713.697V379.04ZM564.662 305.246H554.814V334.453H564.662V305.246ZM564.662 341.219H554.814V370.425H564.662V341.219ZM578.987 305.246H569.139V334.453H578.987V305.246ZM578.987 341.219H569.139V370.425H578.987V341.219ZM593.312 305.246H583.464V334.453H593.312V305.246ZM593.312 341.219H583.464V370.425H593.312V341.219ZM637.625 268.303H622.428V272.822H637.625V268.303ZM649.383 268.327H645.055V381.703H649.383V268.327ZM791.971 302.631H787.643V385.567H791.971V302.631ZM800.626 302.821H796.298V385.756H800.626V302.821ZM809.281 303.01H804.953V385.946H809.281V303.01ZM817.936 303.199H813.608V386.135H817.936V303.199ZM826.591 303.388H822.264V386.324H826.591V303.388ZM656.721 268.327H652.393V381.703H656.721V268.327ZM664.058 268.327H659.731V381.703H664.058V268.327ZM637.625 280.712H622.428V285.231H637.625V280.712ZM637.625 293.12H622.428V297.639H637.625V293.12ZM637.625 305.529H622.428V310.048H637.625V305.529ZM637.625 317.937H622.428V322.455H637.625V317.937ZM637.625 330.346H622.428V334.864H637.625V330.346ZM637.625 342.755H622.428V347.273H637.625V342.755ZM637.625 355.162H622.428V359.681H637.625V355.162ZM870.395 279.384H860.89V288.832H870.395V279.384ZM884.169 279.384H874.665V288.832H884.169V279.384ZM897.945 279.384H888.441V288.832H897.945V279.384ZM911.118 279.384H901.614V288.832H911.118V279.384ZM870.395 295.298H860.89V304.746H870.395V295.298ZM884.169 295.298H874.665V304.746H884.169V295.298ZM897.945 295.298H888.441V304.746H897.945V295.298ZM911.118 295.298H901.614V304.746H911.118V295.298ZM870.395 311.212H860.89V320.659H870.395V311.212ZM884.169 311.212H874.665V320.659H884.169V311.212ZM897.945 311.212H888.441V320.659H897.945V311.212ZM911.118 311.212H901.614V320.659H911.118V311.212ZM870.395 327.126H860.89V336.573H870.395V327.126ZM884.169 327.126H874.665V336.573H884.169V327.126ZM897.945 327.126H888.441V336.573H897.945V327.126ZM911.118 327.126H901.614V336.573H911.118V327.126ZM870.395 343.04H860.89V352.487H870.395V343.04ZM884.169 343.04H874.665V352.487H884.169V343.04ZM897.945 343.04H888.441V352.487H897.945V343.04ZM911.118 343.04H901.614V352.487H911.118V343.04ZM870.395 358.953H860.89V368.401H870.395V358.953ZM884.169 358.953H874.665V368.401H884.169V358.953ZM897.945 358.953H888.441V368.401H897.945V358.953ZM911.118 358.953H901.614V368.401H911.118V358.953ZM696.019 433.954H756.062V486.945H696.019V433.954ZM694.045 486.945H758.038V492.074H694.045V486.945ZM640.013 433.954H700.056V486.945H640.013V433.954ZM638.037 486.945H702.031V492.074H638.037V486.945ZM752.025 433.954H812.069V486.945H752.025V433.954ZM773.579 451.763H793.676V486.945H773.579V451.763ZM771.605 451.763H795.652V456.295H771.605V451.763ZM750.051 486.945H814.044V492.074H750.051V486.945ZM653.859 450.41H654.638V467.858H653.859V450.41ZM647.32 457.521V456.712H691.637V457.521H647.32ZM660.03 450.41H660.808V467.858H660.03V450.41ZM679.277 450.41H680.055V467.858H679.277V450.41ZM685.447 450.41H686.226V467.858H685.447V450.41ZM743.693 456.493V457.271H711.449V456.493H743.693ZM129.073 413.674H210.905V486.947H129.073V413.674ZM137.992 428.541H201.986V488.365H137.992V428.541ZM159.441 450.41H180.537V486.945H159.441V450.41ZM157.96 450.41H182.019V453.729H157.96V450.41ZM137.992 486.945H201.986V492.074H137.992V486.945ZM199.665 479.267C199.665 483.963 199.665 486.945 199.665 486.945H259.708V421.224L229.686 398.428L199.663 421.224C199.663 421.224 199.665 461.925 199.665 479.267ZM197.689 486.945H261.682V492.074H197.689V486.945ZM265.963 428.541L228.88 400.383L193.409 427.317L190.99 424.136L228.88 395.364L268.383 425.36L265.963 428.541ZM235.677 422.554C235.677 425.861 232.995 428.541 229.686 428.541C226.377 428.541 223.694 425.861 223.694 422.554C223.694 419.248 226.377 416.568 229.686 416.568C232.995 416.568 235.677 419.248 235.677 422.554ZM215.577 436.469H216.28V451.641H215.577V436.469ZM209.67 442.652V441.948H249.703V442.652H209.67ZM221.151 436.469H221.855V451.641H221.151V436.469ZM238.537 436.469H239.241V451.641H238.537V436.469ZM244.111 436.469H244.815V451.641H244.111V436.469ZM215.577 458.554H216.28V473.726H215.577V458.554ZM209.67 464.737V464.034H249.703V464.737H209.67ZM221.151 458.554H221.855V473.726H221.151V458.554ZM238.537 458.554H239.241V473.726H238.537V458.554ZM244.111 458.554H244.815V473.726H244.111V458.554ZM82.2849 479.267C82.2849 483.963 82.2849 486.945 82.2849 486.945H142.328V421.224L112.306 398.428L82.2849 421.224C82.2849 421.224 82.2849 461.925 82.2849 479.267ZM80.3104 486.945H144.304V492.074H80.3104V486.945ZM93.5264 437.407H108.68V451.43H93.5264V437.407ZM115.935 437.407H131.088V451.43H115.935V437.407ZM115.935 458.941H131.088V472.964H115.935V458.941ZM148.583 428.541L111.501 400.383L76.0295 427.317L73.6098 424.136L111.501 395.364L151.004 425.36L148.583 428.541ZM118.299 422.554C118.299 425.861 115.616 428.541 112.307 428.541C108.998 428.541 106.316 425.861 106.316 422.554C106.316 419.248 108.998 416.568 112.307 416.568C115.616 416.568 118.299 419.248 118.299 422.554ZM97.8739 436.855H98.5779V452.027H97.8739V436.855ZM91.9667 443.038V442.335H132V443.038H91.9667ZM103.447 436.855H104.151V452.027H103.447V436.855ZM120.834 436.855H121.538V452.027H120.834V436.855ZM126.407 436.855H127.111V452.027H126.407V436.855ZM91.9668 465.124V464.42H132V465.124H91.9668ZM103.447 458.941H104.151V474.113H103.447V458.941ZM120.834 458.941H121.538V474.113H120.834V458.941ZM126.407 458.941H127.111V474.113H126.407V458.941ZM1175.74 413.674H1257.57V486.947H1175.74V413.674ZM1184.66 428.541H1248.66V488.365H1184.66V428.541ZM1206.11 450.41H1227.21V486.945H1206.11V450.41ZM1204.63 450.41H1228.69V453.729H1204.63V450.41ZM1184.66 486.945H1248.66V492.074H1184.66V486.945ZM1246.33 479.267C1246.33 483.963 1246.33 486.945 1246.33 486.945H1306.38V421.224L1276.36 398.428L1246.33 421.224C1246.33 421.224 1246.33 461.925 1246.33 479.267ZM1244.36 486.945H1308.35V492.074H1244.36V486.945ZM1312.63 428.541L1275.55 400.383L1240.08 427.317L1237.66 424.136L1275.55 395.364L1315.05 425.36L1312.63 428.541ZM1282.35 422.554C1282.35 425.861 1279.66 428.541 1276.36 428.541C1273.05 428.541 1270.36 425.861 1270.36 422.554C1270.36 419.248 1273.05 416.568 1276.36 416.568C1279.66 416.568 1282.35 419.248 1282.35 422.554ZM1262.25 436.469H1262.95V451.641H1262.25V436.469ZM1256.34 442.652V441.949H1296.37V442.652H1256.34ZM1267.82 436.469H1268.52V451.641H1267.82V436.469ZM1285.21 436.469H1285.91V451.641H1285.21V436.469ZM1290.78 436.469H1291.48V451.641H1290.78V436.469ZM1262.25 458.554H1262.95V473.726H1262.25V458.554ZM1256.34 464.738V464.035H1296.37V464.738H1256.34ZM1267.82 458.554H1268.52V473.726H1267.82V458.554ZM1285.21 458.554H1285.91V473.726H1285.21V458.554ZM1290.78 458.554H1291.48V473.726H1290.78V458.554ZM1128.95 479.267C1128.95 483.963 1128.95 486.945 1128.95 486.945H1189V421.224L1158.98 398.428L1128.95 421.224C1128.95 421.224 1128.95 461.925 1128.95 479.267ZM1126.98 486.945H1190.97V492.074H1126.98V486.945ZM1140.19 437.407H1155.35V451.43H1140.19V437.407ZM1162.6 437.407H1177.76V451.43H1162.6V437.407ZM1162.6 458.941H1177.76V472.964H1162.6V458.941ZM1195.25 428.541L1158.17 400.383L1122.7 427.317L1120.28 424.136L1158.17 395.364L1197.67 425.36L1195.25 428.541ZM1164.97 422.554C1164.97 425.861 1162.28 428.541 1158.98 428.541C1155.67 428.541 1152.98 425.861 1152.98 422.554C1152.98 419.248 1155.67 416.568 1158.98 416.568C1162.28 416.568 1164.97 419.248 1164.97 422.554ZM1144.54 436.855H1145.25V452.027H1144.54V436.855ZM1138.64 443.039V442.335H1178.67V443.039H1138.64ZM1150.12 436.855H1150.82V452.027H1150.12V436.855ZM1167.5 436.855H1168.21V452.027H1167.5V436.855ZM1173.08 436.855H1173.78V452.027H1173.08V436.855ZM1138.64 465.124V464.421H1178.67V465.124H1138.64ZM1150.12 458.941H1150.82V474.113H1150.12V458.941ZM1167.5 458.941H1168.21V474.113H1167.5V458.941ZM1173.08 458.941H1173.78V474.113H1173.08V458.941ZM991.017 433.954H1051.06V486.945H991.017V433.954ZM989.042 486.945H1053.04V492.074H989.042V486.945ZM1007.2 450.41H1019.61V468.677H1007.2V450.41ZM1027.47 450.41H1039.89V468.677H1027.47V450.41ZM935.011 433.954H995.054V486.945H935.011V433.954ZM933.036 486.945H997.03V492.074H933.036V486.945ZM956.52 450.41H973.544V486.945H956.52V450.41ZM1001.5 457.687H1044.1V459.544H1001.5V457.687ZM494.135 437.407H398.383V409.133H476.359L494.135 437.407ZM440.283 450.41H457.306V486.945H440.283V450.41ZM368.361 479.714C368.361 484.41 368.361 487.393 368.361 487.393H428.404V434.993L398.383 412.197L368.361 434.993C368.361 434.993 368.361 462.371 368.361 479.714ZM366.386 486.945H428.405V492.074H366.386V486.945ZM381.554 442.31H410.489V471.222H381.554V442.31ZM434.659 442.31L397.577 414.151L362.107 441.086L359.686 437.903L397.577 409.133L437.08 439.128L434.659 442.31ZM468.583 450.41H480.996V468.677H468.583V450.41ZM376.912 454.086H414.044V455.369H376.912V454.086ZM387.404 440.172H388.639V473.131H387.404V440.172ZM394.985 440.172H396.219V473.131H394.985V440.172ZM402.984 440.172H404.219V473.131H402.984V440.172ZM466.293 458.501H483.285V459.633H466.293V458.501ZM567.69 453.472C567.69 467.245 561.434 473.911 553.719 473.911C546.004 473.911 539.749 467.245 539.749 453.472C539.749 439.699 546.004 424.033 553.719 424.033C561.434 424.033 567.69 439.699 567.69 453.472ZM552.214 492.074V444.985C552.214 444.468 552.634 444.049 553.151 444.049C553.668 444.049 554.088 444.468 554.088 444.985V492.074H552.214ZM552.821 463.639C552.455 463.274 552.455 462.681 552.821 462.315L561.316 453.827C561.681 453.462 562.274 453.462 562.641 453.827C563.006 454.192 563.006 454.784 562.641 455.151L554.146 463.639C553.779 464.004 553.186 464.004 552.821 463.639ZM546.213 436.97C546.213 456.631 537.283 466.146 526.27 466.146C515.256 466.146 506.325 456.631 506.325 436.97C506.325 417.308 515.255 394.946 526.27 394.946C537.285 394.946 546.213 417.308 546.213 436.97ZM525.333 492.074V434.58C525.333 434.063 525.753 433.643 526.27 433.643C526.787 433.643 527.207 434.063 527.207 434.58V492.074H525.333ZM525.939 453.234C525.574 452.869 525.574 452.276 525.939 451.91L534.434 443.421C534.8 443.056 535.393 443.056 535.76 443.421C536.125 443.786 536.125 444.379 535.76 444.745L527.265 453.234C526.898 453.599 526.305 453.599 525.939 453.234ZM615.725 436.97C615.725 456.631 606.795 466.146 595.781 466.146C584.768 466.146 575.837 456.631 575.837 436.97C575.837 417.308 584.767 394.946 595.781 394.946C606.796 394.946 615.725 417.308 615.725 436.97ZM594.844 492.074V434.58C594.844 434.063 595.264 433.643 595.781 433.643C596.299 433.643 596.719 434.063 596.719 434.58V492.074H594.844ZM595.451 453.234C595.086 452.869 595.086 452.276 595.451 451.91L603.946 443.421C604.311 443.056 604.905 443.056 605.27 443.421C605.635 443.786 605.635 444.379 605.27 444.745L596.775 453.234C596.409 453.599 595.816 453.599 595.451 453.234ZM1382 453.472C1382 467.245 1375.75 473.911 1368.03 473.911C1360.32 473.911 1354.06 467.245 1354.06 453.472C1354.06 439.699 1360.32 424.033 1368.03 424.033C1375.75 424.033 1382 439.699 1382 453.472ZM1366.53 492.074V444.985C1366.53 444.468 1366.95 444.049 1367.47 444.049C1367.98 444.049 1368.4 444.468 1368.4 444.985V492.074H1366.53ZM1367.14 463.639C1366.77 463.274 1366.77 462.681 1367.14 462.315L1375.63 453.827C1376 453.462 1376.59 453.462 1376.96 453.827C1377.32 454.192 1377.32 454.784 1376.96 455.151L1368.46 463.639C1368.09 464.004 1367.5 464.004 1367.14 463.639ZM1360.53 436.97C1360.53 456.631 1351.6 466.146 1340.58 466.146C1329.57 466.146 1320.64 456.631 1320.64 436.97C1320.64 417.308 1329.57 394.946 1340.58 394.946C1351.6 394.946 1360.53 417.308 1360.53 436.97ZM1339.65 492.074V434.58C1339.65 434.063 1340.07 433.643 1340.58 433.643C1341.1 433.643 1341.52 434.063 1341.52 434.58V492.074H1339.65ZM1340.25 453.234C1339.89 452.869 1339.89 452.276 1340.25 451.91L1348.75 443.421C1349.11 443.056 1349.71 443.056 1350.07 443.421C1350.44 443.786 1350.44 444.379 1350.07 444.745L1341.58 453.234C1341.21 453.599 1340.62 453.599 1340.25 453.234ZM1430.04 436.97C1430.04 456.631 1421.11 466.146 1410.1 466.146C1399.08 466.146 1390.15 456.631 1390.15 436.97C1390.15 417.308 1399.08 394.946 1410.1 394.946C1421.11 394.946 1430.04 417.308 1430.04 436.97ZM1409.16 492.074V434.58C1409.16 434.063 1409.58 433.643 1410.1 433.643C1410.62 433.643 1411.04 434.063 1411.04 434.58V492.074H1409.16ZM1409.77 453.234C1409.4 452.869 1409.4 452.276 1409.77 451.91L1418.26 443.421C1418.63 443.056 1419.22 443.056 1419.59 443.421C1419.95 443.786 1419.95 444.379 1419.59 444.745L1411.09 453.234C1410.72 453.599 1410.13 453.599 1409.77 453.234ZM345.241 453.472C345.241 467.245 338.985 473.911 331.27 473.911C323.555 473.911 317.299 467.245 317.299 453.472C317.299 439.699 323.555 424.033 331.27 424.033C338.985 424.033 345.241 439.699 345.241 453.472ZM329.765 492.074V444.985C329.765 444.468 330.185 444.049 330.702 444.049C331.219 444.049 331.639 444.468 331.639 444.985V492.074H329.765ZM330.371 463.639C330.006 463.274 330.006 462.681 330.371 462.315L338.867 453.827C339.232 453.462 339.825 453.462 340.192 453.827C340.557 454.192 340.557 454.784 340.192 455.151L331.697 463.639C331.33 464.004 330.737 464.004 330.371 463.639ZM323.764 436.97C323.764 456.631 314.834 466.146 303.821 466.146C292.807 466.146 283.878 456.631 283.878 436.97C283.878 417.308 292.807 394.946 303.821 394.946C314.834 394.946 323.764 417.308 323.764 436.97ZM302.884 492.074V434.58C302.884 434.063 303.304 433.643 303.821 433.643C304.338 433.643 304.758 434.063 304.758 434.58V492.074H302.884ZM303.489 453.234C303.124 452.869 303.124 452.276 303.489 451.91L311.984 443.421C312.349 443.056 312.943 443.056 313.309 443.421C313.674 443.786 313.674 444.379 313.309 444.745L304.814 453.234C304.449 453.599 303.855 453.599 303.489 453.234ZM897.157 453.472C897.157 467.245 890.902 473.911 883.187 473.911C875.471 473.911 869.216 467.245 869.216 453.472C869.216 439.699 875.471 424.033 883.187 424.033C890.902 424.033 897.157 439.699 897.157 453.472ZM882.659 492.074V437.32C882.659 436.719 883.079 436.232 883.596 436.232C884.113 436.232 884.533 436.719 884.533 437.32V492.074H882.659ZM883.265 459.01C882.9 458.585 882.9 457.896 883.265 457.471L891.76 447.6C892.126 447.175 892.719 447.175 893.086 447.6C893.451 448.025 893.451 448.714 893.086 449.139L884.59 459.01C884.224 459.435 883.631 459.435 883.265 459.01ZM875.681 436.97C875.681 456.631 866.751 466.146 855.737 466.146C844.724 466.146 835.794 456.631 835.794 436.97C835.794 417.308 844.724 394.946 855.737 394.946C866.751 394.946 875.681 417.308 875.681 436.97ZM854.8 492.074V434.58C854.8 434.063 855.22 433.643 855.737 433.643C856.255 433.643 856.675 434.063 856.675 434.58V492.074H854.8ZM855.405 453.234C855.04 452.869 855.04 452.276 855.405 451.91L863.901 443.421C864.266 443.056 864.859 443.056 865.226 443.421C865.591 443.786 865.591 444.379 865.226 444.745L856.731 453.234C856.365 453.599 855.772 453.599 855.405 453.234ZM60.5231 436.97C60.5231 456.631 51.5934 466.146 40.5798 466.146C29.5663 466.146 20.6365 456.631 20.6365 436.97C20.6365 417.308 29.5663 394.946 40.5798 394.946C51.5934 394.946 60.5231 417.308 60.5231 436.97ZM39.6426 492.074V434.58C39.6426 434.063 40.0625 433.643 40.5798 433.643C41.0971 433.643 41.5171 434.063 41.5171 434.58V492.074H39.6426ZM40.2492 453.234C39.8839 452.869 39.8839 452.276 40.2492 451.91L48.7443 443.421C49.1096 443.056 49.7029 443.056 50.0695 443.421C50.4348 443.786 50.4348 444.379 50.0695 444.745L41.5744 453.234C41.2078 453.599 40.6145 453.599 40.2492 453.234ZM1099.18 436.97C1099.18 456.631 1090.25 466.146 1079.24 466.146C1068.22 466.146 1059.29 456.631 1059.29 436.97C1059.29 417.308 1068.22 394.946 1079.24 394.946C1090.25 394.946 1099.18 417.308 1099.18 436.97ZM1078.3 492.074V434.58C1078.3 434.063 1078.72 433.643 1079.24 433.643C1079.76 433.643 1080.18 434.063 1080.18 434.58V492.074H1078.3ZM1078.91 453.234C1078.54 452.869 1078.54 452.276 1078.91 451.91L1087.4 443.421C1087.77 443.056 1088.36 443.056 1088.73 443.421C1089.09 443.786 1089.09 444.379 1088.73 444.745L1080.23 453.234C1079.87 453.599 1079.27 453.599 1078.91 453.234Z" stroke="#3D4D57" stroke-opacity="0.3" stroke-width="2" stroke-miterlimit="10"/>
</g>
</g>
</svg>
